<svg width="18" height="18" viewBox="0 0 18 18" fill="none" xmlns="http://www.w3.org/2000/svg">
<path d="M9 0C13.9706 0 18 4.02939 18 9C18 13.9697 13.9706 17.9991 9 17.9991C4.02939 17.9991 0 13.9697 0 9C0 4.02939 4.02939 0 9 0ZM9 1.34973C7.98843 1.33876 6.98473 1.52852 6.04699 1.90804C5.10925 2.28756 4.25609 2.8493 3.53689 3.56074C2.81769 4.27218 2.24673 5.11919 1.85707 6.05276C1.4674 6.98634 1.26676 7.98792 1.26676 8.99955C1.26676 10.0112 1.4674 11.0128 1.85707 11.9463C2.24673 12.8799 2.81769 13.7269 3.53689 14.4384C4.25609 15.1498 5.10925 15.7115 6.04699 16.0911C6.98473 16.4706 7.98843 16.6603 9 16.6494C11.0084 16.6186 12.9241 15.7991 14.3335 14.3679C15.7429 12.9367 16.5329 11.0087 16.5329 9C16.5329 6.99134 15.7429 5.06327 14.3335 3.63209C12.9241 2.2009 11.0084 1.38054 9 1.34973ZM8.9964 3.59928C10.4278 3.59928 11.8006 4.1679 12.8127 5.18006C13.8249 6.19222 14.3935 7.56499 14.3935 8.9964C14.3935 10.4278 13.8249 11.8006 12.8127 12.8127C11.8006 13.8249 10.4278 14.3935 8.9964 14.3935C7.56499 14.3935 6.19222 13.8249 5.18006 12.8127C4.1679 11.8006 3.59928 10.4278 3.59928 8.9964C3.59928 7.56499 4.1679 6.19222 5.18006 5.18006C6.19222 4.1679 7.56499 3.59928 8.9964 3.59928Z" fill="#F15E38"/>
</svg>
