<svg width="18" height="19" viewBox="0 0 18 19" fill="none" xmlns="http://www.w3.org/2000/svg">
<path d="M12.5992 12.2532H11.803L11.5209 11.9524C12.1507 11.1438 12.611 10.1913 12.8689 9.16312C13.1267 8.13492 13.1757 7.05645 13.0124 6.00487C12.5388 2.90857 10.2006 0.435977 7.37871 0.0572924C6.38662 -0.0814112 5.37897 0.0325349 4.43287 0.390411C3.48676 0.748288 2.62727 1.34061 1.92017 2.12205C1.21307 2.90349 0.677101 3.85334 0.35327 4.89892C0.0294398 5.94449 -0.0736663 7.05808 0.051842 8.15446C0.394501 11.273 2.63187 13.857 5.43361 14.3805C6.38515 14.561 7.36102 14.5068 8.2914 14.2218C9.22178 13.9369 10.0837 13.4281 10.8154 12.7321L11.0875 13.044V13.9238L15.3707 18.6574C15.7839 19.114 16.4592 19.114 16.8724 18.6574C17.2856 18.2007 17.2856 17.4545 16.8724 16.9979L12.5992 12.2532ZM6.55229 12.2532C4.04282 12.2532 2.01709 10.0145 2.01709 7.24116C2.01709 4.46786 4.04282 2.22916 6.55229 2.22916C9.06177 2.22916 11.0875 4.46786 11.0875 7.24116C11.0875 10.0145 9.06177 12.2532 6.55229 12.2532Z" fill="#082032"/>
</svg>
