<svg width="48" height="32" viewBox="0 0 48 32" fill="none" xmlns="http://www.w3.org/2000/svg">
<path d="M9.79985 7.36141H2.44996C1.10248 7.36141 0 6.25893 0 4.91145C0 3.56397 1.10248 2.46149 2.44996 2.46149H9.79985C11.1473 2.46149 12.2498 3.56397 12.2498 4.91145C12.2498 6.25893 11.1473 7.36141 9.79985 7.36141ZM9.79985 14.7113H2.44996C1.10248 14.7113 0 15.8138 0 17.1613C0 18.5087 1.10248 19.6112 2.44996 19.6112H9.79985C11.1473 19.6112 12.2498 18.5087 12.2498 17.1613C12.2498 15.8138 11.1473 14.7113 9.79985 14.7113ZM43.8053 30.1216L36.1614 22.4777C34.0545 23.8497 31.531 24.6336 28.8116 24.4866C23.0051 24.2172 18.0317 19.6847 17.2477 13.9273C16.989 12.0137 17.1851 10.0661 17.8202 8.2425C18.4552 6.41891 19.5114 4.77076 20.9028 3.43184C22.2942 2.09292 23.9817 1.10096 25.8284 0.536479C27.675 -0.0280033 29.6288 -0.149099 31.531 0.183022C36.3084 0.99151 40.2774 4.71545 41.3309 9.44388C42.1394 13.0208 41.3554 16.3528 39.6159 18.9987L47.2843 26.6671C48.2398 27.6226 48.2398 29.1661 47.2843 30.1216C46.3288 31.077 44.7608 31.077 43.8053 30.1216ZM36.7494 12.2613C36.7494 8.2189 33.442 4.91145 29.3995 4.91145C25.3571 4.91145 22.0497 8.2189 22.0497 12.2613C22.0497 16.3038 25.3571 19.6112 29.3995 19.6112C33.442 19.6112 36.7494 16.3038 36.7494 12.2613ZM2.44996 31.861H22.0497C23.3971 31.861 24.4996 30.7586 24.4996 29.4111C24.4996 28.0636 23.3971 26.9611 22.0497 26.9611H2.44996C1.10248 26.9611 0 28.0636 0 29.4111C0 30.7586 1.10248 31.861 2.44996 31.861Z" fill="#F15E38" fill-opacity="0.5"/>
</svg>
