<svg width="48" height="32" viewBox="0 0 48 32" fill="none" xmlns="http://www.w3.org/2000/svg">
<path d="M9.79965 7.36126H2.44991C1.10246 7.36126 0 6.2588 0 4.91135C0 3.5639 1.10246 2.46144 2.44991 2.46144H9.79965C11.1471 2.46144 12.2496 3.5639 12.2496 4.91135C12.2496 6.2588 11.1471 7.36126 9.79965 7.36126ZM9.79965 14.711H2.44991C1.10246 14.711 0 15.8135 0 17.1609C0 18.5084 1.10246 19.6108 2.44991 19.6108H9.79965C11.1471 19.6108 12.2496 18.5084 12.2496 17.1609C12.2496 15.8135 11.1471 14.711 9.79965 14.711ZM43.8044 30.1209L36.1607 22.4772C34.0538 23.8492 31.5304 24.6331 28.811 24.4861C23.0047 24.2167 18.0313 19.6843 17.2474 13.927C16.9886 12.0135 17.1848 10.0659 17.8198 8.24233C18.4549 6.41878 19.5109 4.77067 20.9023 3.43177C22.2937 2.09288 23.9812 1.10094 25.8279 0.536468C27.6745 -0.0280027 29.6282 -0.149096 31.5304 0.183018C36.3077 0.991489 40.2766 4.71536 41.33 9.44369C42.1385 13.0206 41.3545 16.3524 39.6151 18.9983L47.2833 26.6666C48.2388 27.622 48.2388 29.1655 47.2833 30.1209C46.3278 31.0764 44.7599 31.0764 43.8044 30.1209ZM36.7487 12.2611C36.7487 8.21873 33.4413 4.91135 29.3989 4.91135C25.3566 4.91135 22.0492 8.21873 22.0492 12.2611C22.0492 16.3034 25.3566 19.6108 29.3989 19.6108C33.4413 19.6108 36.7487 16.3034 36.7487 12.2611ZM2.44991 31.8604H22.0492C23.3967 31.8604 24.4991 30.7579 24.4991 29.4105C24.4991 28.063 23.3967 26.9606 22.0492 26.9606H2.44991C1.10246 26.9606 0 28.063 0 29.4105C0 30.7579 1.10246 31.8604 2.44991 31.8604Z" fill="#334756"/>
</svg>
