<svg width="24" height="24" viewBox="0 0 24 24" fill="none" xmlns="http://www.w3.org/2000/svg">
<path d="M19.21 6.35757C18.17 4.25757 16.16 2.70757 13.83 2.19757C11.39 1.65757 8.88997 2.23757 6.97997 3.77757C5.05997 5.30757 3.96997 7.59757 3.96997 10.0476C3.96997 12.6376 5.51997 15.3476 7.85997 16.9176V17.7476C7.84997 18.0276 7.83997 18.4576 8.17997 18.8076C8.52997 19.1676 9.04997 19.2076 9.45997 19.2076H14.59C15.13 19.2076 15.54 19.0576 15.82 18.7776C16.2 18.3876 16.19 17.8876 16.18 17.6176V16.9176C19.28 14.8276 21.23 10.4176 19.21 6.35757Z" fill="#F15E38"/>
<path d="M15.26 21.9984C15.2 21.9984 15.13 21.9884 15.07 21.9684C13.06 21.3984 10.95 21.3984 8.94003 21.9684C8.57003 22.0684 8.18003 21.8584 8.08003 21.4884C7.97003 21.1184 8.19003 20.7284 8.56003 20.6284C10.82 19.9884 13.2 19.9884 15.46 20.6284C15.83 20.7384 16.05 21.1184 15.94 21.4884C15.84 21.7984 15.56 21.9984 15.26 21.9984Z" fill="#F15E38"/>
</svg>
