<svg width="40" height="40" viewBox="0 0 40 40" fill="none" xmlns="http://www.w3.org/2000/svg">
<path d="M24.4416 3.88195C24.738 3.73376 25.0811 3.70933 25.3955 3.81403C25.7099 3.91873 25.9699 4.14398 26.1183 4.44028L29.7866 11.7769C32.0416 11.9503 33.4566 12.3936 34.3699 13.5219C35.0966 14.4203 35.3299 15.5369 35.2449 17.0819H4.75496C4.66996 15.5369 4.90496 14.4203 5.62996 13.5219C6.54329 12.392 7.95829 11.9503 10.2133 11.7769L13.8816 4.44028C14.0312 4.14633 14.291 3.92344 14.6042 3.82016C14.9175 3.71689 15.2589 3.74161 15.554 3.88894C15.8491 4.03628 16.074 4.29427 16.1797 4.60671C16.2854 4.91915 16.2633 5.26071 16.1183 5.55695L13.06 11.6736C13.865 11.6653 14.7433 11.6653 15.7033 11.6653H24.2966C25.2566 11.6653 26.1349 11.6653 26.9399 11.6736L23.8816 5.55695C23.7335 5.26035 23.7094 4.91708 23.8144 4.60264C23.9194 4.28821 24.145 4.03004 24.4416 3.88195Z" fill="#F15E38" fill-opacity="0.65"/>
<path fill-rule="evenodd" clip-rule="evenodd" d="M5.92495 23.7565C5.61751 22.3687 5.33413 20.9757 5.07495 19.5781H34.925C34.6656 20.9757 34.3822 22.3687 34.075 23.7565L33.36 27.0898C32.5483 30.8781 32.1433 32.7715 30.7683 33.8831C29.3933 34.9948 27.4566 34.9948 23.5833 34.9948H16.4166C12.5433 34.9948 10.6066 34.9948 9.23328 33.8831C7.85662 32.7715 7.44995 30.8781 6.63995 27.0898L5.92495 23.7565ZM16.6666 22.0781C16.3351 22.0781 16.0172 22.2098 15.7827 22.4442C15.5483 22.6787 15.4166 22.9966 15.4166 23.3281C15.4166 23.6596 15.5483 23.9776 15.7827 24.212C16.0172 24.4464 16.3351 24.5781 16.6666 24.5781H23.3333C23.6648 24.5781 23.9827 24.4464 24.2172 24.212C24.4516 23.9776 24.5833 23.6596 24.5833 23.3281C24.5833 22.9966 24.4516 22.6787 24.2172 22.4442C23.9827 22.2098 23.6648 22.0781 23.3333 22.0781H16.6666Z" fill="#F15E38" fill-opacity="0.65"/>
</svg>
