<svg width="15" height="9" viewBox="0 0 15 9" fill="none" xmlns="http://www.w3.org/2000/svg">
<path fill-rule="evenodd" clip-rule="evenodd" d="M1.25027 0.000267029C1.00308 0.000319481 0.761458 0.0736589 0.555946 0.211015C0.350433 0.348371 0.190259 0.543574 0.0956717 0.771949C0.00108433 1.00032 -0.0236702 1.25162 0.0245399 1.49406C0.0727491 1.7365 0.191756 1.9592 0.366518 2.13402L6.61652 8.38402C6.85093 8.61836 7.16881 8.75 7.50027 8.75C7.83172 8.75 8.14961 8.61836 8.38402 8.38402L14.634 2.13402C14.8088 1.9592 14.9278 1.7365 14.976 1.49406C15.0242 1.25162 14.9995 1.00032 14.9049 0.771949C14.8103 0.543574 14.6501 0.348371 14.4446 0.211015C14.2391 0.0736589 13.9975 0.000319481 13.7503 0.000267029L1.25027 0.000267029Z" fill="#F15E38"/>
</svg>
