<svg width="33" height="29" viewBox="0 0 33 29" fill="none" xmlns="http://www.w3.org/2000/svg">
<path d="M21.7083 8.23354C21.7083 10.6148 18.5356 14.8583 17.1424 16.6072C16.8082 17.0259 16.1875 17.0259 15.8576 16.6072C14.4644 14.8583 11.2917 10.6148 11.2917 8.23354C11.2917 5.34201 13.6224 3 16.5 3C19.3776 3 21.7083 5.34201 21.7083 8.23354ZM22.0556 11.74C22.2075 11.4391 22.3464 11.1382 22.4722 10.8416C22.4939 10.7893 22.5156 10.7326 22.5373 10.6802L27.572 8.65659C28.2578 8.38183 29 8.88774 29 9.62916V21.4395C29 21.8669 28.7396 22.2507 28.3446 22.4121L22.0556 24.9373V11.74ZM9.97222 9.03166C10.0764 9.6466 10.2847 10.2659 10.5278 10.8416C10.6536 11.1382 10.7925 11.4391 10.9444 11.74V22.7043L5.42795 24.9242C4.74219 25.1989 4 24.693 4 23.9516V12.1413C4 11.7139 4.26042 11.3301 4.65538 11.1687L9.97656 9.03166H9.97222ZM18.2274 17.4795C18.8307 16.7206 19.7769 15.4864 20.6667 14.1213V24.994L12.3333 22.5996V14.1213C13.2231 15.4864 14.1693 16.7206 14.7726 17.4795C15.6623 18.596 17.3377 18.596 18.2274 17.4795ZM16.5 9.62916C16.9604 9.62916 17.402 9.44536 17.7276 9.1182C18.0532 8.79104 18.2361 8.34732 18.2361 7.88464C18.2361 7.42197 18.0532 6.97824 17.7276 6.65108C17.402 6.32392 16.9604 6.14013 16.5 6.14013C16.0396 6.14013 15.598 6.32392 15.2724 6.65108C14.9468 6.97824 14.7639 7.42197 14.7639 7.88464C14.7639 8.34732 14.9468 8.79104 15.2724 9.1182C15.598 9.44536 16.0396 9.62916 16.5 9.62916Z" fill="white"/>
</svg>
