<svg width="44" height="44" viewBox="0 0 44 44" fill="none" xmlns="http://www.w3.org/2000/svg">
<path d="M38.0402 21.9998L40.0642 18.5018C40.3075 18.0809 40.3737 17.5807 40.2482 17.111C40.1227 16.6414 39.8158 16.2409 39.3951 15.9974L35.8934 13.9734V9.94009C35.8934 9.45386 35.7003 8.98755 35.3564 8.64373C35.0126 8.29991 34.5463 8.10676 34.0601 8.10676H30.0286L28.0064 4.60693C27.7622 4.18694 27.3624 3.88002 26.8936 3.75259C26.661 3.68956 26.4183 3.6733 26.1794 3.70477C25.9406 3.73624 25.7103 3.81481 25.5021 3.93593L22.0004 5.95993L18.4987 3.93409C18.0777 3.69099 17.5773 3.62511 17.1076 3.75094C16.638 3.87678 16.2375 4.18403 15.9944 4.60509L13.9704 8.10676H9.93891C9.45268 8.10676 8.98636 8.29991 8.64254 8.64373C8.29873 8.98755 8.10557 9.45386 8.10557 9.94009V13.9716L4.60391 15.9956C4.39496 16.1158 4.21183 16.2761 4.06502 16.4672C3.91822 16.6584 3.81063 16.8767 3.74845 17.1096C3.68627 17.3425 3.67072 17.5854 3.70269 17.8243C3.73466 18.0632 3.81352 18.2934 3.93474 18.5018L5.95874 21.9998L3.93474 25.4978C3.69272 25.919 3.62705 26.4189 3.75206 26.8883C3.87707 27.3578 4.18261 27.7588 4.60207 28.0039L8.10374 30.0279V34.0594C8.10374 34.5457 8.29689 35.012 8.64071 35.3558C8.98453 35.6996 9.45084 35.8928 9.93707 35.8928H13.9704L15.9944 39.3944C16.1567 39.6719 16.3885 39.9023 16.6668 40.063C16.9452 40.2238 17.2606 40.3092 17.5821 40.3111C17.9011 40.3111 18.2182 40.2268 18.5006 40.0636L21.9986 38.0396L25.5002 40.0636C25.9212 40.3064 26.4213 40.3722 26.8908 40.2468C27.3602 40.1213 27.7608 39.8148 28.0046 39.3944L30.0267 35.8928H34.0582C34.5445 35.8928 35.0108 35.6996 35.3546 35.3558C35.6984 35.012 35.8916 34.5457 35.8916 34.0594V30.0279L39.3932 28.0039C39.6018 27.8834 39.7846 27.7229 39.9311 27.5317C40.0777 27.3405 40.1851 27.1223 40.2472 26.8895C40.3094 26.6568 40.325 26.4141 40.2933 26.1752C40.2616 25.9364 40.1831 25.7062 40.0624 25.4978L38.0402 21.9998ZM17.4152 12.8148C18.1448 12.815 18.8444 13.1051 19.3602 13.6211C19.8759 14.1372 20.1655 14.837 20.1652 15.5666C20.165 16.2962 19.8749 16.9958 19.3589 17.5115C18.8428 18.0272 18.143 18.3168 17.4134 18.3166C16.6838 18.3163 15.9842 18.0263 15.4685 17.5102C14.9528 16.9942 14.6632 16.2943 14.6634 15.5648C14.6636 14.8352 14.9537 14.1356 15.4698 13.6198C15.9858 13.1041 16.6856 12.8145 17.4152 12.8148ZM17.9652 30.4148L15.0319 28.2166L26.0319 13.5499L28.9652 15.7481L17.9652 30.4148ZM26.5819 31.1481C26.2206 31.148 25.863 31.0767 25.5292 30.9383C25.1955 30.8 24.8923 30.5972 24.637 30.3417C24.3816 30.0862 24.1791 29.7829 24.041 29.4491C23.9028 29.1153 23.8318 28.7575 23.8319 28.3963C23.832 28.035 23.9033 27.6773 24.0417 27.3436C24.18 27.0099 24.3827 26.7067 24.6383 26.4513C24.8938 26.196 25.1971 25.9934 25.5309 25.8553C25.8647 25.7172 26.2225 25.6461 26.5837 25.6463C27.3133 25.6465 28.0129 25.9366 28.5287 26.4526C29.0444 26.9687 29.334 27.6685 29.3337 28.3981C29.3335 29.1277 29.0434 29.8273 28.5274 30.343C28.0113 30.8587 27.3115 31.1483 26.5819 31.1481Z" fill="#BDBDD5"/>
</svg>
