<svg width="24" height="24" viewBox="0 0 24 24" fill="none" xmlns="http://www.w3.org/2000/svg">
<path d="M15.3294 3.08594L10.7714 6.01159L11.2334 6.26458L15.2886 3.66161L22.1668 7.55767L18.2216 10.09L18.4137 10.1952V10.5162L21.5039 8.53262L22.1524 8.90003L18.4137 11.2998V11.8493L21.4434 9.90461L22.1524 10.3063L18.4137 12.7061V13.2556L21.4434 11.3109L22.1524 11.7126L18.4137 14.1124V14.6619L23.1027 11.6521L21.9389 10.9929L23.1027 10.2459L21.9389 9.58661L23.1026 8.83956L21.9994 8.21458L23.1169 7.49716L15.3294 3.08594H15.3294ZM16.7857 5.18313C15.7995 5.67794 14.486 5.76166 13.5611 5.38858L11.7532 6.54906L17.7018 9.80547L19.4165 8.70484C18.7411 8.17159 18.7973 7.37594 19.5544 6.75156L16.7856 5.18313H16.7857ZM10.6643 6.91488L7.35078 9.07553L13.7075 12.7349L13.7698 12.695C13.887 12.6196 14.0525 12.5127 14.2499 12.385C14.6446 12.1299 15.1669 11.7916 15.6878 11.4541C16.4379 10.968 16.8244 10.7172 17.1838 10.4841L10.6643 6.91488ZM16.0768 6.96972C16.0768 6.96972 16.0769 6.96972 16.0769 6.96972C16.2268 6.97063 16.3643 7.00277 16.4669 7.06089C16.5267 7.09472 16.573 7.13644 16.6033 7.18368C16.6336 7.23093 16.6472 7.28276 16.6434 7.33622C16.6396 7.38968 16.6185 7.44373 16.5812 7.49527C16.5439 7.54681 16.4912 7.59484 16.4262 7.63661C16.3611 7.67838 16.2849 7.71308 16.2019 7.73872C16.1189 7.76437 16.0308 7.78046 15.9426 7.78607C15.8543 7.79169 15.7677 7.78672 15.6876 7.77145C15.6075 7.75618 15.5356 7.73091 15.4759 7.69708C15.3553 7.62876 15.2918 7.52974 15.2994 7.42179C15.3071 7.31384 15.3852 7.20581 15.5166 7.12145C15.5913 7.07354 15.6804 7.03501 15.7774 7.00873C15.8744 6.98246 15.9767 6.96912 16.0768 6.96972ZM5.83821 9.17823L0.897354 12.3496L2.00065 12.9745L0.883057 13.692L2.04687 14.3512L0.883057 15.0983L2.04687 15.7575L0.883057 16.5046L8.67064 20.9158L13.3724 17.8977V17.3483L8.71146 20.3401L1.83331 16.444L2.50151 16.015L8.67064 19.5094L13.3724 16.4914V15.9421L8.71146 18.9338L1.83331 15.0377L2.50151 14.6088L8.67064 18.1032L13.3724 15.0852V14.5358L8.71146 17.5276L1.83331 13.6315L2.45534 13.2321L8.68503 16.7608L13.3724 13.752V13.5153L13.1155 13.3675L8.72567 16.1851L1.8477 12.289L6.28957 9.43792L5.83817 9.17809L5.83821 9.17823ZM6.79728 9.73042L4.5979 11.1421C5.27337 11.6752 5.21712 12.4709 4.45999 13.0953L7.22881 14.6638C8.21492 14.1689 9.52835 14.0852 10.4532 14.4583L12.6078 13.0753L6.79718 9.73037L6.79728 9.73042ZM17.5699 11.2393C17.1929 11.4839 16.8604 11.6997 16.1467 12.1622C15.6673 12.473 15.1878 12.7835 14.7081 13.0938C14.5104 13.2215 14.3446 13.3286 14.2263 13.4046C14.2221 13.4074 14.2204 13.4084 14.2162 13.411V17.4387L17.57 15.1846L17.5699 11.2393ZM8.14854 12.0587C8.29847 12.0596 8.43592 12.0918 8.53854 12.15C8.65914 12.2183 8.7226 12.3173 8.71495 12.4253C8.7073 12.5332 8.62918 12.6412 8.49776 12.7256C8.36635 12.8099 8.19242 12.8637 8.01424 12.875C7.83606 12.8864 7.66821 12.8544 7.5476 12.7861C7.427 12.7177 7.36355 12.6187 7.3712 12.5108C7.37885 12.4028 7.45697 12.2948 7.58838 12.2104C7.66302 12.1625 7.75216 12.124 7.84915 12.0977C7.94615 12.0715 8.04849 12.0581 8.14854 12.0587V12.0587Z" fill="#F15E38"/>
</svg>
