<svg width="28" height="22" viewBox="0 0 28 22" fill="none" xmlns="http://www.w3.org/2000/svg">
<g clip-path="url(#clip0_171_929)">
<path d="M3.26374 16.0357C5.08812 17.5869 7.98874 19.5807 10.5306 19.2025C10.7975 19.1639 11.06 19.0951 11.3181 19.0092C10.9156 18.4807 10.5612 17.9607 10.2594 17.4881C9.30124 15.9842 8.99937 14.2568 9.12624 12.6068C8.22499 12.783 7.41124 13.1654 6.73312 13.6982C6.44874 13.9217 6.01999 13.7541 6.08562 13.3975C6.36562 11.958 7.52937 10.7807 9.06937 10.5486C9.18312 10.5315 9.30124 10.5186 9.41499 10.5143L10.2637 4.87247C10.3512 4.2795 10.6137 3.46739 11.3575 2.9002C12.1712 2.28575 13.5844 1.58965 15.89 1.3834L15.785 1.29317C14.9012 0.622857 12.6175 -0.494331 7.68687 0.240435C2.75624 0.975201 0.896865 2.70684 0.249365 3.60489C-9.84669e-06 3.94864 -0.0350099 4.38262 0.0262401 4.80372L1.08499 11.8635C1.32562 13.4662 2.02561 14.983 3.26374 16.04V16.0357ZM7.10062 6.59981C7.29312 6.46661 7.57312 6.51387 7.61687 6.74161C7.62124 6.76309 7.62562 6.78887 7.62999 6.81036C7.76999 7.74708 7.12249 8.61504 6.18187 8.75684C5.24124 8.89864 4.36624 8.24981 4.22624 7.31739C4.22187 7.2959 4.22187 7.27012 4.21749 7.24864C4.19124 7.01661 4.44499 6.8877 4.66812 6.96075C5.06187 7.08965 5.49061 7.12833 5.92374 7.06387C6.35686 6.99942 6.75937 6.83614 7.09624 6.59981H7.10062ZM11.445 16.7576C12.7312 18.7729 14.9231 21.5229 17.465 21.901C20.0069 22.2791 22.9119 20.2897 24.7319 18.7342C25.97 17.6814 26.67 16.1647 26.9106 14.5576L27.9694 7.49786C28.0306 7.07676 27.9956 6.64278 27.7462 6.29903C27.0987 5.40098 25.2394 3.66934 20.3087 2.93458C15.3781 2.19981 13.0987 3.317 12.215 3.98731C11.8737 4.24512 11.7119 4.64903 11.6506 5.07012L10.5919 12.1299C10.3512 13.7326 10.5744 15.3869 11.4494 16.7576H11.445ZM17.6969 10.1104C17.36 9.87403 16.9619 9.71075 16.5244 9.64629C16.0869 9.58184 15.6581 9.62051 15.2687 9.74942C15.0456 9.82247 14.7919 9.69356 14.8181 9.46153C14.8225 9.44004 14.8225 9.41426 14.8269 9.39278C14.9669 8.45606 15.8419 7.81153 16.7825 7.95333C17.7231 8.09512 18.3706 8.96309 18.2306 9.89981C18.2262 9.92129 18.2219 9.94708 18.2175 9.96856C18.1737 10.1963 17.8937 10.2436 17.7012 10.1104H17.6969ZM23.6556 10.7764C23.6119 11.0041 23.3319 11.0514 23.1394 10.9182C22.8025 10.6818 22.4044 10.5186 21.9669 10.4541C21.5294 10.3897 21.1006 10.4283 20.7112 10.5572C20.4881 10.6303 20.2344 10.5014 20.2606 10.2693C20.265 10.2479 20.265 10.2221 20.2694 10.2006C20.4094 9.26387 21.2844 8.61934 22.225 8.76114C23.1656 8.90294 23.8131 9.7709 23.6731 10.7076C23.6687 10.7291 23.6644 10.7549 23.66 10.7764H23.6556ZM23.1875 15.0475C22.33 16.9682 20.265 18.1627 18.0775 17.8361C15.89 17.5096 14.2669 15.765 14.0087 13.6811C13.965 13.3244 14.3981 13.1611 14.6737 13.3932C15.7194 14.2869 17.0187 14.91 18.48 15.1248C19.9412 15.3397 21.3719 15.1291 22.6319 14.5748C22.9644 14.4287 23.3319 14.7123 23.1831 15.0432L23.1875 15.0475Z" fill="white"/>
</g>
<defs>
<clipPath id="clip0_171_929">
<rect width="28" height="22" fill="white"/>
</clipPath>
</defs>
</svg>
