<svg width="16" height="16" viewBox="0 0 16 16" fill="none" xmlns="http://www.w3.org/2000/svg">
<path fill-rule="evenodd" clip-rule="evenodd" d="M6.50961 1.99867C6.6972 1.78916 6.92686 1.62157 7.1836 1.50683C7.44034 1.3921 7.7184 1.33279 7.99961 1.33279C8.28082 1.33279 8.55888 1.3921 8.81562 1.50683C9.07236 1.62157 9.30202 1.78916 9.48961 1.99867L9.95628 2.52C10.023 2.5946 10.1056 2.65324 10.198 2.69155C10.2905 2.72987 10.3904 2.74688 10.4903 2.74133L11.1903 2.70267C11.471 2.68725 11.7518 2.73118 12.0143 2.8316C12.2769 2.93201 12.5154 3.08666 12.7142 3.28544C12.913 3.48423 13.0676 3.72268 13.168 3.98526C13.2684 4.24784 13.3124 4.52863 13.2969 4.80933L13.2583 5.50933C13.2528 5.60914 13.2699 5.70889 13.3082 5.80121C13.3465 5.89352 13.4051 5.97605 13.4796 6.04267L14.0016 6.50933C14.2112 6.69692 14.3789 6.92662 14.4937 7.18343C14.6085 7.44023 14.6679 7.71837 14.6679 7.99967C14.6679 8.28096 14.6085 8.5591 14.4937 8.8159C14.3789 9.07271 14.2112 9.30241 14.0016 9.49L13.4796 9.95667C13.405 10.0234 13.3464 10.106 13.3081 10.1984C13.2697 10.2909 13.2527 10.3908 13.2583 10.4907L13.2969 11.1907C13.3124 11.4714 13.2684 11.7522 13.168 12.0147C13.0676 12.2773 12.913 12.5158 12.7142 12.7146C12.5154 12.9133 12.2769 13.068 12.0143 13.1684C11.7518 13.2688 11.471 13.3127 11.1903 13.2973L10.4903 13.2587C10.3905 13.2532 10.2907 13.2703 10.1984 13.3086C10.1061 13.3469 10.0236 13.4055 9.95694 13.48L9.49028 14.002C9.30269 14.2116 9.07299 14.3793 8.81618 14.4941C8.55937 14.6089 8.28124 14.6682 7.99994 14.6682C7.71864 14.6682 7.44051 14.6089 7.18371 14.4941C6.9269 14.3793 6.6972 14.2116 6.50961 14.002L6.04294 13.48C5.97625 13.4054 5.89362 13.3468 5.80118 13.3084C5.70874 13.2701 5.60886 13.2531 5.50894 13.2587L4.80894 13.2973C4.52824 13.3127 4.24745 13.2688 3.98487 13.1684C3.72229 13.068 3.48384 12.9133 3.28505 12.7146C3.08627 12.5158 2.93162 12.2773 2.83121 12.0147C2.73079 11.7522 2.68686 11.4714 2.70227 11.1907L2.74094 10.4907C2.74639 10.3909 2.72933 10.2911 2.69101 10.1988C2.6527 10.1065 2.59412 10.024 2.51961 9.95733L1.99827 9.49066C1.78866 9.30307 1.62098 9.07337 1.50617 8.81657C1.39137 8.55976 1.33203 8.28163 1.33203 8.00033C1.33203 7.71903 1.39137 7.4409 1.50617 7.18409C1.62098 6.92729 1.78866 6.69759 1.99827 6.51L2.51961 6.04333C2.59421 5.97664 2.65285 5.89401 2.69116 5.80157C2.72948 5.70913 2.74649 5.60925 2.74094 5.50933L2.70227 4.80933C2.68686 4.52863 2.73079 4.24784 2.83121 3.98526C2.93162 3.72268 3.08627 3.48423 3.28505 3.28544C3.48384 3.08666 3.72229 2.93201 3.98487 2.8316C4.24745 2.73118 4.52824 2.68725 4.80894 2.70267L5.50894 2.74133C5.60875 2.74678 5.7085 2.72972 5.80082 2.6914C5.89313 2.65309 5.97566 2.59451 6.04228 2.52L6.50894 1.99867H6.50961ZM10.4709 5.52867C10.5959 5.65368 10.6661 5.82322 10.6661 6C10.6661 6.17677 10.5959 6.34631 10.4709 6.47133L6.47094 10.4713C6.34521 10.5928 6.17681 10.66 6.00201 10.6584C5.82721 10.6569 5.66 10.5868 5.5364 10.4632C5.41279 10.3396 5.34268 10.1724 5.34116 9.9976C5.33964 9.8228 5.40684 9.6544 5.52828 9.52866L9.52828 5.52867C9.65329 5.40368 9.82283 5.33347 9.99961 5.33347C10.1764 5.33347 10.3459 5.40368 10.4709 5.52867ZM6.33294 5.33333C6.06773 5.33333 5.81337 5.43869 5.62584 5.62622C5.4383 5.81376 5.33294 6.06812 5.33294 6.33333V6.34C5.33294 6.60522 5.4383 6.85957 5.62584 7.04711C5.81337 7.23464 6.06773 7.34 6.33294 7.34H6.33961C6.60483 7.34 6.85918 7.23464 7.04672 7.04711C7.23425 6.85957 7.33961 6.60522 7.33961 6.34V6.33333C7.33961 6.06812 7.23425 5.81376 7.04672 5.62622C6.85918 5.43869 6.60483 5.33333 6.33961 5.33333H6.33294ZM9.66628 8.66667C9.40106 8.66667 9.14671 8.77202 8.95917 8.95956C8.77163 9.14709 8.66628 9.40145 8.66628 9.66667V9.67333C8.66628 9.93855 8.77163 10.1929 8.95917 10.3804C9.14671 10.568 9.40106 10.6733 9.66628 10.6733H9.67294C9.93816 10.6733 10.1925 10.568 10.38 10.3804C10.5676 10.1929 10.6729 9.93855 10.6729 9.67333V9.66667C10.6729 9.40145 10.5676 9.14709 10.38 8.95956C10.1925 8.77202 9.93816 8.66667 9.67294 8.66667H9.66628Z" fill="#808080"/>
</svg>
