<svg width="61" height="27" viewBox="0 0 61 27" fill="none" xmlns="http://www.w3.org/2000/svg">
<path d="M16 19.8924C14.89 19.8924 14 20.876 14 22.1027C14 22.6889 14.2107 23.2511 14.5858 23.6656C14.9609 24.0801 15.4696 24.313 16 24.313C16.5304 24.313 17.0391 24.0801 17.4142 23.6656C17.7893 23.2511 18 22.6889 18 22.1027C18 21.5165 17.7893 20.9543 17.4142 20.5398C17.0391 20.1253 16.5304 19.8924 16 19.8924ZM0 2.21027V4.42054H2L5.6 12.8085L4.24 15.5161C4.09 15.8255 4 16.1902 4 16.577C4 17.1632 4.21071 17.7254 4.58579 18.1399C4.96086 18.5544 5.46957 18.7873 6 18.7873H18V16.577H6.42C6.3537 16.577 6.29011 16.5479 6.24322 16.4961C6.19634 16.4443 6.17 16.374 6.17 16.3007C6.17 16.2455 6.18 16.2013 6.2 16.1681L7.1 14.3667H14.55C15.3 14.3667 15.96 13.9026 16.3 13.2285L19.88 6.07824C19.95 5.90142 20 5.71354 20 5.52567C20 5.23257 19.8946 4.95147 19.7071 4.74422C19.5196 4.53697 19.2652 4.42054 19 4.42054H4.21L3.27 2.21027M6 19.8924C4.89 19.8924 4 20.876 4 22.1027C4 22.6889 4.21071 23.2511 4.58579 23.6656C4.96086 24.0801 5.46957 24.313 6 24.313C6.53043 24.313 7.03914 24.0801 7.41421 23.6656C7.78929 23.2511 8 22.6889 8 22.1027C8 21.5165 7.78929 20.9543 7.41421 20.5398C7.03914 20.1253 6.53043 19.8924 6 19.8924Z" fill="#F15E38"/>
<path d="M52.0008 20.9976C52.001 21.5552 51.8104 22.0923 51.4673 22.5011C51.1242 22.91 50.654 23.1605 50.1508 23.2023L50.0008 23.2078H48.0008C47.4962 23.208 47.0103 22.9974 46.6403 22.6182C46.2703 22.2391 46.0437 21.7194 46.0058 21.1633L46.0008 20.9976H52.0008ZM49.0008 2.21027C50.8158 2.21023 52.5598 2.98927 53.8651 4.38304C55.1703 5.77682 55.9346 7.67636 55.9968 9.68098L56.0008 9.94621V14.1059L57.8228 18.133C57.9023 18.3088 57.9421 18.5032 57.9388 18.6996C57.9355 18.896 57.8891 19.0886 57.8037 19.2609C57.7183 19.4332 57.5963 19.5801 57.4483 19.6889C57.3003 19.7977 57.1306 19.8653 56.9538 19.8858L56.8388 19.8924H41.1628C40.985 19.8925 40.8098 19.8449 40.6522 19.7537C40.4947 19.6626 40.3595 19.5305 40.2582 19.369C40.157 19.2074 40.0927 19.0211 40.0708 18.8261C40.049 18.631 40.0703 18.4331 40.1328 18.2491L40.1788 18.133L42.0008 14.1059V9.94621C42.0008 7.89451 42.7383 5.92684 44.0511 4.47607C45.3638 3.0253 47.1443 2.21027 49.0008 2.21027Z" fill="#F15E38"/>
</svg>
