<svg width="7" height="7" viewBox="0 0 7 7" fill="none" xmlns="http://www.w3.org/2000/svg">
<path d="M5.86495 0.191219C6.24767 -0.156303 6.56504 0.0188566 6.85161 0.327009C7.18552 0.686057 6.88209 0.933873 6.6619 1.15644C5.10252 2.7327 3.53457 4.30048 1.96457 5.86618C1.80359 6.02672 1.61116 6.15573 1.38268 6.34452C1.24691 6.49276 1.16178 6.59586 1.07665 6.69895C1.07665 6.69895 1.0754 6.69104 1.03703 6.6889C0.705418 6.72936 0.412176 6.77195 0.11894 6.81455C0.11894 6.81455 0.126495 6.80972 0.133883 6.77187C0.0941859 6.72107 0.047093 6.70811 0 6.69516C0 6.69516 0.00799581 6.69078 0.0270889 6.64579C0.0326123 6.39096 0.0190425 6.18111 0.00547273 5.97125C0.00547273 5.97125 0.00796688 5.97887 0.0418516 5.98054C0.0917351 5.93905 0.107741 5.8959 0.123747 5.85275C0.123747 5.85275 0.126242 5.86039 0.159504 5.86058C0.209294 5.8186 0.225828 5.77643 0.242355 5.73426C0.242355 5.73426 0.244675 5.74194 0.278025 5.74235C0.327865 5.70045 0.344341 5.65815 0.360824 5.61585C0.360824 5.61585 0.363138 5.62351 0.396408 5.62378C0.446241 5.58184 0.462804 5.53963 0.479359 5.49742C0.479359 5.49742 0.481593 5.50508 0.515087 5.50553C0.564913 5.46364 0.581245 5.4213 0.597576 5.37896C0.597576 5.37896 0.600041 5.38661 0.633369 5.38735C0.683267 5.34558 0.699844 5.30307 0.716422 5.26055C0.716422 5.26055 0.718518 5.26819 0.751695 5.26811C0.801426 5.22601 0.817982 5.184 0.834545 5.142C0.834545 5.142 0.836901 5.1497 0.87036 5.15039C0.920221 5.10861 0.936625 5.06613 0.953036 5.02365C0.953036 5.02365 0.955393 5.03129 0.988786 5.0317C1.03858 4.98978 1.05499 4.94743 1.07139 4.90509C1.07139 4.90509 1.07378 4.91278 1.10704 4.91312C1.15687 4.8712 1.17345 4.82895 1.19003 4.78669C1.19003 4.78669 1.19227 4.79437 1.22542 4.79445C1.2752 4.75243 1.29183 4.71033 1.30846 4.66822C1.30846 4.66822 1.31071 4.67591 1.3439 4.67604C1.39368 4.63403 1.41027 4.59189 1.42685 4.54975C1.42685 4.54975 1.42914 4.55744 1.46233 4.55759C1.51211 4.51559 1.52869 4.47344 1.54527 4.43129C1.54527 4.43129 1.54758 4.43899 1.58094 4.43936C1.63074 4.39745 1.64716 4.35516 1.66359 4.31288C1.66359 4.31288 1.66605 4.32056 1.69962 4.32135C1.74948 4.27957 1.76578 4.23701 1.78206 4.19445C1.78206 4.19445 1.7845 4.20209 1.81762 4.20224C1.86748 4.16028 1.88423 4.11818 1.90098 4.07609C1.90098 4.07609 1.903 4.08374 1.93614 4.0836C1.98589 4.0415 2.00249 3.99954 2.0191 3.95758C2.0191 3.95758 2.02142 3.96524 2.05517 3.96638C2.10503 3.92469 2.12115 3.88188 2.13728 3.83907C2.13728 3.83907 2.13982 3.84672 2.17317 3.84715C2.22293 3.80524 2.23937 3.76291 2.25581 3.72058C2.25581 3.72058 2.25825 3.7283 2.29195 3.72939C2.34182 3.68773 2.358 3.64497 2.37417 3.6022C2.37417 3.6022 2.37673 3.60986 2.41011 3.61037C2.45993 3.56851 2.47638 3.52612 2.49282 3.48374C2.49282 3.48374 2.49519 3.49142 2.52855 3.49186C2.57836 3.44997 2.59482 3.40763 2.61128 3.36529C2.61128 3.36529 2.61364 3.37297 2.64692 3.3733C2.69672 3.33136 2.71325 3.2891 2.72977 3.24683C2.72977 3.24683 2.73208 3.25452 2.76541 3.25488C2.8152 3.21295 2.83167 3.17066 2.84813 3.12838C2.84813 3.12838 2.85052 3.13606 2.8839 3.13653C2.9337 3.09463 2.95011 3.05227 2.96654 3.00992C2.96654 3.00992 2.96896 3.01761 3.00242 3.01821C3.05223 2.97639 3.06858 2.93397 3.08493 2.89154C3.08493 2.89154 3.08744 2.89921 3.12129 2.90037C3.17116 2.85871 3.18718 2.8159 3.2032 2.77308C3.2032 2.77308 3.20589 2.78072 3.23942 2.78149C3.28925 2.73971 3.30555 2.69717 3.32186 2.65462C3.32186 2.65462 3.32433 2.6623 3.35805 2.66332C3.40791 2.62163 3.42406 2.57892 3.44019 2.53621C3.44019 2.53621 3.44279 2.54386 3.4765 2.54498C3.52636 2.50331 3.54251 2.46052 3.55865 2.41772C3.55865 2.41772 3.56122 2.42538 3.59491 2.42639C3.64472 2.38468 3.66087 2.34197 3.67702 2.29926C3.67702 2.29926 3.67966 2.30695 3.71354 2.3083C3.76338 2.26672 3.77934 2.22377 3.79531 2.18082C3.79531 2.18082 3.79812 2.1885 3.83196 2.18984C3.8818 2.14824 3.89779 2.10529 3.91377 2.06235C3.91377 2.06235 3.91656 2.07004 3.95038 2.07133C4.00021 2.02971 4.01622 1.98681 4.03222 1.9439C4.03222 1.9439 4.03501 1.95159 4.06883 1.95287C4.11869 1.91126 4.13473 1.86836 4.15077 1.82546C4.15077 1.82546 4.15346 1.83312 4.18699 1.8339C4.23681 1.79213 4.25309 1.74959 4.26937 1.70704C4.26937 1.70704 4.27191 1.71471 4.30572 1.71593C4.35559 1.67429 4.37163 1.63142 4.38767 1.58856C4.38767 1.58856 4.39034 1.59622 4.42394 1.5971C4.47376 1.55534 4.48998 1.51271 4.50619 1.47007C4.50619 1.47007 4.50877 1.47777 4.54259 1.47893C4.59245 1.4373 4.6085 1.39452 4.62455 1.35173C4.62455 1.35173 4.62729 1.35939 4.66131 1.36105C4.71122 1.31958 4.72709 1.27646 4.74296 1.23333C4.74296 1.23333 4.74575 1.24096 4.77982 1.24261C4.82971 1.20112 4.84552 1.15798 4.86133 1.11484C4.86133 1.11484 4.86418 1.12249 4.8982 1.12414C4.94809 1.08266 4.96396 1.03954 4.97982 0.996419C4.97982 0.996419 4.98265 1.00405 5.01683 1.00595C5.06672 0.964551 5.08243 0.921245 5.09814 0.877941C5.09814 0.877941 5.10108 0.885584 5.13502 0.887237C5.18488 0.845715 5.20079 0.802541 5.21671 0.759367C5.21671 0.759367 5.21945 0.767064 5.25312 0.768109C5.30293 0.72642 5.31907 0.683683 5.3352 0.640948C5.3352 0.640948 5.33791 0.648656 5.37171 0.650117C5.42164 0.608574 5.43776 0.56557 5.45388 0.522566C5.45388 0.522566 5.45639 0.530206 5.48951 0.530244C5.53932 0.488219 5.55599 0.446155 5.57267 0.40409C5.57267 0.40409 5.57484 0.411777 5.60828 0.412111C5.65807 0.370224 5.6744 0.328004 5.69073 0.285782C5.69073 0.285782 5.69357 0.293447 5.7283 0.299503C5.797 0.267445 5.83097 0.229331 5.86495 0.191219Z" fill="black"/>
</svg>
