<svg width="20" height="20" viewBox="0 0 20 20" fill="none" xmlns="http://www.w3.org/2000/svg">
<path d="M10.0013 1.7C5.41797 1.7 1.66797 5.44166 1.66797 10.05C1.66797 14.2167 4.71797 17.675 8.7013 18.3V12.4667H6.58464V10.05H8.7013V8.20833C8.7013 6.11666 9.94297 4.96666 11.8513 4.96666C12.7596 4.96666 13.7096 5.125 13.7096 5.125V7.18333H12.6596C11.6263 7.18333 11.3013 7.825 11.3013 8.48333V10.05H13.618L13.243 12.4667H11.3013V18.3C13.265 17.9899 15.0531 16.9879 16.3429 15.475C17.6327 13.9622 18.3391 12.038 18.3346 10.05C18.3346 5.44166 14.5846 1.7 10.0013 1.7Z" fill="#F15E38"/>
</svg>
