<svg width="24" height="24" viewBox="0 0 24 24" fill="none" xmlns="http://www.w3.org/2000/svg">
<path d="M3.59961 7.20001C3.59961 6.24523 3.97889 5.32955 4.65403 4.65442C5.32916 3.97929 6.24483 3.60001 7.19961 3.60001H16.7996C17.7544 3.60001 18.6701 3.97929 19.3452 4.65442C20.0203 5.32955 20.3996 6.24523 20.3996 7.20001V16.8C20.3996 17.7548 20.0203 18.6705 19.3452 19.3456C18.6701 20.0207 17.7544 20.4 16.7996 20.4H7.19961C6.24483 20.4 5.32916 20.0207 4.65403 19.3456C3.97889 18.6705 3.59961 17.7548 3.59961 16.8V7.20001ZM7.19961 4.80001C6.56309 4.80001 5.95264 5.05286 5.50255 5.50295C5.05247 5.95304 4.79961 6.56349 4.79961 7.20001V16.8C4.79961 17.4365 5.05247 18.047 5.50255 18.4971C5.95264 18.9472 6.56309 19.2 7.19961 19.2H16.7996C17.4361 19.2 18.0466 18.9472 18.4967 18.4971C18.9468 18.047 19.1996 17.4365 19.1996 16.8V7.20001C19.1996 6.56349 18.9468 5.95304 18.4967 5.50295C18.0466 5.05286 17.4361 4.80001 16.7996 4.80001H7.19961Z" fill="white"/>
</svg>
