<svg width="40" height="40" viewBox="0 0 40 40" fill="none" xmlns="http://www.w3.org/2000/svg">
<path d="M24.4415 3.88342C24.7379 3.73523 25.081 3.7108 25.3954 3.81549C25.7098 3.92019 25.9698 4.14545 26.1182 4.44175L29.7865 11.7784C32.0415 11.9517 33.4565 12.3951 34.3698 13.5234C35.0965 14.4217 35.3298 15.5384 35.2448 17.0834H4.75484C4.66984 15.5384 4.90484 14.4217 5.62984 13.5234C6.54317 12.3934 7.95817 11.9517 10.2132 11.7784L13.8815 4.44175C14.0311 4.1478 14.2909 3.9249 14.6041 3.82163C14.9174 3.71835 15.2587 3.74308 15.5538 3.89041C15.8489 4.03774 16.0739 4.29574 16.1796 4.60818C16.2853 4.92062 16.2632 5.26218 16.1182 5.55842L13.0598 11.6751C13.8648 11.6667 14.7432 11.6667 15.7032 11.6667H24.2965C25.2565 11.6667 26.1348 11.6667 26.9398 11.6751L23.8815 5.55842C23.7334 5.26181 23.7092 4.91854 23.8143 4.60411C23.9193 4.28967 24.1449 4.0315 24.4415 3.88342Z" fill="#334756" fill-opacity="0.65"/>
<path fill-rule="evenodd" clip-rule="evenodd" d="M5.9252 23.7618C5.61775 22.3741 5.33438 20.9811 5.0752 19.5835H34.9252C34.6658 20.981 34.3824 22.374 34.0752 23.7618L33.3602 27.0952C32.5485 30.8835 32.1435 32.7768 30.7685 33.8885C29.3935 35.0002 27.4569 35.0002 23.5835 35.0002H16.4169C12.5435 35.0002 10.6069 35.0002 9.23353 33.8885C7.85686 32.7768 7.4502 30.8835 6.6402 27.0952L5.9252 23.7618ZM16.6669 22.0835C16.3353 22.0835 16.0174 22.2152 15.783 22.4496C15.5486 22.684 15.4169 23.002 15.4169 23.3335C15.4169 23.665 15.5486 23.983 15.783 24.2174C16.0174 24.4518 16.3353 24.5835 16.6669 24.5835H23.3335C23.6651 24.5835 23.983 24.4518 24.2174 24.2174C24.4518 23.983 24.5835 23.665 24.5835 23.3335C24.5835 23.002 24.4518 22.684 24.2174 22.4496C23.983 22.2152 23.6651 22.0835 23.3335 22.0835H16.6669Z" fill="#334756" fill-opacity="0.65"/>
</svg>
