<svg width="24" height="24" viewBox="0 0 24 24" fill="none" xmlns="http://www.w3.org/2000/svg">
<g clip-path="url(#clip0_171_927)">
<path d="M19.06 26H20.72C21.56 26 22.25 25.35 22.35 24.53L24 8.05H19V4H17.03V8.05H12.06L12.36 10.39C14.07 10.86 15.67 11.71 16.63 12.65C18.07 14.07 19.06 15.54 19.06 17.94V26ZM2 25V24H17.03V25C17.03 25.54 16.58 26 16 26H3C2.45 26 2 25.54 2 25ZM17.03 18C17.03 10 2 10 2 18H17.03ZM2 20H17V22H2V20Z" fill="white"/>
</g>
<defs>
<clipPath id="clip0_171_927">
<rect width="24" height="24" fill="white"/>
</clipPath>
</defs>
</svg>
