<svg width="45" height="45" viewBox="0 0 45 45" fill="none" xmlns="http://www.w3.org/2000/svg">
<path d="M41.25 22.5C41.25 12.1687 32.8313 3.75 22.5 3.75C12.1687 3.75 3.75 12.1687 3.75 22.5C3.75 27.9375 6.09375 32.8313 9.80625 36.2625C9.80625 36.2812 9.80625 36.2812 9.7875 36.3C9.975 36.4875 10.2 36.6375 10.3875 36.8062C10.5 36.9 10.5938 36.9938 10.7063 37.0688C11.0438 37.35 11.4188 37.6125 11.775 37.875C11.9062 37.9688 12.0188 38.0438 12.15 38.1375C12.5063 38.3812 12.8812 38.6063 13.275 38.8125C13.4062 38.8875 13.5563 38.9813 13.6875 39.0563C14.0625 39.2625 14.4562 39.45 14.8687 39.6187C15.0187 39.6937 15.1687 39.7687 15.3188 39.825C15.7312 39.9937 16.1438 40.1437 16.5562 40.275C16.7063 40.3312 16.8562 40.3875 17.0062 40.425C17.4562 40.5562 17.9062 40.6688 18.3562 40.7812C18.4875 40.8187 18.6188 40.8562 18.7688 40.875C19.2938 40.9875 19.8187 41.0625 20.3625 41.1188C20.4375 41.1188 20.5125 41.1375 20.5875 41.1562C21.225 41.2125 21.8625 41.25 22.5 41.25C23.1375 41.25 23.775 41.2125 24.3938 41.1562C24.4688 41.1562 24.5438 41.1375 24.6187 41.1188C25.1625 41.0625 25.6875 40.9875 26.2125 40.875C26.3438 40.8562 26.475 40.8 26.625 40.7812C27.075 40.6688 27.5438 40.575 27.975 40.425C28.125 40.3687 28.275 40.3125 28.425 40.275C28.8375 40.125 29.2687 39.9937 29.6625 39.825C29.8125 39.7687 29.9625 39.6937 30.1125 39.6187C30.5062 39.45 30.9 39.2625 31.2938 39.0563C31.4438 38.9813 31.575 38.8875 31.7062 38.8125C32.0812 38.5875 32.4563 38.3812 32.8313 38.1375C32.9625 38.0625 33.075 37.9688 33.2062 37.875C33.5812 37.6125 33.9375 37.35 34.275 37.0688C34.3875 36.975 34.4813 36.8812 34.5938 36.8062C34.8 36.6375 35.0063 36.4688 35.1938 36.3C35.1938 36.2812 35.1938 36.2812 35.175 36.2625C38.9062 32.8313 41.25 27.9375 41.25 22.5ZM31.7625 31.8187C26.6813 28.4062 18.3562 28.4062 13.2375 31.8187C12.4125 32.3625 11.7375 33 11.175 33.6937C8.325 30.8062 6.5625 26.85 6.5625 22.5C6.5625 13.7063 13.7063 6.5625 22.5 6.5625C31.2938 6.5625 38.4375 13.7063 38.4375 22.5C38.4375 26.85 36.675 30.8062 33.825 33.6937C33.2813 33 32.5875 32.3625 31.7625 31.8187Z" fill="#252525"/>
<path d="M22.5 12.9922C18.6188 12.9922 15.4688 16.1422 15.4688 20.0234C15.4688 23.8297 18.45 26.9234 22.4062 27.0359C22.4625 27.0359 22.5375 27.0359 22.575 27.0359C22.6125 27.0359 22.6687 27.0359 22.7062 27.0359C22.725 27.0359 22.7438 27.0359 22.7438 27.0359C26.5312 26.9047 29.5125 23.8297 29.5312 20.0234C29.5312 16.1422 26.3812 12.9922 22.5 12.9922Z" fill="#252525"/>
</svg>
