<svg width="30" height="27" viewBox="0 0 30 27" fill="none" xmlns="http://www.w3.org/2000/svg">
<path d="M19.7352 7.48482C19.7352 9.6496 16.8509 13.5074 15.5843 15.0972C15.2805 15.4779 14.7163 15.4779 14.4164 15.0972C13.1498 13.5074 10.2655 9.6496 10.2655 7.48482C10.2655 4.85615 12.3844 2.72705 15.0004 2.72705C17.6164 2.72705 19.7352 4.85615 19.7352 7.48482ZM20.0509 10.6725C20.189 10.399 20.3152 10.1254 20.4296 9.85577C20.4494 9.80819 20.4691 9.75665 20.4888 9.70907L25.0659 7.8694C25.6893 7.61962 26.364 8.07954 26.364 8.75356V19.4902C26.364 19.8788 26.1272 20.2277 25.7682 20.3744L20.0509 22.67V10.6725ZM9.06601 8.21038C9.16071 8.76942 9.3501 9.33242 9.57106 9.85577C9.68549 10.1254 9.81175 10.399 9.94985 10.6725V20.64L4.93486 22.6581C4.31143 22.9079 3.63672 22.448 3.63672 21.774V11.0373C3.63672 10.6487 3.87346 10.2998 4.23252 10.1531L9.06996 8.21038H9.06601ZM16.5707 15.8902C17.1192 15.2003 17.9794 14.0783 18.7882 12.8373V22.7216L11.2125 20.5449V12.8373C12.0213 14.0783 12.8815 15.2003 13.43 15.8902C14.2388 16.9052 15.7619 16.9052 16.5707 15.8902ZM15.0004 8.75356C15.4189 8.75356 15.8204 8.58647 16.1164 8.28905C16.4124 7.99163 16.5786 7.58825 16.5786 7.16763C16.5786 6.74702 16.4124 6.34364 16.1164 6.04622C15.8204 5.7488 15.4189 5.58171 15.0004 5.58171C14.5818 5.58171 14.1803 5.7488 13.8843 6.04622C13.5884 6.34364 13.4221 6.74702 13.4221 7.16763C13.4221 7.58825 13.5884 7.99163 13.8843 8.28905C14.1803 8.58647 14.5818 8.75356 15.0004 8.75356Z" fill="#F15E38"/>
</svg>
