<svg width="7" height="9" viewBox="0 0 7 9" fill="none" xmlns="http://www.w3.org/2000/svg">
<path d="M0.499962 7.99939C0.499962 8.54934 0.949927 8.99931 1.49989 8.99931H5.49958C6.04954 8.99931 6.4995 8.54934 6.4995 7.99939V1.99985H0.499962V7.99939ZM2.08484 4.79463C1.99136 4.70115 1.93884 4.57436 1.93884 4.44216C1.93884 4.30996 1.99136 4.18317 2.08484 4.08969C2.17832 3.99621 2.30511 3.94369 2.43731 3.94369C2.56952 3.94369 2.6963 3.99621 2.78979 4.08969L3.49973 4.79463L4.20468 4.08969C4.29816 3.99621 4.42495 3.94369 4.55715 3.94369C4.68935 3.94369 4.81614 3.99621 4.90962 4.08969C5.00311 4.18317 5.05562 4.30996 5.05562 4.44216C5.05562 4.57436 5.00311 4.70115 4.90962 4.79463L4.20468 5.49958L4.90962 6.20452C4.95591 6.25081 4.99263 6.30576 5.01768 6.36624C5.04273 6.42672 5.05562 6.49154 5.05562 6.557C5.05562 6.62246 5.04273 6.68728 5.01768 6.74775C4.99263 6.80823 4.95591 6.86318 4.90962 6.90947C4.86334 6.95576 4.80839 6.99248 4.74791 7.01753C4.68743 7.04258 4.62261 7.05547 4.55715 7.05547C4.49169 7.05547 4.42687 7.04258 4.36639 7.01753C4.30592 6.99248 4.25097 6.95576 4.20468 6.90947L3.49973 6.20452L2.79479 6.90947C2.7485 6.95576 2.69355 6.99248 2.63307 7.01753C2.57259 7.04258 2.50777 7.05547 2.44231 7.05547C2.37685 7.05547 2.31203 7.04258 2.25156 7.01753C2.19108 6.99248 2.13613 6.95576 2.08984 6.90947C2.04355 6.86318 2.00684 6.80823 1.98178 6.74775C1.95673 6.68728 1.94384 6.62246 1.94384 6.557C1.94384 6.49154 1.95673 6.42672 1.98178 6.36624C2.00684 6.30576 2.04355 6.25081 2.08984 6.20452L2.79479 5.49958L2.08484 4.79463ZM6.4995 0.499962H5.2496L4.89463 0.144989C4.80463 0.0549958 4.67464 0 4.54465 0H2.45481C2.32482 0 2.19483 0.0549958 2.10484 0.144989L1.74987 0.499962H0.499962C0.224983 0.499962 0 0.724944 0 0.999923C0 1.2749 0.224983 1.49989 0.499962 1.49989H6.4995C6.77448 1.49989 6.99946 1.2749 6.99946 0.999923C6.99946 0.724944 6.77448 0.499962 6.4995 0.499962Z" fill="#F15E38"/>
</svg>
