<svg width="58" height="43" viewBox="0 0 58 43" fill="none" xmlns="http://www.w3.org/2000/svg">
<path d="M7.40463 17.4918C7.40463 17.4918 7.39723 17.5877 7.29974 17.6563C7.17676 18.5782 7.15127 19.4316 7.13678 20.3867C7.14608 22.2645 7.13931 24.0407 7.14361 25.8168C7.15709 31.3964 7.17474 36.976 7.19077 42.5556C7.19077 42.5556 7.18992 42.5403 7.09783 42.5113C5.18246 42.4707 3.35919 42.4591 1.50615 42.376C1.00751 42.2298 0.538651 42.1551 0.051682 42.0118C0.015998 41.8505 -0.00157523 41.7579 0.000110798 41.5645C0.0222927 28.6957 0.0253899 15.9277 0.0263696 3.1597C0.0263835 2.97931 -0.000167961 2.79891 0.0114292 2.57017C0.0504275 2.4878 0.0636757 2.45377 0.149583 2.38822C0.394486 1.48189 0.89495 1.22692 1.79229 1.28533C2.85579 1.35455 3.93381 1.20084 5.0787 1.13334C5.24966 1.13188 5.34745 1.14083 5.5026 1.19778C5.90603 1.2771 6.25209 1.30844 6.62954 1.43453C6.64861 2.75697 6.63629 3.98465 6.57077 5.2346C6.59754 5.39389 6.67751 5.5309 6.80835 5.66317C6.85922 5.65842 6.95776 5.63135 6.98888 5.67336C7.06273 5.60803 7.10547 5.50071 7.15752 5.33691C7.17958 5.20531 7.19234 5.13018 7.27009 5.02032C9.36288 2.63391 11.8149 1.00569 14.9299 0.473297C15.2748 0.414351 15.5867 0.162426 15.914 2.41472e-07C16.0109 2.3329e-08 16.1079 -7.546e-09 16.2306 0.0882929C16.5495 0.263608 16.8381 0.402725 17.1365 0.428371C18.2539 0.524408 19.3783 0.547567 20.4933 0.663015C23.6131 0.98604 26.1449 2.40069 28.0821 4.86584C28.6648 5.60727 29.2154 6.37387 29.7677 7.11157C30.1702 6.53841 30.5344 5.92489 30.9895 5.38856C32.6862 3.3892 34.6792 1.83366 37.2534 1.06393C39.0827 0.516948 40.9208 0.331453 42.813 0.414153C43.0748 0.425597 43.3494 0.145259 43.6181 2.0811e-07C43.7817 -1.0033e-08 43.9453 0 44.1907 0C44.7339 0.216501 45.1772 0.56013 45.6597 0.629044C49.0007 1.10626 51.8136 2.54006 54.0711 5.2354C54.3712 5.62922 54.6448 5.87481 54.9183 6.12041C54.9183 6.12041 54.9494 6.21735 54.9641 6.33488C55.1047 6.55974 55.2305 6.66706 55.3563 6.77439C55.3563 6.77439 55.3882 6.86084 55.3972 6.9892C56.2434 9.13003 57.3575 11.0491 57.4723 13.3082C57.4774 13.4094 57.8126 13.4938 57.9941 13.5861C57.9941 13.5861 58.0184 13.6113 57.9703 13.7155C57.916 14.0144 57.9098 14.2091 57.8668 14.4832C57.8217 23.2957 57.8178 32.0288 57.7944 40.7619C57.7929 41.3287 57.6409 41.8951 57.4907 42.4755C57.3305 42.4804 57.2386 42.4717 57.111 42.4242C56.9513 42.4092 56.8273 42.4329 56.6022 42.4694C54.7609 42.4666 53.0207 42.4508 51.2647 42.3744C51.0631 42.1608 50.8773 42.0077 50.6758 41.7557C50.6598 33.806 50.6595 25.9553 50.7062 18.0424C50.7048 17.5861 50.6564 17.1918 50.5953 16.7248C50.507 16.4826 50.4313 16.313 50.3557 16.1435C50.2912 15.4878 50.2268 14.8321 50.1653 13.9914C49.6782 12.3613 49.1883 10.9162 48.7225 9.54232C48.2848 9.48558 47.9065 9.43654 47.5283 9.3875C47.5283 9.3875 47.5428 9.38227 47.5352 9.31629C47.3823 9.15048 47.237 9.05065 47.0917 8.95082C47.0917 8.95082 47.1062 8.946 47.0982 8.87531C46.9614 8.63937 46.8644 8.42709 46.6992 8.31597C44.5156 6.84682 42.0914 6.7313 39.6038 7.14821C39.1679 7.22127 38.7813 7.58867 38.3719 7.82014C38.3719 7.82014 38.29 7.85205 38.1963 7.80028C37.8333 7.78258 37.5469 7.76884 37.2973 7.85819C35.0164 8.67486 34.0556 10.5897 33.3859 12.6991C33.2399 13.1591 33.3695 13.7066 33.3721 14.2139C33.295 14.7915 33.2179 15.3692 33.0549 16.084C32.8838 17.7225 32.7986 19.2238 32.6967 20.8261C32.6713 28.0482 32.6626 35.1693 32.5737 42.3253C32.1756 42.4011 31.8579 42.4736 31.5394 42.4775C29.5442 42.5023 27.5489 42.5118 25.5186 42.4298C25.469 41.8997 25.4433 41.4662 25.4412 41.0325C25.4039 33.4623 25.3695 25.892 25.3769 18.2583C25.3268 17.5247 25.2638 16.8485 25.1323 16.1859C25.0291 15.6659 24.8413 15.1626 24.6911 14.6519C24.0942 13.1987 23.5638 11.7128 22.8697 10.3077C22.567 9.69504 21.9287 9.24822 21.3461 8.66692C21.1984 8.58485 21.1615 8.54781 21.1387 8.49662C21.1387 8.49662 21.1583 8.50479 21.1368 8.44065C20.9762 8.34986 20.837 8.32321 20.6979 8.29655C20.6979 8.29655 20.7119 8.29168 20.7161 8.22016C19.351 7.79504 17.9916 7.39152 16.6066 7.11642C16.1555 7.0268 15.6378 7.27229 15.1505 7.36451C10.9797 8.09935 9.29195 9.9687 8.06899 14.2325C7.88483 14.8746 7.76783 15.5359 7.52849 16.2939C7.42635 16.7636 7.41549 17.1277 7.40463 17.4918Z" fill="#BDBDD5" fill-opacity="0.65"/>
</svg>
