<svg width="21" height="19" viewBox="0 0 21 19" fill="none" xmlns="http://www.w3.org/2000/svg">
<path d="M11.2424 17.2309L11.2391 17.2339C10.8263 17.6087 10.1883 17.6083 9.77567 17.2283L9.77569 17.2282L9.77083 17.2238L9.65538 17.1189L9.65361 17.1173C6.87738 14.6054 4.66844 12.6014 3.15737 10.7284C1.66098 8.87349 0.954211 7.27208 1.01074 5.57704C1.06308 4.1027 1.82141 2.69334 3.02681 1.87264L3.02736 1.87226C5.31062 0.315496 8.16841 1.01703 9.73342 2.8488L10.4995 3.74545L11.2656 2.8488C12.8327 1.01458 15.6893 0.307519 17.9695 1.8708L17.9722 1.87264C19.1778 2.69351 19.9362 4.10329 19.9883 5.57798L19.9883 5.57877C20.0494 7.27231 19.3438 8.87285 17.8454 10.7312C16.3336 12.6061 14.124 14.6136 11.3498 17.1342L11.3473 17.1365L11.3438 17.1397L11.2424 17.2309Z" stroke="#F15E38" stroke-width="2"/>
</svg>
