<svg width="30" height="27" viewBox="0 0 30 27" fill="none" xmlns="http://www.w3.org/2000/svg">
<g clip-path="url(#clip0_592_7416)">
<g filter="url(#filter0_d_592_7416)">
<path d="M19.7352 7.48506C19.7352 9.64985 16.8509 13.5076 15.5843 15.0975C15.2805 15.4781 14.7163 15.4781 14.4164 15.0975C13.1498 13.5076 10.2655 9.64985 10.2655 7.48506C10.2655 4.8564 12.3844 2.72729 15.0004 2.72729C17.6164 2.72729 19.7352 4.8564 19.7352 7.48506ZM20.0509 10.6728C20.189 10.3992 20.3152 10.1256 20.4296 9.85602C20.4494 9.80844 20.4691 9.7569 20.4888 9.70932L25.0659 7.86965C25.6893 7.61987 26.364 8.07978 26.364 8.7538V19.4905C26.364 19.879 26.1272 20.2279 25.7682 20.3746L20.0509 22.6703V10.6728ZM9.06601 8.21062C9.16071 8.76966 9.3501 9.33266 9.57106 9.85602C9.68549 10.1256 9.81175 10.3992 9.94985 10.6728V20.6403L4.93486 22.6584C4.31143 22.9082 3.63672 22.4482 3.63672 21.7742V11.0375C3.63672 10.649 3.87346 10.3001 4.23252 10.1534L9.06996 8.21062H9.06601ZM16.5707 15.8905C17.1192 15.2006 17.9794 14.0785 18.7882 12.8376V22.7218L11.2125 20.5451V12.8376C12.0213 14.0785 12.8815 15.2006 13.43 15.8905C14.2388 16.9054 15.7619 16.9054 16.5707 15.8905ZM15.0004 8.7538C15.4189 8.7538 15.8204 8.58671 16.1164 8.28929C16.4124 7.99188 16.5786 7.58849 16.5786 7.16788C16.5786 6.74726 16.4124 6.34388 16.1164 6.04646C15.8204 5.74904 15.4189 5.58196 15.0004 5.58196C14.5818 5.58196 14.1803 5.74904 13.8843 6.04646C13.5884 6.34388 13.4221 6.74726 13.4221 7.16788C13.4221 7.58849 13.5884 7.99188 13.8843 8.28929C14.1803 8.58671 14.5818 8.7538 15.0004 8.7538Z" fill="#F15E38"/>
</g>
</g>
<defs>
<filter id="filter0_d_592_7416" x="-0.363281" y="2.72729" width="30.7266" height="28" filterUnits="userSpaceOnUse" color-interpolation-filters="sRGB">
<feFlood flood-opacity="0" result="BackgroundImageFix"/>
<feColorMatrix in="SourceAlpha" type="matrix" values="0 0 0 0 0 0 0 0 0 0 0 0 0 0 0 0 0 0 127 0" result="hardAlpha"/>
<feOffset dy="4"/>
<feGaussianBlur stdDeviation="2"/>
<feComposite in2="hardAlpha" operator="out"/>
<feColorMatrix type="matrix" values="0 0 0 0 0 0 0 0 0 0 0 0 0 0 0 0 0 0 0.25 0"/>
<feBlend mode="normal" in2="BackgroundImageFix" result="effect1_dropShadow_592_7416"/>
<feBlend mode="normal" in="SourceGraphic" in2="effect1_dropShadow_592_7416" result="shape"/>
</filter>
<clipPath id="clip0_592_7416">
<rect width="30" height="26.3636" fill="white"/>
</clipPath>
</defs>
</svg>
