<svg width="24" height="24" viewBox="0 0 24 24" fill="none" xmlns="http://www.w3.org/2000/svg">
<path d="M0 9.375H24V14.625H0V9.375Z" fill="#E6E7E8"/>
<path d="M20.25 3.75H3.75C1.26488 3.75 0 5.59688 0 7.875V9.375H24V7.875C24 5.59688 22.7351 3.75 20.25 3.75Z" fill="#EC1C24"/>
<path d="M0 16.125C0 18.4031 1.26488 20.25 3.75 20.25H20.25C22.7351 20.25 24 18.4031 24 16.125V14.625H0V16.125Z" fill="#25333A"/>
<path fill-rule="evenodd" clip-rule="evenodd" d="M13.7417 10.653C13.7785 10.989 13.7777 11.3257 13.7939 11.6632C13.8246 12.3082 13.8486 12.9563 13.8749 13.6031V13.7201C13.6772 13.5341 13.4961 13.3654 13.3169 13.1948C13.312 13.1779 13.3202 13.1662 13.3322 13.1546C13.3649 13.1179 13.3532 13.0744 13.3506 13.0346C13.3322 12.7552 13.327 12.4748 13.3124 12.1943C13.2929 11.7893 13.2809 11.385 13.2569 10.98C13.2505 10.8559 13.2906 10.7666 13.3975 10.7044C13.4646 10.6646 13.5096 10.6808 13.5119 10.7588C13.5179 10.9106 13.5231 11.0621 13.5314 11.214C13.555 11.6509 13.5685 12.0885 13.5895 12.525C13.5992 12.7279 13.6187 12.93 13.6124 13.1321C13.6101 13.1929 13.6139 13.2521 13.6232 13.2881C13.5921 13.1614 13.6172 13.0095 13.6052 12.858C13.5831 12.6004 13.5782 12.3416 13.5674 12.0829C13.5512 11.6415 13.5257 11.202 13.513 10.7606C13.51 10.6196 13.5396 10.6009 13.6776 10.6504C13.6986 10.6541 13.7207 10.6406 13.7417 10.653ZM10.8055 13.2698C10.6499 13.4145 10.4935 13.5589 10.327 13.7119C10.327 13.5731 10.3225 13.4535 10.3277 13.3316C10.3607 12.5227 10.3964 11.7131 10.4305 10.9028C10.4342 10.8191 10.4436 10.7363 10.4511 10.6526C10.4732 10.6436 10.4886 10.6766 10.5119 10.6598C10.5334 10.6434 10.5584 10.6323 10.585 10.6271C10.6465 10.6166 10.6814 10.6459 10.6814 10.7085C10.6814 10.9009 10.6686 11.091 10.6592 11.2808C10.6529 11.4293 10.642 11.5778 10.6382 11.7263C10.6289 12.0608 10.6097 12.3945 10.5974 12.7271C10.5895 12.9131 10.5857 13.0999 10.5749 13.2844C10.5891 13.1107 10.5891 12.9337 10.5962 12.759C10.6202 12.1965 10.645 11.634 10.6701 11.0715C10.6739 10.971 10.6847 10.8694 10.681 10.7678C10.6795 10.7336 10.6847 10.6995 10.7207 10.6856C10.7522 10.6718 10.7766 10.6939 10.8029 10.7085C10.9026 10.7678 10.9405 10.8529 10.9356 10.9699C10.9136 11.4463 10.8928 11.9228 10.8734 12.3994C10.8644 12.6135 10.8659 12.8291 10.8407 13.0436C10.8336 13.1183 10.8137 13.1933 10.8055 13.2698Z" fill="#BF9200"/>
<path fill-rule="evenodd" clip-rule="evenodd" d="M10.8057 13.2697C10.7801 13.2002 10.7791 13.124 10.8027 13.0537C10.8154 13.0515 10.8357 13.0856 10.8409 13.0481C10.8439 13.0144 10.8537 12.9829 10.8537 12.9506C10.8537 12.7324 10.869 12.5145 10.8795 12.2981C10.8945 11.9887 10.9017 11.6786 10.9234 11.3704C10.9313 11.2665 10.9302 11.1615 10.9324 11.058C10.9339 11.0021 10.9313 10.9331 10.9988 10.9166C11.0659 10.9005 11.1057 10.9556 11.1424 11.0051C11.1645 11.0351 11.166 11.0715 11.1638 11.1082C11.1439 11.4026 11.1398 11.6966 11.1252 11.9914C11.1124 12.2771 11.1023 12.5625 11.0888 12.8494C11.1083 12.4271 11.1274 12.0045 11.1435 11.5815C11.1477 11.4484 11.1578 11.3152 11.1615 11.1802C11.1645 11.0734 11.193 11.0527 11.3014 11.0629C11.352 11.0685 11.4008 11.0782 11.4525 11.0816C11.4762 11.0906 11.502 11.0992 11.5092 11.1277C11.4987 11.166 11.4645 11.1619 11.4372 11.1626C11.3775 11.1667 11.3573 11.2016 11.3738 11.2526C11.3929 11.307 11.3858 11.3629 11.3884 11.4172C11.3858 11.4667 11.3847 11.5162 11.3805 11.5657C11.3678 11.6743 11.3614 11.7835 11.3614 11.8927C11.3592 12.0907 11.3404 12.2899 11.3352 12.4875C11.3164 12.5604 11.3119 12.6363 11.322 12.711C11.3269 12.735 11.334 12.759 11.34 12.783C11.3457 12.8186 11.331 12.8509 11.3115 12.8786C11.302 12.8891 11.2904 12.8973 11.2774 12.9028C11.2643 12.9083 11.2503 12.9109 11.2362 12.9105C11.1998 12.9049 11.184 12.9345 11.1634 12.9525L10.8057 13.2697ZM13.3347 13.1812C13.3283 13.1865 13.3223 13.191 13.3167 13.1966C13.2394 13.1246 13.1607 13.0534 13.0845 12.9799C13.0789 12.9637 13.086 12.951 13.095 12.9382C13.1025 12.9244 13.1007 12.9097 13.1007 12.8944C13.095 12.4526 13.071 12.0135 13.0489 11.5732C13.041 11.4131 13.047 11.2515 13.0294 11.0917C13.025 11.0642 13.0313 11.036 13.047 11.013C13.083 10.962 13.1232 10.9016 13.1948 10.9189C13.2615 10.9354 13.2597 11.0047 13.2604 11.0602C13.2728 11.5485 13.3028 12.0367 13.3242 12.525C13.3317 12.6997 13.3242 12.8767 13.35 13.0511C13.3557 13.0927 13.362 13.14 13.3347 13.1812ZM13.0977 13.4497C13.1052 13.5202 13.134 13.5371 13.2079 13.5161C13.3223 13.4831 13.4828 13.5615 13.4595 13.707C13.4543 13.7467 13.4644 13.773 13.5045 13.7917C13.5634 13.8191 13.5844 13.8956 13.6564 13.9087C13.6669 13.9114 13.6725 13.9327 13.6632 13.9399C13.5957 13.9792 13.6155 14.0741 13.5518 14.1165C13.5432 14.1232 13.5308 14.1345 13.5297 14.1442C13.5252 14.274 13.4292 14.2972 13.3294 14.3186C12.8562 14.4217 12.3765 14.4315 11.8954 14.4217C11.5407 14.4157 11.1867 14.3962 10.8394 14.3111C10.7479 14.2901 10.6898 14.2556 10.6583 14.1536C10.6333 14.0827 10.5961 14.0167 10.5484 13.9586C10.5207 13.9245 10.5282 13.9211 10.5593 13.8956C10.6377 13.8319 10.7453 13.7932 10.7389 13.6534C10.734 13.5532 10.8754 13.4786 10.986 13.5154C11.058 13.539 11.0884 13.5214 11.0963 13.4497C11.1203 13.4449 11.1297 13.4617 11.1383 13.4786C11.151 13.5056 11.148 13.533 11.1447 13.5615C11.1402 13.5741 11.1314 13.5847 11.1199 13.5915C11.085 13.608 11.0505 13.5982 11.0172 13.5885C10.9932 13.5806 10.9635 13.5694 10.9422 13.5949C10.9155 13.6282 10.956 13.638 10.9673 13.659C10.9733 13.669 10.9759 13.6807 10.9748 13.6924C10.9692 13.7119 10.953 13.722 10.9373 13.7314C10.8829 13.7437 10.8379 13.7681 10.8139 13.8236C10.803 13.8506 10.7745 13.8652 10.7483 13.8829C10.6748 13.9342 10.6677 13.9747 10.7224 14.0437C10.7325 14.0576 10.749 14.0711 10.7524 14.0876C10.7745 14.1979 10.86 14.2166 10.9512 14.2346C11.2583 14.2939 11.5703 14.3201 11.8838 14.322C12.1647 14.3246 12.4444 14.3299 12.7245 14.304C12.9229 14.2856 13.1217 14.2657 13.3152 14.2166C13.3722 14.2024 13.4145 14.1802 13.4284 14.1176C13.4348 14.0887 13.4558 14.0647 13.4742 14.0411C13.5233 13.9804 13.5203 13.9342 13.4592 13.8904C13.4174 13.8664 13.3827 13.8317 13.3587 13.7899C13.3343 13.7415 13.2878 13.7482 13.2413 13.7546C13.1149 13.776 12.993 13.8124 12.8674 13.8367C12.8509 13.8345 12.84 13.8255 12.8307 13.8109C12.822 13.7975 12.8169 13.7822 12.8158 13.7663C12.8148 13.7504 12.8178 13.7345 12.8247 13.7201C12.8314 13.707 12.8423 13.6965 12.8558 13.6905C12.9915 13.746 13.1074 13.6575 13.2345 13.6421C13.2522 13.6395 13.2619 13.626 13.26 13.6099C13.2537 13.5855 13.2342 13.5787 13.2102 13.5821C13.167 13.587 13.1247 13.6129 13.0789 13.5945C13.0669 13.5877 13.0574 13.5772 13.0519 13.5645C13.0449 13.5364 13.0466 13.5068 13.0568 13.4797C13.0647 13.4625 13.0737 13.4452 13.0992 13.4497" fill="#BF9200"/>
<path fill-rule="evenodd" clip-rule="evenodd" d="M13.1021 12.9637L13.0841 12.9776C13.0293 12.9544 13.0027 12.8899 12.9412 12.8752C12.9351 12.8801 12.9279 12.8833 12.9202 12.8846C12.9125 12.8858 12.9047 12.885 12.8973 12.8824C12.8625 12.8595 12.8501 12.828 12.852 12.7882C12.8553 12.7635 12.8658 12.7406 12.8696 12.7147C12.8812 12.6425 12.8775 12.5687 12.8587 12.498C12.8512 12.282 12.831 12.0679 12.8302 11.8511C12.8302 11.7795 12.8407 11.7034 12.798 11.6377C12.783 11.6273 12.7713 11.6129 12.7642 11.5961C12.78 11.4885 12.8017 11.382 12.8148 11.2732C12.8253 11.1836 12.8283 11.1791 12.7402 11.163C12.7173 11.1589 12.6926 11.1589 12.6836 11.1296C12.6903 11.0996 12.7177 11.0921 12.7421 11.082C12.798 11.0771 12.8538 11.0659 12.9097 11.0606C12.9945 11.0524 13.026 11.0767 13.0308 11.1622C13.0391 11.3329 13.0447 11.5024 13.0518 11.6722C13.074 12.0934 13.0837 12.5171 13.1092 12.939C13.1092 12.948 13.1047 12.9562 13.1021 12.9637Z" fill="#BF9200"/>
<path fill-rule="evenodd" clip-rule="evenodd" d="M12.9065 12.8738C12.9185 12.8738 12.9297 12.8749 12.9414 12.8749L13.0119 13.1591C13.022 13.176 13.0209 13.1906 13.0021 13.2015C12.9882 13.2086 12.9695 13.1824 12.9567 13.2086C12.896 13.3268 12.9192 13.4366 13.028 13.5203C13.0426 13.5304 13.058 13.5386 13.0647 13.5578C13.0714 13.5638 13.0784 13.5694 13.0857 13.5746C13.085 13.6163 13.0501 13.6193 13.025 13.626C12.9594 13.6395 12.896 13.6605 12.8285 13.656C12.8048 13.656 12.7814 13.661 12.7599 13.6706C12.6256 13.6969 12.4899 13.6954 12.3549 13.6905C12.3312 13.689 12.3035 13.6868 12.296 13.7183C12.2896 13.7483 12.314 13.758 12.3376 13.7648C12.3976 13.785 12.4602 13.7775 12.521 13.7809C12.5547 13.7828 12.5922 13.7711 12.6185 13.8053C12.6226 13.8521 12.5855 13.8544 12.5544 13.8596C12.5161 13.8653 12.4773 13.866 12.4389 13.8619C12.3616 13.8574 12.2911 13.8716 12.2337 13.9294C12.2264 13.9383 12.2168 13.9451 12.206 13.9493C12.1452 13.9699 12.0942 13.9016 12.0166 13.9474C11.9705 13.9755 11.8981 13.8908 11.8629 13.8274C11.8594 13.8145 11.8588 13.8011 11.8614 13.788C11.867 13.7588 11.9154 13.7475 11.897 13.7123C11.8771 13.6759 11.8374 13.6939 11.8074 13.6905C11.741 13.6838 11.6701 13.7205 11.6105 13.6688C11.6071 13.6091 11.6679 13.617 11.6952 13.5878C11.7118 13.5737 11.7325 13.5654 11.7541 13.5641C11.7676 13.5641 11.7792 13.569 11.7901 13.5773C11.8002 13.587 11.8111 13.6001 11.8265 13.5986C11.9195 13.5893 11.9956 13.6215 12.0654 13.6778C12.0826 13.6916 12.1032 13.6976 12.122 13.6815C12.1966 13.6241 12.2795 13.59 12.3781 13.5971C12.3882 13.5971 12.3965 13.584 12.4055 13.5765C12.4156 13.5686 12.4276 13.5636 12.4404 13.5619C12.506 13.5878 12.5525 13.5855 12.5862 13.5064C12.6159 13.4355 12.6552 13.4419 12.7407 13.5184C12.8007 13.4351 12.8004 13.4175 12.728 13.3114C12.6867 13.3455 12.6871 13.4258 12.6181 13.425C12.554 13.425 12.5401 13.3586 12.5026 13.323C12.4677 13.3628 12.4951 13.4434 12.4167 13.4539C12.38 13.4299 12.377 13.3943 12.3834 13.3564C12.4115 13.2758 12.407 13.1936 12.3987 13.1119C12.4015 13.0985 12.4071 13.0858 12.4152 13.0748C12.4546 13.0283 12.4452 12.9683 12.4595 12.9146C12.4722 12.8685 12.4707 12.8036 12.5356 12.798C12.5934 12.7943 12.6189 12.8498 12.647 12.891C12.6547 12.9017 12.6595 12.9143 12.6609 12.9274C12.6567 12.891 12.6729 12.8449 12.6984 12.8036C12.7317 12.7504 12.794 12.7553 12.8397 12.8119C12.8585 12.8355 12.8667 12.8723 12.9065 12.8738Z" fill="#BF9200"/>
<path fill-rule="evenodd" clip-rule="evenodd" d="M11.7376 13.6275C11.7008 13.6605 11.6494 13.6316 11.6112 13.6601C11.5591 13.7224 11.4979 13.6665 11.4417 13.6721C11.4162 13.6673 11.3937 13.6541 11.3678 13.656C11.2996 13.6605 11.2347 13.6395 11.1691 13.626C11.1432 13.6193 11.1079 13.6166 11.1064 13.5746C11.1138 13.5695 11.1209 13.5639 11.1274 13.5578C11.1338 13.5386 11.1496 13.5308 11.1642 13.5203C11.2718 13.4366 11.2969 13.3268 11.2366 13.2098C11.2227 13.1843 11.2047 13.2086 11.1901 13.2019C11.1706 13.191 11.1706 13.1764 11.1803 13.1595C11.1886 13.074 11.2354 12.9975 11.2354 12.9109C11.24 12.9009 11.2469 12.8923 11.2557 12.8859C11.2645 12.8795 11.2749 12.8754 11.2857 12.8741C11.3127 12.8741 11.3284 12.8573 11.3404 12.8344C11.3629 12.7935 11.3948 12.7609 11.4462 12.7673C11.4964 12.7736 11.5043 12.8205 11.5197 12.8595C11.5238 12.8693 11.5238 12.8824 11.5336 12.8906C11.5399 12.8921 11.5433 12.8888 11.5478 12.8831C11.5804 12.8471 11.6037 12.7856 11.6633 12.7995C11.7308 12.8149 11.7241 12.8854 11.7361 12.9386C11.7458 12.981 11.7436 13.0279 11.7841 13.0579C11.7938 13.0668 11.8005 13.0784 11.8036 13.0913C11.7871 13.1839 11.7751 13.2746 11.8186 13.3646C11.8212 13.3991 11.8129 13.4284 11.7841 13.4494C11.6944 13.4528 11.7282 13.3613 11.6896 13.3241C11.5823 13.4636 11.5654 13.4636 11.4691 13.3163C11.3963 13.3965 11.3941 13.4153 11.4443 13.5165C11.4717 13.5176 11.4803 13.4888 11.4987 13.4764C11.5369 13.4498 11.5789 13.4479 11.5981 13.4888C11.6254 13.557 11.6821 13.59 11.7376 13.6275ZM11.8422 10.3039C11.8587 10.1974 11.8876 10.0931 11.8812 9.98475C11.8801 9.94887 11.8703 9.91379 11.8525 9.8826C11.8347 9.85142 11.8095 9.82507 11.7792 9.80588C11.7609 9.79626 11.7406 9.79136 11.7199 9.79163C11.6884 9.78825 11.6479 9.8595 11.6277 9.78825C11.6192 9.76085 11.6187 9.73161 11.6262 9.70392C11.6337 9.67624 11.6489 9.65126 11.6701 9.63188C11.6809 9.62175 11.6971 9.61238 11.7094 9.61313C11.8879 9.6255 12.0679 9.55575 12.2461 9.63338C12.3394 9.67538 12.3968 9.73575 12.4032 9.83963C12.4111 9.85763 12.4137 9.8745 12.3938 9.88575C12.3653 9.88575 12.3499 9.8655 12.3409 9.84413C12.3094 9.76575 12.2434 9.75975 12.1868 9.79313C12.0713 9.86363 11.9828 9.8175 11.8981 9.74363C11.8631 9.71518 11.823 9.69367 11.7799 9.68025C11.8579 9.699 11.9221 9.75338 11.9794 9.81188C12.0207 9.85238 12.0346 9.897 11.9847 9.95138C11.9254 10.0148 11.9603 10.1048 11.9359 10.1801C11.9172 10.236 11.9314 10.3084 11.8553 10.335C11.8407 10.329 11.8351 10.3193 11.8422 10.3039ZM12.5239 10.653C12.5416 10.6965 12.5798 10.6886 12.6147 10.6868C12.7771 10.6808 12.9196 10.6163 13.0598 10.5431C13.0756 10.5334 13.0838 10.5413 13.0898 10.5551C13.0883 10.6046 13.0486 10.6256 13.0133 10.6466C12.9539 10.6805 12.8902 10.7062 12.8239 10.7231C12.7448 10.746 12.6683 10.779 12.5929 10.8011C12.4898 10.8326 12.3709 10.8945 12.2539 10.8191C12.2228 10.7996 12.1921 10.7948 12.1546 10.8176C12.0687 10.8724 12.0177 10.8454 11.9941 10.7396C11.9958 10.7335 11.9988 10.7278 12.0029 10.7229C12.007 10.718 12.012 10.714 12.0177 10.7111C12.1283 10.7089 12.1313 10.707 12.1298 10.5893C12.1298 10.5585 12.1246 10.5293 12.1279 10.4996C12.1392 10.4426 12.1422 10.3849 12.1414 10.3275C12.1411 10.2949 12.1351 10.2619 12.1658 10.239C12.2254 10.2368 12.2191 10.2829 12.2217 10.3193C12.2281 10.4201 12.2191 10.5206 12.2408 10.6211C12.2491 10.662 12.2626 10.6943 12.3169 10.716C12.2723 10.5962 12.2425 10.4714 12.2281 10.3444C12.2254 10.3174 12.2209 10.2915 12.2224 10.2645C12.2236 10.2281 12.2254 10.1843 12.2731 10.1843C12.3098 10.1835 12.3267 10.2203 12.3289 10.2551C12.3323 10.302 12.3451 10.3478 12.3499 10.3954C12.3578 10.4756 12.3758 10.5536 12.4092 10.6275C12.4238 10.6579 12.4399 10.7006 12.4879 10.662C12.4988 10.653 12.5101 10.6478 12.5239 10.653Z" fill="#BF9200"/>
<path fill-rule="evenodd" clip-rule="evenodd" d="M11.842 10.3039C11.8477 10.3125 11.8529 10.3207 11.8597 10.329C11.8975 10.3672 11.8728 10.4077 11.8612 10.4449C11.8342 10.5315 11.7794 10.6042 11.7352 10.6837C11.7952 10.6691 11.8188 10.6219 11.8368 10.5724C11.8709 10.4805 11.9039 10.3879 11.9167 10.2881C11.9185 10.281 11.9167 10.2705 11.92 10.2634C11.9388 10.2247 11.9294 10.1569 11.989 10.1625C12.0565 10.1689 12.0265 10.2315 12.0243 10.2712C12.014 10.4291 11.9677 10.5825 11.8889 10.7197C11.878 10.7377 11.8668 10.7539 11.8653 10.776C11.8454 10.7944 11.8454 10.8172 11.8507 10.8416C11.818 10.8821 11.7832 10.896 11.7558 10.8409C11.7378 10.8041 11.716 10.8142 11.689 10.8214C11.6362 10.8352 11.5893 10.8281 11.5537 10.7824C11.5285 10.7516 11.4925 10.7475 11.4562 10.7426C11.3617 10.7287 11.2707 10.6971 11.188 10.6492C11.149 10.6297 11.1059 10.6087 11.1025 10.5551C11.1085 10.5412 11.1168 10.533 11.1329 10.5431C11.2694 10.6147 11.4085 10.6759 11.5672 10.6886C11.62 10.6916 11.6534 10.6777 11.683 10.6309C11.7475 10.527 11.797 10.4167 11.842 10.3039Z" fill="#BF9200"/>
<path fill-rule="evenodd" clip-rule="evenodd" d="M11.1333 10.5412C11.1254 10.5461 11.1183 10.5517 11.11 10.5581C11.0718 10.5881 11.0373 10.566 11.002 10.5502C10.9236 10.5146 10.8403 10.4909 10.7549 10.4797C10.6533 10.4659 10.5779 10.5139 10.537 10.6095C10.522 10.6477 10.5033 10.6867 10.4827 10.722C10.4414 10.7119 10.477 10.6676 10.4512 10.6511C10.4894 10.4636 10.5997 10.3849 10.7872 10.4107C10.9124 10.428 11.0272 10.4707 11.1333 10.5412ZM13.0829 10.56C13.076 10.5535 13.0683 10.5478 13.06 10.5431C13.1763 10.4659 13.3034 10.4212 13.4407 10.4077C13.6015 10.3916 13.7069 10.4797 13.7418 10.653L13.7242 10.7107C13.6788 10.6942 13.6717 10.6481 13.6563 10.6114C13.6132 10.5139 13.5355 10.4659 13.4294 10.4824C13.3469 10.4945 13.2665 10.5181 13.1905 10.5525C13.1557 10.5679 13.1208 10.5896 13.0829 10.56ZM12.5242 10.653C12.5178 10.6598 12.5119 10.6671 12.5065 10.6747C12.4627 10.674 12.445 10.6436 12.433 10.6091C12.3933 10.5136 12.3716 10.4115 12.3693 10.308C12.3772 10.2727 12.3877 10.2371 12.4229 10.2169C12.445 10.3646 12.4638 10.5131 12.5242 10.653Z" fill="#BF9200"/>
<path fill-rule="evenodd" clip-rule="evenodd" d="M12.4236 10.2187C12.4158 10.2487 12.4266 10.2844 12.4045 10.3129C12.3509 10.2502 12.3381 9.94837 12.3876 9.88274C12.3925 9.86849 12.3981 9.85574 12.4038 9.84149C12.4405 9.96637 12.4251 10.092 12.4236 10.2202M11.1801 13.1587C11.1861 13.1704 11.1914 13.1835 11.1955 13.1959C11.2461 13.2645 11.2135 13.3151 11.161 13.3616C11.131 13.3646 11.1411 13.3346 11.1299 13.3226C11.1438 13.2671 11.1531 13.2094 11.1801 13.1587ZM12.9963 13.1962C13.0011 13.1842 13.006 13.1711 13.0116 13.1591C13.0386 13.2097 13.0484 13.2675 13.0619 13.3234C13.0514 13.335 13.0619 13.365 13.0308 13.3624C12.9783 13.3159 12.9456 13.2649 12.9963 13.1962Z" fill="#BF9200"/>
<path fill-rule="evenodd" clip-rule="evenodd" d="M11.1304 13.3234C11.1371 13.3357 11.1424 13.3489 11.1491 13.3627C11.184 13.4175 11.1806 13.4617 11.1116 13.4857C11.1056 13.4737 11.1015 13.4617 11.0955 13.4494C11.1075 13.4077 11.1188 13.3654 11.1304 13.3234ZM13.0444 13.3631C13.05 13.3492 13.0553 13.3361 13.062 13.3237C13.0733 13.3654 13.0849 13.4081 13.0973 13.4501C13.0909 13.4621 13.0868 13.4741 13.0808 13.4865C13.0118 13.4617 13.0084 13.4179 13.0444 13.3631ZM11.3948 11.6775C11.3726 11.6385 11.3685 11.5954 11.3599 11.553C11.3325 11.508 11.3573 11.4645 11.3625 11.4199C11.3794 11.4982 11.3966 11.5774 11.4128 11.6565C11.4071 11.6636 11.4071 11.6767 11.3948 11.6775ZM11.3213 12.6394C11.3291 12.621 11.3355 12.603 11.3426 12.5857C11.3576 12.5932 11.349 12.612 11.3576 12.6217C11.3471 12.6772 11.3366 12.7354 11.3089 12.7864C11.3033 12.7669 11.2991 12.7466 11.2928 12.7256C11.307 12.6986 11.2879 12.66 11.3213 12.6394ZM11.6119 11.1146C11.5751 11.1195 11.5395 11.1262 11.5039 11.1326C11.4848 11.1262 11.4653 11.1214 11.4469 11.1157C11.4859 11.1 11.5275 11.0996 11.5695 11.0977C11.5871 11.094 11.6081 11.0794 11.6119 11.1146ZM10.965 13.6841C11.0344 13.6987 11.1056 13.7062 11.1713 13.7314C11.2793 13.7707 11.3329 13.719 11.3711 13.6301C11.3936 13.6271 11.4135 13.629 11.4315 13.644C11.4559 13.6631 11.4919 13.668 11.5001 13.7066C11.5095 13.7561 11.5466 13.767 11.5909 13.7617C11.6794 13.7737 11.7671 13.7861 11.8575 13.7764C11.8621 13.7772 11.8664 13.7789 11.8703 13.7814C11.8741 13.7839 11.8774 13.7872 11.88 13.791V13.8217C11.7794 13.8347 11.6776 13.835 11.577 13.8225C11.4833 13.8105 11.4206 13.8379 11.3824 13.941C11.3535 13.7801 11.2343 13.7689 11.1154 13.749C11.0509 13.7396 10.986 13.7306 10.9268 13.6995C10.9399 13.695 10.9523 13.689 10.965 13.6841ZM12.8213 13.6312C12.8149 13.6684 12.8644 13.6691 12.867 13.6999L12.8498 13.7194C12.831 13.7355 12.7916 13.734 12.7931 13.7692C12.7965 13.797 12.8314 13.7914 12.8486 13.806L12.8663 13.8251C12.8483 13.8604 12.8291 13.8952 12.8051 13.9429C12.7729 13.8427 12.7088 13.8075 12.6173 13.8236C12.5513 13.7944 12.483 13.8161 12.4159 13.8097C12.3806 13.8067 12.3443 13.815 12.3128 13.7929C12.3709 13.7344 12.4463 13.7644 12.513 13.7629C12.5936 13.7595 12.6716 13.7775 12.7088 13.6785C12.7155 13.6612 12.7444 13.6586 12.7609 13.6462C12.7774 13.6301 12.7988 13.6275 12.8213 13.6312ZM12.8363 12.6217C12.8282 12.5953 12.8203 12.5688 12.8126 12.5422C12.7973 12.5302 12.78 12.5224 12.7706 12.5044C12.7101 12.3646 12.6702 12.2168 12.6521 12.0656C12.6503 12.048 12.654 12.0311 12.6491 12.0127C12.6983 11.8774 12.7673 11.748 12.7845 11.6021C12.7931 11.6085 12.8029 11.6134 12.8119 11.6197C12.8419 11.6977 12.828 11.7806 12.8314 11.8616C12.8404 12.1005 12.8419 12.3405 12.8745 12.5767C12.8704 12.6 12.8666 12.6225 12.8363 12.6217ZM12.6896 11.133C12.6203 11.1337 12.5565 11.1127 12.4909 11.0974C12.4935 11.0617 12.516 11.0764 12.5336 11.0794C12.6041 11.0914 12.6761 11.1037 12.7455 11.1142C12.7271 11.1211 12.7085 11.1274 12.6896 11.133Z" fill="#BF9200"/>
<path fill-rule="evenodd" clip-rule="evenodd" d="M12.8516 12.5861C12.8583 12.6034 12.8655 12.6221 12.873 12.6397C12.9063 12.6604 12.8872 12.699 12.9011 12.7267C12.8951 12.747 12.891 12.7672 12.8857 12.7875C12.8576 12.7354 12.8486 12.6787 12.8362 12.6221C12.8407 12.6101 12.8467 12.5985 12.8516 12.5861ZM12.4203 12.6412C12.369 12.7421 12.3101 12.8407 12.3483 12.9615C12.3577 12.9772 12.3476 12.9945 12.351 13.0106C12.3806 13.1235 12.4125 13.2371 12.4185 13.3556C12.4106 13.3878 12.4117 13.4215 12.4215 13.4531C12.4668 13.4861 12.4815 13.5259 12.4372 13.5716C12.4318 13.5781 12.4265 13.5847 12.4215 13.5915C12.3915 13.5949 12.3656 13.6121 12.3348 13.6087C12.2748 13.6012 12.2212 13.5787 12.216 13.512C12.2081 13.4194 12.1946 13.3264 12.186 13.2337C12.1867 13.1771 12.1751 13.122 12.1736 13.0657C12.1668 13.0455 12.1702 13.0226 12.1623 13.0042C12.1648 13.0101 12.1665 13.0163 12.1672 13.0226C12.1672 13.0459 12.1751 13.0665 12.177 13.0905C12.1875 13.1692 12.1751 13.2521 12.2021 13.3297C12.2013 13.389 12.2148 13.4475 12.2122 13.5079C12.2111 13.5874 12.1567 13.6481 12.0922 13.6447C12.0315 13.6425 11.9812 13.5832 11.9805 13.5079C11.9793 13.4434 11.9891 13.3777 11.9943 13.3136C12.015 13.2405 12.0086 13.1651 12.0165 13.0905C12.0195 13.0507 12.0371 13.0125 12.033 12.9724C12.0356 13.0095 12.0247 13.044 12.0168 13.0792C12.021 13.1306 12.0048 13.1812 12.0071 13.2322C11.9955 13.3226 11.9853 13.4122 11.979 13.5037C11.9741 13.569 11.9175 13.6102 11.8492 13.6091C11.8218 13.6084 11.7986 13.5937 11.772 13.5919L11.7558 13.572C11.7127 13.5262 11.7258 13.4869 11.7712 13.4535C11.7783 13.4227 11.7847 13.3897 11.7922 13.359C11.7855 13.2787 11.7821 13.1992 11.814 13.1224C11.8218 13.1002 11.814 13.0886 11.7896 13.0894C11.784 13.0832 11.7789 13.0767 11.7742 13.0699C11.8046 13.0226 11.835 12.975 11.8657 12.9289C11.8804 12.8943 11.8886 12.8573 11.8901 12.8197C11.8912 12.756 11.8983 12.6926 11.9231 12.6319C11.9333 12.6099 11.951 12.5922 11.973 12.582C12.0967 12.672 12.0967 12.672 12.2208 12.5801C12.2412 12.5911 12.2579 12.6078 12.2688 12.6281C12.2867 12.6733 12.2977 12.721 12.3015 12.7695C12.3021 12.7016 12.3231 12.6355 12.3618 12.5797C12.3708 12.5691 12.3836 12.5623 12.3975 12.561C12.4297 12.5662 12.447 12.585 12.4485 12.6176C12.4443 12.6322 12.4376 12.6439 12.4203 12.6412Z" fill="#BF9200"/>
<path fill-rule="evenodd" clip-rule="evenodd" d="M12.4166 13.1096C12.3873 13.0721 12.3584 13.0342 12.3284 12.9967C12.3348 12.9844 12.3412 12.9731 12.3479 12.9615C12.3836 13.0005 12.4102 13.0436 12.4338 13.0901L12.4166 13.1096ZM11.9519 10.7197C12.0243 10.6395 12.0243 10.5349 12.0404 10.4366C12.0566 10.3432 12.0626 10.2491 12.0727 10.1509C12.1106 10.164 12.1004 10.1865 12.0993 10.2037C12.0888 10.3556 12.0742 10.5075 12.0303 10.6541C12.0239 10.677 12.0146 10.6991 12.0239 10.7235C12.0172 10.7299 12.0123 10.7366 12.0063 10.7419H11.9718C11.9519 10.7475 11.9471 10.7385 11.9519 10.7197ZM12.1668 10.5375C12.1413 10.416 12.1548 10.2945 12.1492 10.1625C12.1983 10.1891 12.1814 10.2184 12.1822 10.242C12.1514 10.3391 12.1769 10.4396 12.1668 10.5375Z" fill="#BF9200"/>
<path fill-rule="evenodd" clip-rule="evenodd" d="M11.9515 10.7197C11.9579 10.7275 11.9648 10.7349 11.9721 10.7419C11.9346 10.7794 11.893 10.8086 11.8442 10.8285C11.821 10.8124 11.8225 10.7955 11.8442 10.7794C11.8892 10.7764 11.9166 10.7411 11.9515 10.7197ZM11.6117 11.1146C11.5978 11.109 11.5832 11.1041 11.5693 11.0977C11.6773 11.067 11.7842 11.0377 11.8926 11.0077C11.911 11.0002 11.9166 11.007 11.9166 11.025C11.8188 11.0667 11.7165 11.0968 11.6117 11.1146ZM12.3403 11.0494C12.2696 11.0347 12.2035 11.0029 12.148 10.9567C12.1498 10.9455 12.1592 10.9447 12.1675 10.9414L12.3643 11.0295C12.3662 11.0479 12.3613 11.0576 12.3403 11.0494Z" fill="#BF9200"/>
<path fill-rule="evenodd" clip-rule="evenodd" d="M11.9166 11.0246C11.9088 11.0186 11.9008 11.0129 11.8926 11.0074L12.061 10.9219C12.065 10.9233 12.0686 10.9255 12.0717 10.9284C12.0748 10.9313 12.0773 10.9348 12.079 10.9388C12.0325 10.9838 11.9743 11.0051 11.9166 11.0246ZM12.3403 11.0494L12.3643 11.0299C12.4202 11.0464 12.4776 11.0636 12.5331 11.0794C12.5192 11.0861 12.5046 11.091 12.4903 11.0974C12.4393 11.0861 12.3865 11.0764 12.3403 11.0494Z" fill="#BF9200"/>
<path fill-rule="evenodd" clip-rule="evenodd" d="M12.0788 10.9387C12.072 10.9331 12.0675 10.9275 12.0608 10.9219C12.1099 10.8536 12.1335 10.9196 12.1673 10.9414L12.1478 10.9567C12.1256 10.9504 12.1088 10.92 12.0788 10.9387ZM12.3293 12.4012C12.3465 12.3446 12.3503 12.288 12.3503 12.2287C12.3488 11.8905 12.3503 11.5534 12.3488 11.2151C12.3488 11.1817 12.3649 11.1439 12.3293 11.115C12.3244 11.1127 12.3225 11.1105 12.3244 11.1071C12.3259 11.1037 12.3274 11.1022 12.3293 11.1022C12.4718 11.1307 12.6105 11.1787 12.7586 11.1787C12.7976 11.1795 12.7995 11.2046 12.7984 11.2335C12.7796 11.6786 12.6341 12.072 12.3293 12.4012ZM11.8613 11.1146C11.8189 11.1225 11.8256 11.157 11.8256 11.1844C11.8256 11.5496 11.8275 11.9156 11.8241 12.2809C11.8241 12.318 11.85 12.3469 11.8463 12.3829C11.6066 12.1234 11.4746 11.8129 11.4161 11.4697C11.4026 11.391 11.4008 11.31 11.3944 11.2294C11.3903 11.1926 11.4038 11.1765 11.4428 11.1765C11.5808 11.1735 11.7124 11.1319 11.8444 11.0985C11.8631 11.0895 11.865 11.1 11.8613 11.1146ZM11.3588 12.6217C11.3543 12.6095 11.3493 12.5975 11.3438 12.5857C11.4038 12.2857 11.3974 11.9812 11.3962 11.6771L11.4142 11.6565C11.4574 11.775 11.5013 11.8927 11.5444 12.0105C11.5541 12.0292 11.5436 12.0461 11.5463 12.0641C11.5245 12.2156 11.4862 12.363 11.4247 12.5044C11.4165 12.5224 11.3985 12.5302 11.3839 12.5415C11.3753 12.5685 11.3674 12.5962 11.3588 12.6217ZM12.42 12.6412C12.426 12.6349 12.4305 12.6281 12.4365 12.6217C12.5093 12.5981 12.4856 12.5389 12.4856 12.4894C12.4841 12.438 12.4455 12.4399 12.4095 12.4372C12.4031 12.4356 12.3975 12.4319 12.3934 12.4268C12.3893 12.4216 12.3869 12.4153 12.3866 12.4087C12.4808 12.2831 12.5696 12.1515 12.6465 12.0127C12.654 12.024 12.6615 12.0364 12.6694 12.0476C12.644 12.142 12.6272 12.2386 12.6191 12.336C12.6098 12.465 12.6686 12.516 12.7909 12.4927C12.7976 12.5081 12.804 12.525 12.8104 12.5422C12.744 12.6517 12.744 12.6517 12.6454 12.5557C12.6244 12.5355 12.6019 12.5156 12.5689 12.4849L12.5284 12.7905L12.42 12.6412Z" fill="#BF9200"/>
<path fill-rule="evenodd" clip-rule="evenodd" d="M11.3818 12.5411L11.4006 12.4927C11.4838 12.5272 11.5337 12.4826 11.5765 12.4204C11.5963 12.3952 11.6053 12.3611 11.6361 12.3457C11.659 12.3416 11.6837 12.3427 11.7017 12.3221C11.7066 12.3185 11.7125 12.3163 11.7186 12.3159C11.7247 12.3155 11.7309 12.3169 11.7362 12.3199C11.7546 12.3427 11.7805 12.3596 11.7865 12.3919C11.7862 12.3999 11.7833 12.4077 11.7782 12.414C11.752 12.4331 11.7111 12.4339 11.6987 12.4717C11.6777 12.4939 11.677 12.5359 11.6338 12.5332C11.6241 12.5212 11.6387 12.471 11.5975 12.5085C11.5656 12.5351 11.5358 12.5641 11.5082 12.5951C11.4621 12.6491 11.4268 12.6592 11.4043 12.5771C11.4002 12.564 11.3901 12.5531 11.3818 12.5411Z" fill="#BF9200"/>
<path fill-rule="evenodd" clip-rule="evenodd" d="M11.644 12.3547C11.6342 12.3847 11.6241 12.4136 11.6155 12.4444C11.5873 12.4335 11.578 12.4084 11.5761 12.3806C11.5657 12.2692 11.5478 12.1585 11.5225 12.0495C11.5288 12.036 11.5363 12.024 11.5427 12.0101C11.584 12.0825 11.6263 12.153 11.6676 12.2254C11.6718 12.2319 11.6741 12.2394 11.6743 12.2471C11.6646 12.273 11.6657 12.3 11.6665 12.3274C11.6635 12.3401 11.6578 12.3499 11.644 12.3547ZM11.7741 12.3975C11.7778 12.3941 11.782 12.393 11.7861 12.3907C11.8487 12.4545 11.911 12.5167 11.9721 12.5809C11.9737 12.6021 11.9683 12.6233 11.9567 12.6412C11.911 12.6229 11.8821 12.5681 11.8228 12.5809C11.8112 12.5766 11.8016 12.5682 11.7958 12.5572C11.8071 12.5014 11.74 12.456 11.7741 12.3975ZM12.3865 12.4087C12.3912 12.4116 12.3953 12.4154 12.3985 12.42C12.4217 12.4706 12.409 12.5201 12.397 12.57L12.3797 12.5899C12.3216 12.5749 12.28 12.6146 12.2353 12.642C12.2207 12.6229 12.22 12.6011 12.2188 12.5797C12.2743 12.5231 12.3317 12.4661 12.3865 12.4087ZM11.8633 12.4087C11.9413 12.4282 11.9826 12.486 12.0167 12.5527C11.9545 12.5175 11.9091 12.4631 11.8633 12.4087ZM12.1468 11.0269C12.0928 10.9871 12.0546 11.0546 12.0051 11.0464C12.0501 11.0216 12.0835 10.9181 12.1468 11.0269ZM12.034 12.5512C12.0808 12.6015 12.1262 12.5722 12.1712 12.5471C12.1585 12.5865 12.1315 12.618 12.0928 12.618C12.0643 12.6169 12.0355 12.5895 12.034 12.5512Z" fill="#BF9200"/>
<path fill-rule="evenodd" clip-rule="evenodd" d="M11.6631 12.255C11.6638 12.2445 11.6657 12.2355 11.6672 12.2257C11.6901 12.2572 11.7118 12.2884 11.7358 12.3199C11.7294 12.3263 11.7234 12.333 11.7178 12.3401C11.6724 12.3431 11.6657 12.3067 11.6533 12.2775C11.6544 12.2692 11.6577 12.2614 11.6631 12.255ZM12.2218 12.4987C12.2428 12.4642 12.2552 12.4181 12.3111 12.4279C12.2859 12.4582 12.2642 12.492 12.2218 12.4987ZM12.3298 11.1007V11.1139C12.2979 11.1045 12.2593 11.106 12.2428 11.0655C12.2749 11.0675 12.3054 11.0799 12.3298 11.1007ZM11.8618 11.1146C11.8566 11.1097 11.8509 11.1041 11.8449 11.0992C11.8712 11.0764 11.9012 11.0655 11.9346 11.0846C11.9154 11.1071 11.8873 11.109 11.8618 11.1146ZM11.8093 12.5494L11.8262 12.5692C11.8757 12.6221 11.8794 12.6907 11.8911 12.756C11.8974 12.7834 11.8948 12.8122 11.9154 12.8362C11.9147 12.876 11.8873 12.9004 11.8652 12.9289C11.8446 12.8295 11.8292 12.729 11.7726 12.6412C11.7557 12.6461 11.7482 12.6349 11.7429 12.6199C11.7429 12.5752 11.7579 12.5456 11.8093 12.5494Z" fill="#BF9200"/>
<path fill-rule="evenodd" clip-rule="evenodd" d="M11.7549 12.6199L11.7729 12.6412C11.7441 12.684 11.7129 12.7624 11.6747 12.7545C11.6207 12.7414 11.6559 12.6607 11.6413 12.6124C11.6338 12.5869 11.6364 12.5591 11.6338 12.5332C11.6436 12.5032 11.6541 12.4732 11.6638 12.4447C11.7077 12.4639 11.7036 12.5047 11.7036 12.5426C11.7036 12.5805 11.7141 12.6086 11.7549 12.6199ZM12.7543 14.1671C12.7284 14.1724 12.6973 14.1844 12.6928 14.142C12.6902 14.103 12.7153 14.0809 12.7438 14.0632C12.7959 14.0317 12.7892 14.1015 12.8248 14.118C12.8304 14.0554 12.9002 14.0254 12.8796 13.9571C12.8781 13.953 12.8931 13.9402 12.9032 13.9357C12.9058 13.9342 12.9204 13.9432 12.9212 13.9481C12.9253 14.0156 13.0059 14.0089 13.0258 14.0599C13.0303 14.073 13.0509 14.0779 13.0547 14.0689C13.0918 13.9987 13.1473 14.028 13.2051 14.0449C13.1953 13.9957 13.1863 13.9564 13.1784 13.9174C13.1706 13.8784 13.1574 13.845 13.1072 13.8652C13.0858 13.8739 13.0701 13.8645 13.0678 13.8454C13.0622 13.8206 13.0881 13.8217 13.1034 13.8172C13.1762 13.7985 13.2069 13.8367 13.2212 13.9024C13.2317 13.962 13.2201 14.0471 13.3292 14.0055C13.3348 14.0029 13.3509 14.016 13.3554 14.025C13.3629 14.0411 13.3438 14.0486 13.3367 14.0479C13.2399 14.0419 13.1784 14.1577 13.0738 14.1225C13.0558 14.1176 13.0479 14.1292 13.0419 14.1454C13.0161 14.2084 12.9853 14.2166 12.9294 14.169C12.8784 14.1262 12.8308 14.151 12.7963 14.2005C12.7622 14.2117 12.7753 14.1686 12.7543 14.1671ZM11.6631 14.2612C11.7351 14.2361 11.7816 14.2057 11.7414 14.1337C11.7287 14.1105 11.7369 14.0891 11.7598 14.0824C11.7808 14.0745 11.7849 14.0977 11.7924 14.1139C11.7999 14.1304 11.8052 14.1506 11.8281 14.1439C11.8517 14.1382 11.8434 14.1157 11.8423 14.0992C11.8404 14.079 11.8314 14.0546 11.8566 14.0434C11.8858 14.0314 11.8858 14.0647 11.9001 14.076C11.9432 14.1052 11.9931 14.0869 12.0392 14.0914C12.0804 14.0981 12.1299 14.0869 12.1146 14.1574C12.1536 14.1521 12.1509 14.1191 12.1719 14.1075C12.1959 14.0947 12.2267 14.0745 12.2447 14.0947C12.2612 14.1142 12.2597 14.1506 12.2597 14.1802C12.2604 14.2132 12.2323 14.2132 12.2083 14.2144C12.1652 14.2151 12.1217 14.2065 12.0928 14.2582C12.0789 14.2822 12.0482 14.2807 12.0223 14.2594C11.9312 14.1877 11.8551 14.1851 11.7677 14.25C11.7426 14.2695 11.7152 14.274 11.6631 14.2612ZM11.5513 14.1956C11.5678 14.1045 11.5839 14.0347 11.5794 13.9624C11.5779 13.9372 11.5866 13.9181 11.6087 13.9181C11.6462 13.9181 11.6286 13.9481 11.6259 13.9642C11.6169 14.0381 11.6057 14.1112 11.5933 14.1851C11.5884 14.2102 11.5697 14.2271 11.5457 14.2346C11.5221 14.2414 11.5067 14.2279 11.4924 14.2106C11.4362 14.1341 11.3507 14.1127 11.2697 14.1607C11.2427 14.1769 11.2172 14.1892 11.1771 14.1754C11.2318 14.1454 11.2716 14.1112 11.2461 14.0449C11.2412 14.0325 11.2517 14.0122 11.2674 14.0096C11.2866 14.0055 11.2896 14.025 11.2914 14.0396C11.2956 14.0662 11.2993 14.0932 11.3327 14.0996C11.3488 14.1026 11.3631 14.1026 11.3739 14.091C11.3829 14.0797 11.3698 14.0711 11.3631 14.0617C11.3132 13.9841 11.4163 14.0066 11.4317 13.965C11.4441 13.9342 11.4842 13.9642 11.4849 13.9909C11.4864 14.025 11.5877 14.0599 11.4879 14.0944C11.5052 14.1232 11.5232 14.1506 11.5513 14.1956ZM10.9018 13.8255C10.9427 13.7989 10.9884 13.7921 11.0173 13.8075C11.0406 13.8206 11.0121 13.8604 11.0049 13.8889C11.0034 13.8945 11.0008 13.9001 11.0004 13.9065C10.9948 13.9432 10.9494 13.9957 10.9926 14.0156C11.0567 14.0426 11.0229 13.9624 11.0473 13.9417C11.0578 13.9342 11.0721 13.9316 11.0919 13.9234C11.0901 13.9432 11.0908 13.9545 11.0893 13.9657C11.0826 13.9972 11.0503 14.037 11.1088 14.0501C11.1636 14.0632 11.1538 14.028 11.1538 13.9931C11.1542 13.9669 11.1861 13.9639 11.2093 13.9627C11.2112 13.9669 11.2142 13.9699 11.2134 13.9725C11.1752 14.1307 11.1999 14.1154 11.0439 14.0779C11.0008 14.0685 10.9584 14.055 10.9157 14.0419C10.8936 14.0366 10.8621 14.0396 10.8594 14.0081C10.8579 13.9751 10.8801 13.9541 10.9108 13.9414C10.9278 13.9373 10.9435 13.9292 10.9566 13.9177C10.9937 13.875 10.9742 13.8375 10.9018 13.8255ZM12.3621 14.2159C12.2901 14.1971 12.3189 14.1454 12.3441 14.1232C12.3932 14.0831 12.3939 14.0396 12.3741 13.9894C12.3632 13.9612 12.3752 13.9466 12.3962 13.9432C12.4221 13.9402 12.4176 13.9661 12.4198 13.9822C12.4258 14.0272 12.4296 14.0707 12.4356 14.115C12.4374 14.139 12.4382 14.1679 12.4742 14.1581C12.5004 14.151 12.5061 14.133 12.4948 14.1097C12.4862 14.0891 12.4757 14.067 12.5046 14.0595C12.5436 14.0501 12.5346 14.0861 12.5413 14.106C12.5649 14.1829 12.5282 14.2084 12.4566 14.2039C12.4288 14.238 12.3932 14.2106 12.3621 14.2159ZM12.5488 14.2612C12.6047 14.2065 12.6441 14.166 12.5848 14.1109C12.5676 14.0966 12.5829 14.0689 12.6028 14.0599C12.6238 14.052 12.6291 14.076 12.6388 14.0906C12.6883 14.172 12.6688 14.226 12.5488 14.2612ZM11.6706 13.92C11.6979 13.9346 11.7223 13.9421 11.7103 13.9729C11.6882 14.0261 11.6882 14.0827 11.6833 14.1375C11.6818 14.1566 11.6833 14.1855 11.6533 14.1795C11.6226 14.1739 11.6379 14.1472 11.6406 14.1292C11.6436 14.0932 11.6484 14.0587 11.6533 14.0239C11.6586 13.9916 11.6631 13.9597 11.6706 13.92Z" fill="#BF9200"/>
<path fill-rule="evenodd" clip-rule="evenodd" d="M12.4537 14.2215C12.4717 14.2282 12.4901 14.2429 12.4766 14.2601C12.4537 14.286 12.4177 14.265 12.3877 14.2695C12.3682 14.2736 12.3649 14.2485 12.3799 14.2312C12.402 14.2147 12.4282 14.2192 12.4537 14.2215ZM12.7537 14.1671C12.7676 14.1784 12.78 14.19 12.795 14.2001C12.7785 14.238 12.7496 14.2417 12.7129 14.2354C12.7211 14.2072 12.7736 14.2084 12.7537 14.1671ZM12.3394 13.9837C12.3352 14.0006 12.3259 14.0044 12.3146 14.0006C12.3079 13.9987 12.3 13.989 12.3 13.9852C12.3007 13.9706 12.3116 13.9646 12.3251 13.9691C12.3311 13.9714 12.3356 13.9785 12.3394 13.9837ZM12.3442 14.0546C12.3371 14.0632 12.3292 14.0734 12.3172 14.0666C12.3067 14.0599 12.2981 14.0509 12.3056 14.0385C12.3116 14.0272 12.3202 14.0186 12.3326 14.0272C12.3427 14.0317 12.3502 14.0411 12.3442 14.0546ZM13.296 14.1127C13.2907 14.1292 13.2799 14.1326 13.2675 14.1315C13.2562 14.13 13.2424 14.1247 13.2502 14.1094C13.2544 14.1015 13.2664 14.0947 13.2761 14.0932C13.2896 14.0917 13.2949 14.1026 13.296 14.1127ZM10.9387 14.091C10.932 14.1045 10.9234 14.1127 10.9102 14.1064C10.9042 14.1026 10.8979 14.0925 10.8997 14.0857C10.9024 14.0749 10.9136 14.0681 10.9256 14.0749C10.932 14.0771 10.9354 14.0861 10.9387 14.091ZM11.1142 14.1405C11.1056 14.1461 11.0996 14.154 11.094 14.1547C11.0797 14.1577 11.0715 14.1472 11.076 14.1356C11.0782 14.1296 11.0887 14.1244 11.0955 14.1244C11.1004 14.1247 11.1056 14.1337 11.1142 14.1405ZM11.1409 13.6462C11.1665 13.6399 11.1933 13.64 11.2188 13.6466C11.2443 13.6533 11.2678 13.6661 11.2871 13.6841C11.2331 13.6927 11.1862 13.674 11.1409 13.6462ZM10.9275 13.5825C10.9513 13.5756 10.9766 13.5757 11.0003 13.5829C11.0241 13.59 11.0453 13.6038 11.0614 13.6226C11.0145 13.6312 10.9747 13.6132 10.9275 13.5825ZM12.9056 13.6789C12.9472 13.6462 12.9979 13.6387 13.0485 13.6365C13.05 13.644 13.053 13.6511 13.0549 13.6586L12.9131 13.7002L12.9056 13.6789ZM13.1197 13.6275C13.1617 13.5836 13.2041 13.5739 13.2649 13.5776C13.2459 13.5962 13.223 13.6103 13.1979 13.6189C13.1728 13.6276 13.1461 13.6305 13.1197 13.6275ZM11.5762 13.7914H11.8631C11.7692 13.8172 11.6701 13.8172 11.5762 13.7914ZM12.0225 13.0714C12.0176 13.0721 12.0127 13.0729 12.0079 13.074L12.0307 12.9139C12.0431 12.9844 12.0491 13.0294 12.0225 13.0714ZM12.153 13.0166V12.9349C12.1747 12.957 12.1657 12.9787 12.1695 12.999C12.1781 13.0177 12.168 13.0196 12.153 13.0166Z" fill="#BF9200"/>
<path fill-rule="evenodd" clip-rule="evenodd" d="M12.1528 13.0166C12.1581 13.0106 12.1636 13.0047 12.1693 12.999C12.1758 13.0069 12.1803 13.0163 12.1825 13.0264C12.1846 13.0364 12.1844 13.0468 12.1817 13.0567C12.1767 13.0622 12.1713 13.0674 12.1655 13.0721C12.1509 13.0567 12.1498 13.0365 12.1528 13.0166ZM11.6585 13.728C11.6058 13.7394 11.5513 13.7406 11.498 13.7314C11.5543 13.6875 11.6004 13.686 11.6585 13.728ZM11.8502 13.737C11.8119 13.755 11.7707 13.7524 11.7272 13.755C11.7335 13.7201 11.7553 13.722 11.7752 13.722C11.798 13.7336 11.8284 13.7134 11.8502 13.737Z" fill="#BF9200"/>
<path fill-rule="evenodd" clip-rule="evenodd" d="M11.8504 13.737C11.8245 13.7329 11.7971 13.737 11.7754 13.722C11.8054 13.7201 11.8343 13.7183 11.8631 13.7183C11.871 13.7183 11.8808 13.7261 11.8669 13.7336C11.8628 13.737 11.856 13.7351 11.8504 13.737ZM12.681 13.7224C12.6341 13.7392 12.5832 13.742 12.5348 13.7302C12.5869 13.6807 12.633 13.7002 12.681 13.7224ZM12.42 13.722C12.438 13.7182 12.453 13.7257 12.4744 13.7475C12.4307 13.7577 12.385 13.754 12.3435 13.737C12.3656 13.7134 12.3956 13.7336 12.42 13.722Z" fill="#BF9200"/>
<path fill-rule="evenodd" clip-rule="evenodd" d="M12.4199 13.722C12.3963 13.737 12.3693 13.7329 12.3434 13.737C12.3359 13.7329 12.3033 13.7351 12.3288 13.722C12.3517 13.7081 12.3881 13.7201 12.4199 13.722ZM11.6624 12.267C11.6429 12.2816 11.6512 12.3034 11.6444 12.3214C11.6317 12.2974 11.6231 12.2723 11.6351 12.2475C11.6399 12.2355 11.6538 12.249 11.6624 12.255V12.267ZM11.4371 14.0175C11.4446 14.0258 11.4524 14.0306 11.4539 14.0374C11.4618 14.0558 11.4461 14.0558 11.4356 14.0543C11.4296 14.0543 11.4202 14.0441 11.4209 14.0389C11.4217 14.0321 11.4296 14.0258 11.4371 14.0175Z" fill="#BF9200"/>
</svg>
