<svg width="132" height="66" viewBox="0 0 132 66" fill="none" xmlns="http://www.w3.org/2000/svg">
<path d="M6.10696 48.1591C6.08645 48.0858 6.06593 48.0125 5.97236 47.7908C5.82734 47.6007 5.77143 47.5432 5.73161 47.47C5.73161 47.47 5.73775 47.4624 5.71178 47.3687C5.41978 46.9687 5.15372 46.6624 4.88767 46.3561C4.88767 46.3561 4.78563 46.315 4.74203 46.2408C4.69846 46.1665 4.61354 46.0681 4.61354 46.0681C4.59498 46.0028 4.57643 45.9375 4.52615 45.666C3.83805 44.3862 3.18166 43.3125 2.52529 42.2389C1.89921 40.1068 1.14196 38.0032 0.673835 35.837C-0.365729 31.0268 -0.188244 26.2278 1.10798 21.4628C1.9281 18.448 3.01729 15.5537 4.83774 13.0055C7.91658 8.69574 11.5564 4.98779 16.4408 2.69202C16.6973 2.57144 16.9056 2.34817 17.3011 2.18714C17.7349 2.05729 18.0039 1.91302 18.2728 1.76874C18.2728 1.76874 18.2742 1.78839 18.3683 1.82888C18.6999 1.73653 18.9374 1.60369 19.175 1.47085C19.175 1.47085 19.1708 1.49108 19.2795 1.52244C21.511 1.0675 21.5101 1.0675 21.5201 3.31585C21.528 5.08942 21.5495 6.863 21.5448 8.63652C21.5408 10.1473 21.8011 11.7398 20.3708 12.8572C20.3708 12.8572 20.3656 12.8376 20.269 12.8013C19.9401 12.9949 19.7077 13.2248 19.4754 13.4546C19.4754 13.4546 19.4705 13.4348 19.3742 13.4045C19.0447 13.5997 18.8114 13.8254 18.5781 14.051C18.5781 14.051 18.5751 14.0308 18.487 14.0242C18.359 14.1285 18.319 14.2394 18.2791 14.3502C18.2791 14.3502 18.277 14.3299 18.1836 14.3144C18.0548 14.4155 18.0194 14.532 17.9839 14.6486C17.9839 14.6486 17.9789 14.6287 17.8836 14.6073C17.7544 14.7064 17.7205 14.8268 17.6867 14.9472C17.6867 14.9472 17.6795 14.927 17.5865 14.8808C16.9632 15.4679 16.4328 16.1011 15.9024 16.7342C15.9024 16.7342 15.8882 16.7165 15.7919 16.6865C15.6627 16.7832 15.6299 16.9097 15.5971 17.0363C15.5971 17.0363 15.5911 17.0166 15.4985 16.9958C15.369 17.095 15.3321 17.215 15.2953 17.3349C15.2953 17.3349 15.2922 17.3149 15.1986 17.2915C14.2733 18.6827 13.4416 20.0973 12.6099 21.5119C12.6099 21.5119 12.6052 21.491 12.5128 21.5213C12.3756 21.7552 12.3307 21.9587 12.2859 22.1623C12.2891 22.2255 12.2923 22.2886 12.2005 22.4449C12.085 22.6833 12.0645 22.8286 12.0441 22.9739C11.7324 25.481 11.0859 28.0008 11.1801 30.4926C11.3658 35.4057 12.907 39.8655 16.5063 43.5022C18.6783 45.6969 21.0411 47.5617 23.9134 48.6158C26.851 49.6939 29.989 49.8482 33.0577 49.4329C37.4742 48.8351 41.0368 46.5202 44.0751 43.3174C46.7297 40.5191 48.313 37.199 49.0182 33.4456C50.0639 27.8806 48.5762 22.8965 45.5994 18.1968C42.9939 14.0833 38.9932 12.0853 34.5475 10.3169C34.4504 6.97312 34.4504 3.83775 34.4504 0.566676C35.264 0.69596 35.8847 0.794589 36.4959 0.895664C36.4865 0.898109 36.4978 0.882159 36.5147 0.99775C37.2159 1.2359 37.9001 1.35846 38.5775 1.48536C38.5707 1.48969 38.5823 1.47752 38.5931 1.58656C39.2926 1.92514 39.9814 2.15468 40.6655 2.38617C40.6609 2.38812 40.6648 2.37883 40.6732 2.48901C41.477 2.92284 42.2725 3.24649 43.0586 3.57427C43.0491 3.57841 43.0596 3.56059 43.0677 3.66693C43.371 3.90598 43.6661 4.03869 43.9532 4.17485C43.9451 4.17829 43.9491 4.16114 43.9875 4.26639C44.2065 5.39609 44.9399 5.45263 45.7481 5.36498C45.7384 5.36892 45.7424 5.34823 45.7688 5.42282C45.8818 5.55262 45.9685 5.60782 46.0448 5.66457C46.0345 5.66612 46.0483 5.65036 46.0527 5.75679C46.6531 6.29279 47.2492 6.72236 47.836 7.15653C47.8268 7.16113 47.8318 7.1412 47.8572 7.21543C47.9685 7.34394 48.0545 7.39824 48.1324 7.45708C48.1242 7.46163 48.1339 7.44565 48.1581 7.51909C48.2674 7.64517 48.3526 7.69782 48.4288 7.75016C48.4199 7.74986 48.4342 7.73917 48.4451 7.85032C49.039 8.58681 49.2776 8.25048 49.3051 7.61663C49.3456 6.67866 49.3219 5.73781 49.3218 4.79819C49.3214 1.79425 49.321 1.81828 52.2462 1.78577C53.8631 1.7678 55.479 1.65337 57.1878 1.5644C57.4046 1.55861 57.529 1.57083 57.6594 1.68591C57.7324 2.34273 57.7993 2.89671 57.8633 3.4263C58.3471 2.86758 58.799 2.34575 59.2882 1.91034C59.2998 2.11779 59.2741 2.23883 59.1987 2.37421C59.1824 2.49697 59.2157 2.60538 59.2849 2.84674C59.3316 18.2516 59.343 33.5235 59.3487 48.7955C59.3488 49.0399 59.2796 49.2844 59.1536 49.5899C59.1151 50.9171 59.1657 52.1834 59.243 53.5416C59.2485 53.758 59.2273 53.8824 59.1372 54.0526C59.1193 54.4798 59.1703 54.8612 59.2731 55.3173C59.3619 55.44 59.399 55.488 59.4302 55.6133C59.4366 55.741 59.4488 55.7913 59.5156 55.9109C59.833 55.9512 60.0958 55.9221 60.4979 55.8776C64.0214 55.8744 67.4057 55.8866 70.8093 55.9771C71.0273 56.002 71.226 55.9486 71.5013 55.8616C71.6255 55.7986 71.673 55.7692 71.8167 55.7608C72.0417 55.8055 72.1706 55.8293 72.327 55.8996C72.4374 55.9157 72.5202 55.8853 72.6738 55.8227C72.8712 55.7009 72.9977 55.6112 73.2223 55.4558C73.273 54.7349 73.2255 54.0797 73.1572 53.2867C73.1042 48.271 73.0722 43.3933 73.0947 38.4049C73.1691 37.4519 73.206 36.6095 73.2063 35.7672C73.2101 24.6138 73.2088 13.4604 73.2088 2.29568C73.5251 2.16916 73.749 2.00566 73.9772 1.99958C76.6481 1.92842 79.3201 1.84646 81.9903 1.88228C82.2476 1.88573 82.6479 2.63579 82.7164 3.08018C82.8944 4.23434 82.9243 5.41132 83.0235 6.67373C83.0155 6.89342 82.9973 7.01857 82.8986 7.16284C82.8812 7.37931 82.9444 7.57665 83.0597 7.84046C83.2709 7.94768 83.4301 7.98843 83.6983 8.02689C83.9499 7.73278 84.0924 7.44097 84.2383 7.15625C84.2418 7.16335 84.227 7.158 84.3389 7.15129C84.8741 6.74444 85.2975 6.34431 85.7268 5.95411C85.7328 5.96403 85.7108 5.95651 85.8216 5.95895C86.2611 5.65883 86.5897 5.35628 86.9231 5.06261C86.9279 5.07151 86.9093 5.06357 87.0174 5.06667C87.3557 4.86527 87.586 4.66076 87.8193 4.46562C87.8223 4.47499 87.8035 4.46928 87.919 4.47125C88.5577 4.07172 89.0809 3.67022 89.6099 3.27476C89.6158 3.2808 89.6019 3.27244 89.7182 3.27979C90.3555 2.9826 90.8765 2.67807 91.4017 2.38028C91.4059 2.38702 91.3922 2.37902 91.482 2.379C91.7228 2.29655 91.874 2.21414 92.1221 2.07987C93.7303 1.55094 95.247 1.09013 96.7471 0.580576C96.9937 0.496809 97.1675 0.198925 97.375 0C100.963 0 104.551 2.06508e-08 108.203 0.110506C109.817 0.644992 111.454 0.877326 112.896 1.53697C115.174 2.57888 117.321 3.90746 119.578 5.19372C119.981 5.40171 120.329 5.53069 120.668 5.66444C120.659 5.66921 120.666 5.64988 120.636 5.75479C121.226 6.29023 121.847 6.72076 122.458 7.15659C122.45 7.1619 122.457 7.14247 122.431 7.24723C122.527 7.38601 122.647 7.42003 122.758 7.45712C122.749 7.46019 122.755 7.44086 122.732 7.54315C122.828 7.68169 122.948 7.71794 123.057 7.75632C123.048 7.75843 123.051 7.73852 123.037 7.83863C123.137 7.97692 123.252 8.01509 123.356 8.05536C123.346 8.05746 123.354 8.03867 123.317 8.1422C123.981 9.0161 124.682 9.78649 125.45 10.6275C128.608 14.2424 130.494 18.3618 131.42 22.9517C131.468 23.1907 131.8 23.3724 132 23.5808C132 25.0799 132 26.5789 131.912 28.3027C131.883 29.6645 131.942 30.8015 132 31.9386C132 33.1398 132 34.3411 132 35.6807C131.802 35.9782 131.458 36.1122 131.426 36.3003C130.126 43.7643 126.004 49.4507 120.16 53.9864C116.39 56.9123 112.049 58.6922 107.336 59.3783C100.717 60.3421 94.3967 59.4324 88.476 55.743C88.2891 55.5417 88.2075 55.504 88.1015 55.5191C88.1015 55.5191 88.1217 55.5193 88.1269 55.4207C87.8234 55.1924 87.5148 55.0626 87.2061 54.9328C87.2061 54.9328 87.2248 54.925 87.2355 54.8201C86.7919 54.4799 86.3376 54.2446 85.8832 54.0093C85.8832 54.0093 85.8923 54.0125 85.9095 53.9101C85.8755 53.6786 85.8244 53.5494 85.8345 53.3646C85.588 53.1231 85.2803 52.9373 84.8531 52.7442C84.6627 52.7737 84.5919 52.8105 84.521 52.8472C84.521 52.8472 84.5384 52.8343 84.5553 52.7421C84.4547 52.6144 84.3372 52.5789 84.2198 52.5434C84.2198 52.5434 84.2392 52.5367 84.2536 52.4469C84.1523 52.3189 84.0367 52.2808 83.921 52.2426C83.921 52.2426 83.9419 52.2374 83.9963 52.1747C84.0596 52.0502 84.0686 51.9884 84.1002 51.8801C84.0498 51.7817 83.9767 51.7298 83.915 51.6581C83.9264 51.6384 83.9124 51.6817 83.8786 51.5818C82.8519 51.1183 82.7824 51.1675 82.7488 52.4363C82.6355 56.7179 82.5318 60.9996 82.33 65.3001C82.1077 65.3095 81.9799 65.3002 81.7908 65.2317C81.4726 65.2126 81.2159 65.2526 80.8248 65.3103C79.786 65.3181 78.8819 65.3082 77.9473 65.2584C77.8345 65.2444 77.7522 65.2702 77.5459 65.3095C77.0074 65.3107 76.5928 65.2985 76.091 65.2213C75.3643 65.1896 74.7247 65.223 74.0775 65.2867C74.0698 65.317 74.0942 65.3746 73.9584 65.3539C72.8187 65.3061 71.8147 65.279 70.7796 65.2146C70.646 65.134 70.5659 65.1618 70.3704 65.2838C67.9342 65.294 65.6358 65.2814 63.2387 65.2024C62.0184 65.1808 60.8969 65.2256 59.6551 65.2841C59.2139 65.3233 58.8929 65.3488 58.4966 65.3436C58.369 65.2985 58.3168 65.2841 58.1725 65.2068C57.3509 65.1903 56.6211 65.2368 55.7608 65.2986C55.0173 65.3064 54.4043 65.2988 53.7194 65.2303C53.2989 65.2187 52.9502 65.268 52.4672 65.3331C51.4329 65.3368 50.5329 65.3248 49.6276 65.2226C49.4782 64.9043 49.3342 64.6762 49.161 64.3132C49.1268 61.3894 49.1218 58.6004 49.1827 55.7101C49.1819 54.2833 49.1152 52.9577 49.0332 51.6268C49.0179 51.6215 49.03 51.5914 48.9692 51.5159C48.6511 51.6105 48.3939 51.7807 48.1303 51.9442C48.124 51.9375 48.1371 51.9505 48.037 51.952C47.7093 52.1677 47.4817 52.3818 47.2578 52.6534C47.2615 52.7107 47.2673 52.8256 47.2673 52.8256C43.9613 56.2632 39.8666 58.1899 34.9867 59.0887C31.9287 59.1891 29.1263 59.3027 26.324 59.4164C22.223 59.0979 18.3915 57.9166 14.7086 55.7384C14.5164 55.5895 14.4502 55.5443 14.3756 55.5113C14.3756 55.5113 14.3989 55.5171 14.3992 55.4253C12.8985 54.3026 11.3975 53.2717 9.89644 52.2407C9.89644 52.2407 9.916 52.236 9.90354 52.1505C9.61503 51.8414 9.33901 51.6177 9.06298 51.3941C9.06298 51.3941 8.98438 51.3867 8.95582 51.2678C8.75886 51.0191 8.5905 50.8894 8.42213 50.7597C8.42213 50.7597 8.41371 50.7546 8.36437 50.6956C8.24477 50.5694 8.17461 50.502 8.10458 50.4345C8.10458 50.4345 8.1309 50.4394 8.11311 50.3618C7.9915 50.1378 7.88765 49.9915 7.78382 49.8452C7.78382 49.8452 7.83003 49.8492 7.77767 49.7869C7.3807 49.3936 7.0361 49.0626 6.6915 48.7317C6.6915 48.7317 6.59272 48.7047 6.56102 48.5874C6.38853 48.3663 6.24775 48.2627 6.10696 48.1591ZM119.169 20.5904C119.169 20.5904 119.17 20.618 119.128 20.4362C118.964 20.2203 118.801 20.0043 118.573 19.589C118.559 19.5206 118.544 19.4522 118.498 19.2246C118.343 19.1031 118.188 18.9817 117.968 18.6657C117.947 18.601 117.925 18.5362 117.871 18.328C117.727 18.2231 117.584 18.1183 117.364 17.8073C115.792 15.4547 113.56 13.8707 111.094 12.3155C110.991 12.2922 110.888 12.2689 110.806 12.241C110.806 12.241 110.805 12.2614 110.806 12.0495C108.413 10.5661 105.82 9.90986 102.735 10.1495C101.592 10.1493 100.411 9.96003 99.3119 10.18C93.0016 11.4431 88.1819 14.815 85.1458 20.5641C83.3396 23.9844 82.8976 27.6602 83.0172 31.4871C83.1111 34.4908 83.9271 37.2354 85.4625 39.7529C88.7717 45.1792 93.3603 48.8134 99.879 49.4734C104.069 49.8976 108.026 49.0995 111.661 46.8752C115.557 44.4914 118.261 41.1508 120.024 36.841C120.337 35.8779 120.774 34.9343 120.928 33.9465C121.093 32.8799 120.993 31.772 120.963 30.4147C120.98 29.1018 120.997 27.7889 121.125 26.3213C120.563 24.6111 120.002 22.9009 119.461 21.1932C119.461 21.1932 119.455 21.2129 119.528 21.0151C119.399 20.8731 119.27 20.7311 119.169 20.5904Z" fill="white"/>
</svg>
