<svg width="13" height="13" viewBox="0 0 13 13" fill="none" xmlns="http://www.w3.org/2000/svg">
<path d="M10.8922 0.355126C11.603 -0.290282 12.1924 0.0350199 12.7246 0.607311C13.3447 1.27413 12.7812 1.73436 12.3723 2.14771C9.47626 5.07508 6.5643 7.98673 3.64855 10.8945C3.34957 11.1927 2.9922 11.4322 2.56787 11.7829C2.31572 12.0582 2.15763 12.2496 1.99953 12.4411C1.99953 12.4411 1.99721 12.4264 1.92594 12.4224C1.31008 12.4976 0.765481 12.5767 0.220892 12.6558C0.220892 12.6558 0.234922 12.6468 0.248644 12.5765C0.174919 12.4822 0.0874597 12.4581 0 12.4341C0 12.4341 0.0148496 12.4259 0.0503088 12.3424C0.0605666 11.8691 0.0353652 11.4794 0.0101638 11.0896C0.0101638 11.0896 0.0147959 11.1038 0.0777256 11.1069C0.170368 11.0298 0.200094 10.9497 0.22982 10.8696C0.22982 10.8696 0.234452 10.8838 0.296227 10.8841C0.388695 10.8061 0.419401 10.7278 0.450094 10.6495C0.450094 10.6495 0.454404 10.6638 0.51634 10.6645C0.608902 10.5867 0.639501 10.5082 0.670113 10.4296C0.670113 10.4296 0.674409 10.4438 0.736198 10.4443C0.828746 10.3664 0.859506 10.288 0.890252 10.2096C0.890252 10.2096 0.894401 10.2239 0.956606 10.2247C1.04914 10.1469 1.07947 10.0683 1.1098 9.98966C1.1098 9.98966 1.11438 10.0039 1.17628 10.0052C1.26894 9.92766 1.29973 9.84871 1.33052 9.76975C1.33052 9.76975 1.33441 9.78394 1.39603 9.78378C1.48839 9.7056 1.51913 9.62758 1.54989 9.54957C1.54989 9.54957 1.55427 9.56387 1.61641 9.56516C1.70901 9.48756 1.73947 9.40867 1.76995 9.32977C1.76995 9.32977 1.77433 9.34396 1.83635 9.34474C1.92883 9.26687 1.95929 9.18823 1.98976 9.10959C1.98976 9.10959 1.9942 9.12387 2.05596 9.1245C2.14851 9.04666 2.1793 8.96818 2.21008 8.88971C2.21008 8.88971 2.21425 8.90396 2.27582 8.90411C2.36827 8.82607 2.39915 8.74788 2.43003 8.66969C2.43003 8.66969 2.43421 8.68396 2.49585 8.68421C2.58831 8.60619 2.61911 8.52793 2.64991 8.44966C2.64991 8.44966 2.65416 8.46395 2.7158 8.46422C2.80824 8.38622 2.83903 8.30794 2.86983 8.22967C2.86983 8.22967 2.87413 8.24396 2.93608 8.24466C3.02856 8.16682 3.05906 8.08828 3.08957 8.00975C3.08957 8.00975 3.09415 8.02403 3.15649 8.02549C3.24909 7.9479 3.27935 7.86885 3.3096 7.7898C3.3096 7.7898 3.31412 7.80401 3.37563 7.80428C3.46823 7.72636 3.49934 7.64818 3.53044 7.56999C3.53044 7.56999 3.5342 7.5842 3.59574 7.58394C3.68813 7.50575 3.71897 7.42783 3.74981 7.3499C3.74981 7.3499 3.75412 7.36414 3.8168 7.36624C3.9094 7.28883 3.93934 7.20932 3.96929 7.1298C3.96929 7.1298 3.97402 7.14403 4.03594 7.14481C4.12837 7.06698 4.1589 6.98837 4.18942 6.90975C4.18942 6.90975 4.19396 6.9241 4.25654 6.92612C4.34917 6.84874 4.3792 6.76933 4.40924 6.68991C4.40924 6.68991 4.414 6.70413 4.47599 6.70509C4.56851 6.62733 4.59906 6.54862 4.62959 6.46991C4.62959 6.46991 4.634 6.48416 4.69595 6.48499C4.78845 6.40719 4.81903 6.32856 4.8496 6.24993C4.8496 6.24993 4.85397 6.26419 4.91578 6.2648C5.00827 6.18691 5.03896 6.10842 5.06964 6.02992C5.06964 6.02992 5.07394 6.04421 5.13584 6.04487C5.22832 5.967 5.25889 5.88847 5.28946 5.80993C5.28946 5.80993 5.2939 5.82421 5.35589 5.82507C5.44838 5.74726 5.47887 5.6686 5.50937 5.58994C5.50937 5.58994 5.51387 5.60422 5.57601 5.60534C5.66852 5.52767 5.69889 5.44888 5.72924 5.37009C5.72924 5.37009 5.73392 5.38432 5.79678 5.38648C5.88939 5.30912 5.91915 5.22961 5.94889 5.15009C5.94889 5.15009 5.95388 5.16428 6.01615 5.1657C6.1087 5.08811 6.13898 5.0091 6.16927 4.93009C6.16927 4.93009 6.17386 4.94435 6.23648 4.94624C6.32908 4.86882 6.35906 4.7895 6.38903 4.71018C6.38903 4.71018 6.39385 4.72438 6.45646 4.72647C6.54906 4.64908 6.57904 4.5696 6.60902 4.49012C6.60902 4.49012 6.6138 4.50435 6.67636 4.50622C6.76888 4.42876 6.79886 4.34944 6.82885 4.27012C6.82885 4.27012 6.83377 4.2844 6.89668 4.28692C6.98925 4.20968 7.01889 4.12992 7.04855 4.05016C7.04855 4.05016 7.05376 4.06441 7.11661 4.0669C7.20917 3.98965 7.23886 3.90989 7.26854 3.83015C7.26854 3.83015 7.27372 3.84441 7.33653 3.84681C7.42908 3.76953 7.45881 3.68985 7.48853 3.61016C7.48853 3.61016 7.4937 3.62443 7.55651 3.62682C7.64911 3.54953 7.67891 3.46986 7.7087 3.3902C7.7087 3.3902 7.71368 3.40442 7.77597 3.40587C7.86849 3.3283 7.89872 3.24928 7.92896 3.17026C7.92896 3.17026 7.93367 3.18451 7.99647 3.18679C8.08907 3.10945 8.11886 3.02984 8.14866 2.95022C8.14866 2.95022 8.15361 2.96446 8.21602 2.96609C8.30854 2.88854 8.33866 2.80936 8.36877 2.73017C8.36877 2.73017 8.37356 2.74448 8.43637 2.74663C8.52897 2.66932 8.55878 2.58986 8.58859 2.5104C8.58859 2.5104 8.59366 2.52462 8.65686 2.5277C8.74954 2.45069 8.77901 2.3706 8.8085 2.29051C8.8085 2.29051 8.81367 2.30467 8.87695 2.30774C8.9696 2.23069 8.99897 2.15057 9.02833 2.07046C9.02833 2.07046 9.03362 2.08466 9.09679 2.08772C9.18945 2.01069 9.21892 1.93061 9.24839 1.85052C9.24839 1.85052 9.25364 1.8647 9.31712 1.86823C9.40977 1.79134 9.43894 1.71091 9.46811 1.63049C9.46811 1.63049 9.47358 1.64468 9.53661 1.64775C9.62922 1.57064 9.65877 1.49046 9.68832 1.41027C9.68832 1.41027 9.69341 1.42457 9.75595 1.42651C9.84846 1.34909 9.87842 1.26972 9.90839 1.19035C9.90839 1.19035 9.91341 1.20467 9.9762 1.20738C10.0689 1.13023 10.0989 1.05036 10.1288 0.970494C10.1288 0.970494 10.1335 0.984684 10.195 0.984755C10.2875 0.906707 10.3184 0.828587 10.3494 0.750465C10.3494 0.750465 10.3534 0.764741 10.4155 0.76536C10.508 0.687569 10.5383 0.609159 10.5687 0.530747C10.5687 0.530747 10.5739 0.544982 10.6384 0.556228C10.766 0.496691 10.8291 0.425907 10.8922 0.355126Z" fill="white"/>
</svg>
