<svg width="44" height="44" viewBox="0 0 44 44" fill="none" xmlns="http://www.w3.org/2000/svg">
<path d="M32.083 8.25C28.508 8.25 24.658 8.98333 21.9997 11C19.3413 8.98333 15.4913 8.25 11.9163 8.25C9.25801 8.25 6.43467 8.65333 4.06967 9.69833C2.73134 10.3033 1.83301 11.605 1.83301 13.09V33.77C1.83301 36.1533 4.06967 37.9133 6.37967 37.3267C8.17634 36.8683 10.083 36.6667 11.9163 36.6667C14.7763 36.6667 17.8197 37.1433 20.2763 38.3533C21.3763 38.9033 22.623 38.9033 23.7047 38.3533C26.1613 37.125 29.2047 36.6667 32.0647 36.6667C33.898 36.6667 35.8047 36.8683 37.6013 37.3267C39.9113 37.9317 42.148 36.1717 42.148 33.77V13.09C42.148 11.605 41.2497 10.3033 39.9113 9.69833C37.5647 8.65333 34.7413 8.25 32.083 8.25ZM38.4997 31.5883C38.4997 32.7433 37.4363 33.5867 36.2997 33.385C34.9247 33.1283 33.4947 33.0183 32.083 33.0183C28.9663 33.0183 24.4747 34.21 21.9997 35.7683V14.6667C24.4747 13.1083 28.9663 11.9167 32.083 11.9167C33.7697 11.9167 35.438 12.0817 37.033 12.43C37.8763 12.6133 38.4997 13.365 38.4997 14.2267V31.5883Z" fill="#BDBDD5"/>
<path d="M25.6301 20.1849C25.0434 20.1849 24.5118 19.8182 24.3284 19.2316C24.0901 18.5166 24.4934 17.7282 25.2084 17.5082C28.0318 16.5916 31.6801 16.2982 35.0351 16.6832C35.7868 16.7749 36.3368 17.4532 36.2451 18.2049C36.1534 18.9566 35.4751 19.5066 34.7234 19.4149C31.7534 19.0666 28.5084 19.3416 26.0518 20.1299C25.9051 20.1482 25.7584 20.1849 25.6301 20.1849ZM25.6301 25.0616C25.0434 25.0616 24.5118 24.6949 24.3284 24.1082C24.0901 23.3932 24.4934 22.6049 25.2084 22.3849C28.0134 21.4682 31.6801 21.1749 35.0351 21.5599C35.7868 21.6516 36.3368 22.3299 36.2451 23.0816C36.1534 23.8332 35.4751 24.3832 34.7234 24.2916C31.7534 23.9432 28.5084 24.2182 26.0518 25.0066C25.9139 25.0417 25.7724 25.0602 25.6301 25.0616ZM25.6301 29.9382C25.0434 29.9382 24.5118 29.5716 24.3284 28.9849C24.0901 28.2699 24.4934 27.4816 25.2084 27.2616C28.0134 26.3449 31.6801 26.0516 35.0351 26.4366C35.7868 26.5282 36.3368 27.2066 36.2451 27.9582C36.1534 28.7099 35.4751 29.2416 34.7234 29.1682C31.7534 28.8199 28.5084 29.0949 26.0518 29.8832C25.9139 29.9184 25.7724 29.9368 25.6301 29.9382Z" fill="#BDBDD5"/>
</svg>
