<svg width="24" height="24" viewBox="0 0 24 24" fill="none" xmlns="http://www.w3.org/2000/svg">
<path d="M12.0211 6.58319C12.0211 6.36135 12.0826 6.14384 12.1987 5.95483C12.3149 5.76583 12.4811 5.61271 12.6791 5.51251C12.877 5.4123 13.0988 5.36893 13.3199 5.38719C13.541 5.40546 13.7527 5.48466 13.9315 5.61599L20.9875 10.7892C21.1777 10.9285 21.3324 11.1107 21.439 11.3209C21.5457 11.5312 21.6013 11.7636 21.6013 11.9994C21.6013 12.2352 21.5457 12.4676 21.439 12.6779C21.3324 12.8881 21.1777 13.0703 20.9875 13.2096L13.9315 18.3828C13.7527 18.5141 13.541 18.5933 13.3199 18.6116C13.0988 18.6299 12.877 18.5865 12.6791 18.4863C12.4811 18.3861 12.3149 18.233 12.1987 18.044C12.0826 17.8549 12.0211 17.6374 12.0211 17.4156V13.6236L5.53149 18.3828C5.3527 18.5141 5.141 18.5933 4.91991 18.6116C4.69882 18.6299 4.47699 18.5865 4.27906 18.4863C4.08114 18.3861 3.91487 18.233 3.79872 18.044C3.68256 17.8549 3.62108 17.6374 3.62109 17.4156V6.58319C3.62108 6.36135 3.68256 6.14384 3.79872 5.95483C3.91487 5.76583 4.08114 5.61271 4.27906 5.51251C4.47699 5.4123 4.69882 5.36893 4.91991 5.38719C5.141 5.40546 5.3527 5.48466 5.53149 5.61599L12.0211 10.3752V6.58319Z" fill="white"/>
</svg>
