<svg width="5" height="5" viewBox="0 0 5 5" fill="none" xmlns="http://www.w3.org/2000/svg">
<path d="M1.50649 0.012529C3.47426 -0.101457 4.68745 0.565296 4.94083 1.8909C5.30536 3.79781 3.57221 5.50963 1.35164 4.85952C1.17175 4.69578 1.09685 4.66429 0.999567 4.68603C0.999567 4.68603 1.01659 4.68461 1.03378 4.59798C-0.202486 3.46788 -0.12443 2.13114 0.219403 0.735875C0.219403 0.735875 0.230231 0.752092 0.309455 0.76516C0.420942 0.676167 0.453204 0.574103 0.48545 0.47204C0.48545 0.47204 0.49188 0.489007 0.571088 0.498846C0.682335 0.408916 0.714373 0.309143 0.746395 0.209372C0.746395 0.209372 0.754809 0.228136 0.824068 0.263777C1.09771 0.203789 1.3021 0.108158 1.50649 0.012529Z" fill="black"/>
</svg>
