<svg width="44" height="44" viewBox="0 0 44 44" fill="none" xmlns="http://www.w3.org/2000/svg">
<path d="M40.6667 16C40.6668 15.6673 40.5762 15.3408 40.4045 15.0558L35.438 6.77833C35.1108 6.23721 34.6499 5.78938 34.0996 5.47794C33.5492 5.16649 32.928 5.0019 32.2957 5H12.371C11.0913 5 9.88683 5.682 9.22867 6.78017L4.26217 15.0558C4.09047 15.3408 3.99983 15.6673 4 16C4 17.8425 4.70767 19.509 5.83333 20.7997V38C5.83333 38.4862 6.02649 38.9525 6.3703 39.2964C6.71412 39.6402 7.18044 39.8333 7.66667 39.8333H22.3333C22.8196 39.8333 23.2859 39.6402 23.6297 39.2964C23.9735 38.9525 24.1667 38.4862 24.1667 38V28.8333H31.5V38C31.5 38.4862 31.6932 38.9525 32.037 39.2964C32.3808 39.6402 32.8471 39.8333 33.3333 39.8333H37C37.4862 39.8333 37.9525 39.6402 38.2964 39.2964C38.6402 38.9525 38.8333 38.4862 38.8333 38V20.7997C39.959 19.509 40.6667 17.8425 40.6667 16ZM36.9707 16.4602C36.8579 17.3455 36.4264 18.1594 35.7569 18.7496C35.0874 19.3398 34.2258 19.6658 33.3333 19.6667C31.3112 19.6667 29.6667 18.0222 29.6667 16C29.6667 15.8753 29.6208 15.7653 29.5952 15.648L29.6318 15.6407L28.2367 8.66667H32.2957L36.9707 16.4602ZM18.6795 16.1192L20.1682 8.66667H24.4967L25.9872 16.1192C25.923 18.0863 24.3133 19.6667 22.3333 19.6667C20.3533 19.6667 18.7437 18.0863 18.6795 16.1192ZM12.371 8.66667H16.43L15.0367 15.6407L15.0733 15.648C15.0458 15.7653 15 15.8753 15 16C15 18.0222 13.3555 19.6667 11.3333 19.6667C10.4409 19.6658 9.57926 19.3398 8.90978 18.7496C8.24029 18.1594 7.80879 17.3455 7.696 16.4602L12.371 8.66667ZM18.6667 30.6667H11.3333V25.1667H18.6667V30.6667Z" fill="#BDBDD5"/>
</svg>
