<svg width="15" height="14" viewBox="0 0 15 14" fill="none" xmlns="http://www.w3.org/2000/svg">
<path d="M14.4828 5.34899L14.4771 5.37622L14.47 5.37959L14.412 5.43355L11.3393 8.28931L11.1314 8.48249L11.1828 8.76155L11.9317 12.8281C11.943 12.8948 11.9264 12.9483 11.8941 12.9919C11.8652 13.0309 11.8237 13.0611 11.778 13.0772H11.6912C11.6522 13.0772 11.6228 13.0772 11.5958 13.0764C11.5891 13.0762 11.5832 13.0759 11.5778 13.0757L11.5492 13.0612L7.7271 11.1336L7.49434 11.0162L7.26158 11.1336L3.43946 13.0612L3.42743 13.0673L3.41572 13.074C3.31428 13.132 3.17081 13.1142 3.0755 12.9839C3.07359 12.9775 3.07164 12.9686 3.06994 12.9557C3.06665 12.9306 3.06548 12.9024 3.06511 12.8552L3.80585 8.83294L3.85725 8.55388L3.6494 8.36071L0.579599 5.50762C0.527403 5.45713 0.516893 5.41214 0.516893 5.3838C0.516893 5.35515 0.527639 5.30947 0.581359 5.2583L0.642969 5.1996L0.649376 5.1874C0.656675 5.187 0.665024 5.18675 0.674491 5.18675H0.708893L0.742992 5.18219L5.01477 4.61104L5.28492 4.57492L5.40772 4.33159L7.26799 0.645484C7.36324 0.50975 7.50956 0.490519 7.61255 0.549392L7.62933 0.558982L7.64678 0.567292C7.67296 0.579763 7.68541 0.587563 7.69011 0.590814C7.69322 0.595063 7.70015 0.605481 7.71115 0.626428L9.65968 4.33892L9.78391 4.57562L10.0489 4.61104L14.3206 5.18219L14.3547 5.18675H14.3851C14.3893 5.18802 14.4122 5.19591 14.4422 5.2364C14.4603 5.26083 14.4728 5.28774 14.479 5.31158C14.4851 5.33534 14.4831 5.34777 14.4828 5.34899Z" stroke="#F15E38"/>
</svg>
