<svg width="30" height="30" viewBox="0 0 30 30" fill="none" xmlns="http://www.w3.org/2000/svg">
<path fill-rule="evenodd" clip-rule="evenodd" d="M8.75027 11.25C8.50308 11.2501 8.26146 11.3234 8.05595 11.4607C7.85043 11.5981 7.69026 11.7933 7.59567 12.0217C7.50108 12.2501 7.47633 12.5013 7.52454 12.7438C7.57275 12.9862 7.69176 13.2089 7.86652 13.3837L14.1165 19.6337C14.3509 19.8681 14.6688 19.9997 15.0003 19.9997C15.3317 19.9997 15.6496 19.8681 15.884 19.6337L22.134 13.3837C22.3088 13.2089 22.4278 12.9862 22.476 12.7438C22.5242 12.5013 22.4995 12.2501 22.4049 12.0217C22.3103 11.7933 22.1501 11.5981 21.9446 11.4607C21.7391 11.3234 21.4975 11.2501 21.2503 11.25L8.75027 11.25Z" fill="#F15E38"/>
</svg>
