<svg width="94" height="27" viewBox="0 0 94 27" fill="none" xmlns="http://www.w3.org/2000/svg">
<path d="M16.1636 20.0958C15.0422 20.0958 14.1431 21.0895 14.1431 22.3287C14.1431 22.9209 14.356 23.4888 14.7349 23.9076C15.1138 24.3263 15.6277 24.5616 16.1636 24.5616C16.6994 24.5616 17.2133 24.3263 17.5922 23.9076C17.9711 23.4888 18.184 22.9209 18.184 22.3287C18.184 21.7365 17.9711 21.1686 17.5922 20.7498C17.2133 20.3311 16.6994 20.0958 16.1636 20.0958ZM0 2.23292V4.46578H2.02044L5.65724 12.9395L4.28334 15.6748C4.13181 15.9874 4.04089 16.3558 4.04089 16.7465C4.04089 17.3387 4.25376 17.9067 4.63266 18.3254C5.01157 18.7441 5.52548 18.9794 6.06133 18.9794H18.184V16.7465H6.48563C6.41865 16.7465 6.35441 16.7171 6.30704 16.6648C6.25968 16.6124 6.23307 16.5414 6.23307 16.4674C6.23307 16.4116 6.24317 16.3669 6.26338 16.3335L7.17258 14.5137H14.6987C15.4564 14.5137 16.1231 14.0448 16.4666 13.3637L20.0832 6.14043C20.1539 5.9618 20.2044 5.77201 20.2044 5.58222C20.2044 5.28612 20.098 5.00215 19.9086 4.79278C19.7191 4.58341 19.4622 4.46578 19.1942 4.46578H4.25304L3.30343 2.23292M6.06133 20.0958C4.93999 20.0958 4.04089 21.0895 4.04089 22.3287C4.04089 22.9209 4.25376 23.4888 4.63266 23.9076C5.01157 24.3263 5.52548 24.5616 6.06133 24.5616C6.59719 24.5616 7.1111 24.3263 7.49 23.9076C7.86891 23.4888 8.08178 22.9209 8.08178 22.3287C8.08178 21.7365 7.86891 21.1686 7.49 20.7498C7.1111 20.3311 6.59719 20.0958 6.06133 20.0958Z" fill="#F15E38"/>
<path d="M51.5212 21.2123C51.5213 21.7756 51.3288 22.3182 50.9822 22.7312C50.6356 23.1443 50.1606 23.3973 49.6523 23.4395L49.5007 23.4451H47.4803C46.9706 23.4453 46.4796 23.2325 46.1058 22.8495C45.7321 22.4665 45.5031 21.9415 45.4649 21.3797L45.4598 21.2123H51.5212ZM48.4905 2.23292C50.324 2.23289 52.0859 3.01989 53.4045 4.42791C54.723 5.83593 55.4952 7.75489 55.558 9.78L55.5621 10.0479V14.2502L57.4027 18.3185C57.483 18.496 57.5232 18.6924 57.5199 18.8908C57.5165 19.0892 57.4696 19.2838 57.3834 19.4579C57.2971 19.6319 57.1739 19.7803 57.0244 19.8902C56.8748 20.0002 56.7034 20.0684 56.5248 20.0891L56.4086 20.0958H40.5724C40.3927 20.0959 40.2158 20.0478 40.0566 19.9557C39.8974 19.8636 39.7609 19.7302 39.6586 19.567C39.5563 19.4038 39.4913 19.2156 39.4692 19.0186C39.4472 18.8216 39.4687 18.6215 39.5319 18.4357L39.5783 18.3185L41.419 14.2502V10.0479C41.419 7.97527 42.164 5.98749 43.4902 4.52189C44.8163 3.05629 46.615 2.23292 48.4905 2.23292Z" fill="#F15E38"/>
<path d="M87.5282 15.2348L87.2473 15.5955L86.9218 15.9051C86.2974 16.4991 85.5692 16.9264 84.7922 17.1644C84.0156 17.4023 83.2036 17.4471 82.4117 17.2969L82.409 17.2964C80.094 16.8638 78.1344 14.681 77.833 11.9382L77.833 11.9382L77.8325 11.9336C77.7225 10.9726 77.8132 9.9973 78.096 9.08412C78.3788 8.17101 78.8445 7.34955 79.4507 6.67958C80.0566 6.00997 80.7856 5.51051 81.5777 5.21088C82.3692 4.91148 83.2084 4.81724 84.0333 4.93259L84.0388 4.93333C86.3635 5.24529 88.4052 7.32396 88.8217 10.0466L88.8221 10.0489C88.9651 10.97 88.922 11.9148 88.6965 12.8139C88.4711 13.7129 88.0702 14.539 87.5282 15.2348ZM88.901 17.4424V17.1672H88.9564L92.9388 21.5891L92.9404 21.5908C92.963 21.6158 92.9899 21.6683 92.9899 21.7448C92.9899 21.8212 92.963 21.8737 92.9404 21.8987C92.9391 21.9001 92.938 21.9013 92.9369 21.9024C92.9358 21.9013 92.9346 21.9001 92.9333 21.8987L88.901 17.4424ZM77.7886 11.1331C77.7886 14.3735 80.1788 17.1672 83.3448 17.1672C86.5108 17.1672 88.901 14.3735 88.901 11.1331C88.901 7.89261 86.5108 5.0989 83.3448 5.0989C80.1788 5.0989 77.7886 7.89261 77.7886 11.1331Z" fill="#F15E38" stroke="#F15E38" stroke-width="2"/>
</svg>
