<svg width="50" height="40" viewBox="0 0 50 40" fill="none" xmlns="http://www.w3.org/2000/svg">
<g clip-path="url(#clip0_179_2284)">
<path d="M5.82811 28.6358C9.08592 31.4057 14.2656 34.966 18.8047 34.2908C19.2812 34.2217 19.75 34.0989 20.2109 33.9455C19.4922 33.0017 18.8594 32.0733 18.3203 31.2292C16.6094 28.5437 16.0703 25.4591 16.2969 22.5127C14.6875 22.8273 13.2344 23.5102 12.0234 24.4617C11.5156 24.8606 10.75 24.5614 10.8672 23.9245C11.3672 21.3541 13.4453 19.2517 16.1953 18.8374C16.3984 18.8067 16.6094 18.7836 16.8125 18.776L18.3281 8.70133C18.4844 7.64246 18.9531 6.19226 20.2812 5.17943C21.7344 4.08219 24.2578 2.83917 28.375 2.47086L28.1875 2.30973C26.6094 1.11274 22.5312 -0.882235 13.7265 0.429847C4.92186 1.74193 1.60155 4.83414 0.445295 6.4378C-1.76105e-05 7.05164 -0.0625176 7.82661 0.0468574 8.57856L1.93748 21.1853C2.36717 24.0473 3.61717 26.7559 5.82811 28.6434V28.6358ZM12.6797 11.7859C13.0234 11.548 13.5234 11.6324 13.6015 12.0391C13.6094 12.0774 13.6172 12.1235 13.625 12.1618C13.875 13.8346 12.7187 15.3845 11.039 15.6377C9.35936 15.8909 7.79686 14.7323 7.54686 13.0673C7.53905 13.0289 7.53905 12.9829 7.53123 12.9445C7.48436 12.5302 7.93748 12.3 8.33592 12.4304C9.03905 12.6606 9.80467 12.7296 10.5781 12.6146C11.3515 12.4995 12.0703 12.2079 12.6719 11.7859H12.6797ZM20.4375 29.9248C22.7344 33.5235 26.6484 38.4342 31.1875 39.1094C35.7266 39.7846 40.9141 36.232 44.1641 33.4544C46.375 31.5745 47.625 28.8659 48.0547 25.9962L49.9453 13.3895C50.0547 12.6376 49.9922 11.8626 49.5469 11.2488C48.3906 9.64511 45.0703 6.55289 36.2656 5.24081C27.4609 3.92873 23.3906 5.92371 21.8125 7.12069C21.2031 7.58107 20.9141 8.30233 20.8047 9.05429L18.914 21.661C18.4844 24.523 18.8828 27.4771 20.4453 29.9248H20.4375ZM31.6016 18.0547C31 17.6327 30.2891 17.3411 29.5078 17.226C28.7266 17.1109 27.9609 17.18 27.2656 17.4102C26.8672 17.5406 26.4141 17.3104 26.4609 16.8961C26.4687 16.8577 26.4687 16.8117 26.4766 16.7733C26.7266 15.1006 28.2891 13.9497 29.9687 14.2029C31.6484 14.4561 32.8047 16.006 32.5547 17.6787C32.5469 17.7171 32.5391 17.7631 32.5312 17.8015C32.4531 18.2082 31.9531 18.2926 31.6094 18.0547H31.6016ZM42.2422 19.244C42.1641 19.6507 41.6641 19.7351 41.3203 19.4972C40.7187 19.0752 40.0078 18.7836 39.2266 18.6685C38.4453 18.5534 37.6797 18.6225 36.9844 18.8527C36.5859 18.9831 36.1328 18.7529 36.1797 18.3386C36.1875 18.3002 36.1875 18.2542 36.1953 18.2158C36.4453 16.5431 38.0078 15.3922 39.6875 15.6454C41.3672 15.8986 42.5234 17.4485 42.2734 19.1213C42.2656 19.1596 42.2578 19.2057 42.25 19.244H42.2422ZM41.4062 26.871C39.875 30.3008 36.1875 32.4339 32.2812 31.8507C28.375 31.2676 25.4766 28.1524 25.0156 24.431C24.9375 23.7941 25.7109 23.5025 26.2031 23.9169C28.0703 25.5129 30.3906 26.6254 33 27.0091C35.6094 27.3927 38.1641 27.0168 40.4141 26.0269C41.0078 25.7661 41.6641 26.2725 41.3984 26.8633L41.4062 26.871Z" fill="#F15E38"/>
</g>
<defs>
<clipPath id="clip0_179_2284">
<rect width="50" height="39.2857" fill="white"/>
</clipPath>
</defs>
</svg>
