<svg width="30" height="30" viewBox="0 0 30 30" fill="none" xmlns="http://www.w3.org/2000/svg">
<path d="M23.9625 8.29844C23.4249 5.58594 21.4125 4.39844 18.6125 4.39844H7.63745C4.33745 4.39844 2.13745 6.04844 2.13745 9.89844V16.3359C2.13745 19.1109 3.27495 20.7359 5.14995 21.4359C5.42495 21.5359 5.72495 21.6234 6.03745 21.6734C6.53745 21.7859 7.07495 21.8359 7.63745 21.8359H18.625C21.925 21.8359 24.125 20.1859 24.125 16.3359V9.89844C24.125 9.31094 24.0749 8.78594 23.9625 8.29844ZM6.91245 14.9984C6.91245 15.5109 6.48745 15.9359 5.97495 15.9359C5.46245 15.9359 5.03745 15.5109 5.03745 14.9984V11.2484C5.03745 10.7359 5.46245 10.3109 5.97495 10.3109C6.48745 10.3109 6.91245 10.7359 6.91245 11.2484V14.9984ZM13.125 16.4234C11.3 16.4234 9.82495 14.9484 9.82495 13.1234C9.82495 11.2984 11.3 9.82344 13.125 9.82344C14.95 9.82344 16.425 11.2984 16.425 13.1234C16.425 14.9484 14.95 16.4234 13.125 16.4234ZM21.1999 14.9984C21.1999 15.5109 20.775 15.9359 20.2624 15.9359C19.75 15.9359 19.325 15.5109 19.325 14.9984V11.2484C19.325 10.7359 19.75 10.3109 20.2624 10.3109C20.775 10.3109 21.1999 10.7359 21.1999 11.2484V14.9984Z" fill="#F15E38"/>
<path d="M27.875 13.6508V20.0883C27.875 23.9383 25.675 25.6008 22.3625 25.6008H11.3875C10.45 25.6008 9.61246 25.4633 8.88746 25.1883C8.29996 24.9758 7.78746 24.6633 7.37496 24.2633C7.14996 24.0508 7.32496 23.7133 7.63746 23.7133H18.6125C23.2375 23.7133 25.9875 20.9633 25.9875 16.3508V9.90083C25.9875 9.60083 26.325 9.41333 26.5375 9.63833C27.3875 10.5383 27.875 11.8508 27.875 13.6508Z" fill="#F15E38"/>
</svg>
