<svg width="40" height="40" viewBox="0 0 40 40" fill="none" xmlns="http://www.w3.org/2000/svg">
<path d="M6.08333 25.6667L7.83333 23.9167L12 24.5L18.5 18L5.5 10.9167L7.83333 8.58334L23.75 12.6667L30.25 6.25001C30.7222 5.77778 31.3056 5.54167 32 5.54167C32.6945 5.54167 33.2778 5.77778 33.75 6.25001C34.2222 6.72223 34.4583 7.30556 34.4583 8.00001C34.4583 8.69445 34.2222 9.27778 33.75 9.75001L27.3333 16.25L31.4167 32.1667L29.0833 34.5L22 21.5L15.5 28L16.0833 32.1667L14.3333 33.9167L11.4167 28.5833L6.08333 25.6667Z" fill="#F15E38"/>
</svg>
