<svg width="24" height="24" viewBox="0 0 24 24" fill="none" xmlns="http://www.w3.org/2000/svg">
<path fill-rule="evenodd" clip-rule="evenodd" d="M11.9998 19.2C17.5894 19.2 22.1998 16.6068 22.1998 13.2C22.1998 9.7932 17.5894 7.2 11.9998 7.2C6.4102 7.2 1.7998 9.7932 1.7998 13.2C1.7998 16.6068 6.4102 19.2 11.9998 19.2ZM11.9998 8.4C17.0146 8.4 20.9998 10.6416 20.9998 13.2C20.9998 15.7584 17.0146 18 11.9998 18C6.985 18 2.9998 15.7584 2.9998 13.2C2.9998 10.6416 6.985 8.4 11.9998 8.4Z" fill="white"/>
<path d="M11.3999 4.2C11.3999 4.04087 11.4631 3.88826 11.5757 3.77573C11.6882 3.66321 11.8408 3.6 11.9999 3.6C12.159 3.6 12.3117 3.66321 12.4242 3.77573C12.5367 3.88826 12.5999 4.04087 12.5999 4.2V7.8C12.5999 7.95913 12.5367 8.11174 12.4242 8.22426C12.3117 8.33678 12.159 8.4 11.9999 8.4C11.8408 8.4 11.6882 8.33678 11.5757 8.22426C11.4631 8.11174 11.3999 7.95913 11.3999 7.8V4.2ZM16.2119 4.6824C16.2477 4.531 16.3408 4.39941 16.4717 4.31536C16.6026 4.23131 16.761 4.20139 16.9135 4.23189C17.0661 4.2624 17.2008 4.35096 17.2893 4.47888C17.3778 4.60681 17.4132 4.7641 17.3879 4.9176L16.7879 7.9176C16.7522 8.06899 16.659 8.20059 16.5281 8.28464C16.3973 8.36868 16.2388 8.39861 16.0863 8.3681C15.9338 8.33759 15.799 8.24904 15.7105 8.12111C15.622 7.99319 15.5867 7.83589 15.6119 7.6824L16.2119 4.6824ZM7.78792 4.6824C7.75218 4.531 7.65904 4.39941 7.52814 4.31536C7.39725 4.23131 7.23883 4.20139 7.08629 4.23189C6.93376 4.2624 6.79904 4.35096 6.71054 4.47888C6.62203 4.60681 6.58668 4.7641 6.61192 4.9176L7.21192 7.9176C7.24765 8.06899 7.34079 8.20059 7.47169 8.28464C7.60258 8.36868 7.761 8.39861 7.91354 8.3681C8.06607 8.33759 8.20079 8.24904 8.2893 8.12111C8.3778 7.99319 8.41316 7.83589 8.38792 7.6824L7.78792 4.6824ZM2.91471 6.2916C2.83292 6.15506 2.70024 6.05662 2.54586 6.01791C2.39148 5.9792 2.22805 6.00341 2.09151 6.0852C1.95498 6.16699 1.85653 6.29967 1.81782 6.45405C1.77912 6.60843 1.80332 6.77186 1.88511 6.9084L3.68511 9.9084C3.76691 10.0449 3.89959 10.1434 4.05397 10.1821C4.20835 10.2208 4.37178 10.1966 4.50831 10.1148C4.64485 10.033 4.7433 9.90032 4.78201 9.74594C4.82071 9.59156 4.79651 9.42813 4.71471 9.2916L2.91471 6.2916ZM21.0851 6.2916C21.1256 6.22399 21.179 6.16503 21.2423 6.11807C21.3056 6.07111 21.3775 6.03707 21.454 6.01791C21.5304 5.99874 21.6099 5.99482 21.6878 6.00637C21.7658 6.01791 21.8407 6.0447 21.9083 6.0852C21.9759 6.1257 22.0349 6.17912 22.0818 6.2424C22.1288 6.30569 22.1628 6.37761 22.182 6.45405C22.2012 6.53049 22.2051 6.60996 22.1936 6.68792C22.182 6.76587 22.1552 6.84079 22.1147 6.9084L20.3147 9.9084C20.2742 9.976 20.2208 10.035 20.1575 10.0819C20.0942 10.1289 20.0223 10.1629 19.9459 10.1821C19.8694 10.2013 19.79 10.2052 19.712 10.1936C19.634 10.1821 19.5591 10.1553 19.4915 10.1148C19.4239 10.0743 19.3649 10.0209 19.318 9.95759C19.271 9.8943 19.237 9.82239 19.2178 9.74594C19.1987 9.6695 19.1947 9.59004 19.2063 9.51208C19.2178 9.43412 19.2446 9.3592 19.2851 9.2916L21.0851 6.2916ZM15.5999 12.6C15.5999 13.5548 15.2206 14.4705 14.5455 15.1456C13.8704 15.8207 12.9547 16.2 11.9999 16.2C11.0451 16.2 10.1295 15.8207 9.45433 15.1456C8.7792 14.4705 8.39992 13.5548 8.39992 12.6C8.39992 11.6452 8.7792 10.7295 9.45433 10.0544C10.1295 9.37928 11.0451 9 11.9999 9C12.9547 9 13.8704 9.37928 14.5455 10.0544C15.2206 10.7295 15.5999 11.6452 15.5999 12.6Z" fill="white"/>
</svg>
