<svg width="33" height="34" viewBox="0 0 33 34" fill="none" xmlns="http://www.w3.org/2000/svg">
<path d="M29.2744 24.2991C27.5944 24.6167 26.5288 26.3599 26.8798 28.2165C27.0475 29.1037 27.5272 29.8943 28.2135 30.4144C28.8997 30.9344 29.7363 31.1413 30.5391 30.9896C31.3419 30.8379 32.0452 30.3399 32.4943 29.6052C32.9433 28.8706 33.1014 27.9594 32.9337 27.0722C32.766 26.185 32.2863 25.3944 31.6 24.8744C30.9138 24.3543 30.0772 24.1474 29.2744 24.2991ZM0 2.11461L0.632316 5.45984L3.6593 4.88767L11.5075 16.5529L10.2238 21.0399C10.0853 21.5511 10.0534 22.1289 10.164 22.7143C10.3317 23.6015 10.8115 24.3921 11.4977 24.9121C12.184 25.4322 13.0205 25.6391 13.8233 25.4873L31.9853 22.0544L31.3529 18.7091L13.8267 22.022C13.7263 22.0409 13.6218 22.0151 13.536 21.9501C13.4502 21.885 13.3902 21.7862 13.3693 21.6753C13.3535 21.5917 13.356 21.5219 13.3767 21.466L14.2235 18.4822L25.4991 16.3509C26.6342 16.1363 27.5003 15.245 27.822 14.1275L31.1948 2.28147C31.2502 1.99383 31.2721 1.69518 31.2184 1.41083C31.1345 0.967228 30.8946 0.571932 30.5515 0.311907C30.2084 0.0518816 29.7901 -0.0515744 29.3887 0.024299L7.00413 4.25543L4.94912 1.17912M14.1395 27.16C12.4595 27.4775 11.3939 29.2207 11.7448 31.0773C11.9125 31.9646 12.3923 32.7551 13.0785 33.2752C13.7648 33.7952 14.6013 34.0022 15.4041 33.8504C16.2069 33.6987 16.9102 33.2007 17.3593 32.466C17.8084 31.7314 17.9665 30.8202 17.7988 29.933C17.6311 29.0458 17.1513 28.2552 16.4651 27.7352C15.7788 27.2151 14.9423 27.0082 14.1395 27.16Z" fill="#F15E38"/>
</svg>
