<svg width="16" height="17" viewBox="0 0 16 17" fill="none" xmlns="http://www.w3.org/2000/svg">
<path d="M11.273 10.9634H10.5606L10.3082 10.6943C10.8717 9.9708 11.2836 9.11857 11.5143 8.1986C11.745 7.27863 11.7889 6.31368 11.6427 5.37279C11.2189 2.60241 9.12688 0.390086 6.60202 0.0512618C5.71436 -0.0728418 4.81278 0.0291103 3.96626 0.349316C3.11974 0.669522 2.35073 1.1995 1.71805 1.89868C1.08538 2.59787 0.605829 3.44774 0.316085 4.38325C0.0263409 5.31877 -0.0659121 6.31514 0.0463851 7.29612C0.352976 10.0864 2.35483 12.3984 4.86166 12.8668C5.71304 13.0283 6.5862 12.9798 7.41864 12.7248C8.25109 12.4699 9.02225 12.0147 9.67694 11.3919L9.92041 11.6709V12.4582L13.7528 16.6935C14.1225 17.1021 14.7267 17.1021 15.0964 16.6935C15.4661 16.2849 15.4661 15.6172 15.0964 15.2087L11.273 10.9634ZM5.86259 10.9634C3.61727 10.9634 1.80477 8.96034 1.80477 6.47895C1.80477 3.99757 3.61727 1.99452 5.86259 1.99452C8.10792 1.99452 9.92041 3.99757 9.92041 6.47895C9.92041 8.96034 8.10792 10.9634 5.86259 10.9634Z" fill="#808080"/>
</svg>
