<svg width="79" height="15" viewBox="0 0 79 15" fill="none" xmlns="http://www.w3.org/2000/svg">
<path d="M7.50018 1.5625C7.61622 1.56256 7.72995 1.59493 7.82864 1.65597C7.92732 1.71701 8.00706 1.80432 8.05893 1.90813L9.67143 5.13188L13.2152 5.64688C13.3306 5.66364 13.4391 5.71237 13.5282 5.78757C13.6174 5.86276 13.6838 5.96141 13.7198 6.07235C13.7558 6.1833 13.7601 6.30211 13.7321 6.41535C13.7041 6.52859 13.645 6.63174 13.5614 6.71313L10.9821 9.22813L11.5621 12.7744C11.5807 12.8892 11.5669 13.0069 11.5223 13.1143C11.4777 13.2217 11.404 13.3145 11.3095 13.3823C11.215 13.4501 11.1035 13.4902 10.9874 13.4981C10.8714 13.506 10.7555 13.4813 10.6527 13.4269L7.50018 11.7544L4.34768 13.4269C4.2449 13.4813 4.12897 13.506 4.01293 13.4981C3.8969 13.4902 3.78536 13.4501 3.69087 13.3823C3.59638 13.3145 3.52267 13.2217 3.47806 13.1143C3.43344 13.0069 3.41967 12.8892 3.43831 12.7744L4.01831 9.22813L1.43893 6.71313C1.35537 6.63174 1.29625 6.52859 1.26826 6.41535C1.24027 6.30211 1.24453 6.1833 1.28056 6.07235C1.31659 5.96141 1.38294 5.86276 1.47212 5.78757C1.5613 5.71237 1.66974 5.66364 1.78518 5.64688L5.32893 5.13188L6.94143 1.90813C6.9933 1.80432 7.07304 1.71701 7.17173 1.65597C7.27041 1.59493 7.38414 1.56256 7.50018 1.5625ZM7.50018 3.585L6.30143 5.9825C6.25644 6.07267 6.19032 6.15062 6.1087 6.20971C6.02708 6.2688 5.93238 6.30728 5.83268 6.32188L3.21768 6.70188L5.12393 8.56C5.19597 8.63019 5.25001 8.71672 5.28145 8.81225C5.3129 8.90779 5.32082 9.0095 5.30456 9.10875L4.87518 11.7319L7.20706 10.4944C7.29733 10.4464 7.39797 10.4214 7.50018 10.4214C7.60239 10.4214 7.70304 10.4464 7.79331 10.4944L10.1252 11.7319L9.69581 9.10875C9.67964 9.0096 9.68762 8.90801 9.71907 8.81259C9.75051 8.71718 9.80449 8.63075 9.87643 8.56063L11.7827 6.70188L9.16831 6.32188C9.0686 6.30728 8.97391 6.2688 8.89229 6.20971C8.81067 6.15062 8.74454 6.07267 8.69956 5.9825L7.50018 3.585Z" fill="#111111"/>
<path d="M29.75 6.31249C29.8125 5.99999 29.5625 5.62499 29.25 5.62499L25.6875 5.12499L24.0625 1.87499C24 1.74999 23.9375 1.68749 23.8125 1.62499C23.5 1.43749 23.125 1.56249 22.9375 1.87499L21.375 5.12499L17.8125 5.62499C17.625 5.62499 17.5 5.68749 17.4375 5.81249C17.1875 6.06249 17.1875 6.43749 17.4375 6.68749L20 9.18749L19.375 12.75C19.375 12.875 19.375 13 19.4375 13.125C19.625 13.4375 20 13.5625 20.3125 13.375L23.5 11.6875L26.6875 13.375C26.75 13.4375 26.875 13.4375 27 13.4375H27.125C27.4375 13.375 27.6875 13.0625 27.625 12.6875L27 9.12499L29.5625 6.62499C29.6875 6.56249 29.75 6.43749 29.75 6.31249Z" fill="#F15E38"/>
<path d="M45.75 6.31249C45.8125 5.99999 45.5625 5.62499 45.25 5.62499L41.6875 5.12499L40.0625 1.87499C40 1.74999 39.9375 1.68749 39.8125 1.62499C39.5 1.43749 39.125 1.56249 38.9375 1.87499L37.375 5.12499L33.8125 5.62499C33.625 5.62499 33.5 5.68749 33.4375 5.81249C33.1875 6.06249 33.1875 6.43749 33.4375 6.68749L36 9.18749L35.375 12.75C35.375 12.875 35.375 13 35.4375 13.125C35.625 13.4375 36 13.5625 36.3125 13.375L39.5 11.6875L42.6875 13.375C42.75 13.4375 42.875 13.4375 43 13.4375H43.125C43.4375 13.375 43.6875 13.0625 43.625 12.6875L43 9.12499L45.5625 6.62499C45.6875 6.56249 45.75 6.43749 45.75 6.31249Z" fill="#F15E38"/>
<path d="M61.75 6.31249C61.8125 5.99999 61.5625 5.62499 61.25 5.62499L57.6875 5.12499L56.0625 1.87499C56 1.74999 55.9375 1.68749 55.8125 1.62499C55.5 1.43749 55.125 1.56249 54.9375 1.87499L53.375 5.12499L49.8125 5.62499C49.625 5.62499 49.5 5.68749 49.4375 5.81249C49.1875 6.06249 49.1875 6.43749 49.4375 6.68749L52 9.18749L51.375 12.75C51.375 12.875 51.375 13 51.4375 13.125C51.625 13.4375 52 13.5625 52.3125 13.375L55.5 11.6875L58.6875 13.375C58.75 13.4375 58.875 13.4375 59 13.4375H59.125C59.4375 13.375 59.6875 13.0625 59.625 12.6875L59 9.12499L61.5625 6.62499C61.6875 6.56249 61.75 6.43749 61.75 6.31249Z" fill="#F15E38"/>
<path d="M77.75 6.31246C77.8125 5.99996 77.5625 5.62496 77.25 5.62496L73.6875 5.12496L72.0625 1.87496C72 1.74996 71.9375 1.68746 71.8125 1.62496C71.5 1.43746 71.125 1.56246 70.9375 1.87496L69.375 5.12496L65.8125 5.62496C65.625 5.62496 65.5 5.68746 65.4375 5.81246C65.1875 6.06246 65.1875 6.43746 65.4375 6.68746L68 9.18746L67.375 12.75C67.375 12.875 67.375 13 67.4375 13.125C67.625 13.4375 68 13.5625 68.3125 13.375L71.5 11.6875L74.6875 13.375C74.75 13.4375 74.875 13.4375 75 13.4375H75.125C75.4375 13.375 75.6875 13.0625 75.625 12.6875L75 9.12496L77.5625 6.62496C77.6875 6.56246 77.75 6.43746 77.75 6.31246Z" fill="#F15E38"/>
</svg>
