<svg width="14" height="12" viewBox="0 0 14 12" fill="none" xmlns="http://www.w3.org/2000/svg">
<path d="M7.41777 11.0468L7.41517 11.0491C7.18629 11.251 6.82427 11.2506 6.59572 11.0461L6.59184 11.0426L6.51487 10.9746L6.51345 10.9733C4.65953 9.34327 3.19644 8.0528 2.19769 6.84967C1.20995 5.65982 0.766357 4.65953 0.801998 3.61918C0.834945 2.71863 1.31258 1.84947 2.08131 1.34083L2.08175 1.34054C3.55097 0.367035 5.3945 0.807314 6.39898 1.94987L6.99981 2.63328L7.60063 1.94987C8.60673 0.805472 10.4494 0.362139 11.9162 1.33941L11.9183 1.34083C12.6872 1.84961 13.1649 2.7191 13.1976 3.61991L13.1977 3.62056C13.2362 4.65968 12.7937 5.65927 11.8044 6.85153C10.8047 8.05646 9.34033 9.3498 7.48647 10.9867C7.48595 10.9871 7.48543 10.9876 7.48492 10.9881L7.41777 11.0468L7.41777 11.0468Z" fill="#F15E38" stroke="#F15E38" stroke-width="1.6"/>
</svg>
