<svg width="24" height="24" viewBox="0 0 24 24" fill="none" xmlns="http://www.w3.org/2000/svg">
<path d="M14.6647 2.33002C14.8425 2.24111 15.0484 2.22645 15.2371 2.28927C15.4257 2.35209 15.5817 2.48724 15.6707 2.66502L17.8717 7.06702C19.2247 7.17102 20.0737 7.43703 20.6217 8.11403C21.0577 8.65303 21.1977 9.32302 21.1467 10.25H2.85271C2.80171 9.32302 2.94271 8.65303 3.37771 8.11403C3.92571 7.43603 4.77471 7.17102 6.12771 7.06702L8.32871 2.66502C8.41848 2.48866 8.57432 2.35492 8.76227 2.29295C8.95023 2.23099 9.15505 2.24582 9.33211 2.33422C9.50917 2.42262 9.64412 2.57742 9.70754 2.76488C9.77097 2.95235 9.75773 3.15728 9.67071 3.33502L7.83571 7.00502C8.31871 7.00002 8.84571 7.00002 9.42171 7.00002H14.5777C15.1537 7.00002 15.6807 7.00002 16.1637 7.00502L14.3287 3.33502C14.2399 3.15706 14.2254 2.9511 14.2884 2.76244C14.3514 2.57378 14.4868 2.41888 14.6647 2.33002Z" fill="#BDBDD5"/>
<path fill-rule="evenodd" clip-rule="evenodd" d="M3.55492 14.257C3.37046 13.4243 3.20043 12.5885 3.04492 11.75H20.9549C20.7993 12.5885 20.6293 13.4243 20.4449 14.257L20.0159 16.257C19.5289 18.53 19.2859 19.666 18.4609 20.333C17.6359 21 16.4739 21 14.1499 21H9.84992C7.52592 21 6.36392 21 5.53992 20.333C4.71392 19.666 4.46992 18.53 3.98392 16.257L3.55492 14.257ZM9.99992 13.25C9.80101 13.25 9.61024 13.329 9.46959 13.4697C9.32894 13.6103 9.24992 13.8011 9.24992 14C9.24992 14.1989 9.32894 14.3897 9.46959 14.5303C9.61024 14.671 9.80101 14.75 9.99992 14.75H13.9999C14.1988 14.75 14.3896 14.671 14.5303 14.5303C14.6709 14.3897 14.7499 14.1989 14.7499 14C14.7499 13.8011 14.6709 13.6103 14.5303 13.4697C14.3896 13.329 14.1988 13.25 13.9999 13.25H9.99992Z" fill="#BDBDD5"/>
</svg>
