<svg width="18" height="18" viewBox="0 0 18 18" fill="none" xmlns="http://www.w3.org/2000/svg">
<path d="M9 7.875C9.14918 7.875 9.29226 7.93426 9.39775 8.03975C9.50324 8.14524 9.5625 8.28832 9.5625 8.4375V11.8125C9.5625 11.9617 9.50324 12.1048 9.39775 12.2102C9.29226 12.3157 9.14918 12.375 9 12.375C8.85082 12.375 8.70774 12.3157 8.60225 12.2102C8.49676 12.1048 8.4375 11.9617 8.4375 11.8125V8.4375C8.4375 8.28832 8.49676 8.14524 8.60225 8.03975C8.70774 7.93426 8.85082 7.875 9 7.875ZM9 7.03125C9.1108 7.03125 9.22052 7.00943 9.32289 6.96702C9.42526 6.92462 9.51827 6.86247 9.59662 6.78412C9.67497 6.70577 9.73712 6.61276 9.77952 6.51039C9.82193 6.40802 9.84375 6.2983 9.84375 6.1875C9.84375 6.0767 9.82193 5.96698 9.77952 5.86461C9.73712 5.76224 9.67497 5.66923 9.59662 5.59088C9.51827 5.51253 9.42526 5.45038 9.32289 5.40798C9.22052 5.36557 9.1108 5.34375 9 5.34375C8.77652 5.34375 8.5622 5.43253 8.40417 5.59055C8.24615 5.74857 8.15737 5.9629 8.15737 6.18638C8.15737 6.40985 8.24615 6.62418 8.40417 6.7822C8.5622 6.94022 8.77652 7.029 9 7.029V7.03125ZM2.25 9C2.25 8.11358 2.42459 7.23583 2.76381 6.41689C3.10303 5.59794 3.60023 4.85382 4.22703 4.22703C4.85382 3.60023 5.59794 3.10303 6.41689 2.76381C7.23583 2.42459 8.11358 2.25 9 2.25C9.88642 2.25 10.7642 2.42459 11.5831 2.76381C12.4021 3.10303 13.1462 3.60023 13.773 4.22703C14.3998 4.85382 14.897 5.59794 15.2362 6.41689C15.5754 7.23583 15.75 8.11358 15.75 9C15.75 10.7902 15.0388 12.5071 13.773 13.773C12.5071 15.0388 10.7902 15.75 9 15.75C7.20979 15.75 5.4929 15.0388 4.22703 13.773C2.96116 12.5071 2.25 10.7902 2.25 9ZM9 3.375C7.50816 3.375 6.07742 3.96763 5.02252 5.02252C3.96763 6.07742 3.375 7.50816 3.375 9C3.375 10.4918 3.96763 11.9226 5.02252 12.9775C6.07742 14.0324 7.50816 14.625 9 14.625C10.4918 14.625 11.9226 14.0324 12.9775 12.9775C14.0324 11.9226 14.625 10.4918 14.625 9C14.625 7.50816 14.0324 6.07742 12.9775 5.02252C11.9226 3.96763 10.4918 3.375 9 3.375Z" fill="#F15E38"/>
</svg>
