<svg width="44" height="44" viewBox="0 0 44 44" fill="none" xmlns="http://www.w3.org/2000/svg">
<path d="M38.0412 22L40.0652 18.502C40.3085 18.0811 40.3746 17.5809 40.2491 17.1113C40.1237 16.6417 39.8168 16.2411 39.3961 15.9977L35.8944 13.9737V9.94034C35.8944 9.45411 35.7012 8.98779 35.3574 8.64397C35.0136 8.30016 34.5473 8.107 34.0611 8.107H30.0295L28.0074 4.60717C27.7632 4.18718 27.3634 3.88026 26.8945 3.75284C26.662 3.6898 26.4193 3.67354 26.1804 3.70502C25.9416 3.73649 25.7113 3.81506 25.503 3.93617L22.0014 5.96017L18.4997 3.93434C18.0786 3.69123 17.5782 3.62535 17.1086 3.75119C16.6389 3.87702 16.2385 4.18427 15.9954 4.60534L13.9714 8.107H9.93988C9.45365 8.107 8.98734 8.30016 8.64352 8.64397C8.2997 8.98779 8.10655 9.45411 8.10655 9.94034V13.9718L4.60488 15.9958C4.39594 16.116 4.21281 16.2763 4.066 16.4675C3.91919 16.6587 3.81161 16.877 3.74943 17.1098C3.68725 17.3427 3.67169 17.5856 3.70366 17.8245C3.73563 18.0634 3.81449 18.2937 3.93572 18.502L5.95972 22L3.93572 25.498C3.6937 25.9193 3.62803 26.4191 3.75304 26.8886C3.87805 27.358 4.18359 27.7591 4.60305 28.0042L8.10472 30.0282V34.0597C8.10472 34.5459 8.29787 35.0122 8.64169 35.356C8.9855 35.6998 9.45182 35.893 9.93805 35.893H13.9714L15.9954 39.3947C16.1577 39.6721 16.3894 39.9025 16.6678 40.0633C16.9462 40.224 17.2616 40.3095 17.583 40.3113C17.9021 40.3113 18.2192 40.227 18.5015 40.0638L21.9995 38.0398L25.5012 40.0638C25.9222 40.3066 26.4223 40.3725 26.8917 40.247C27.3612 40.1216 27.7618 39.8151 28.0055 39.3947L30.0277 35.893H34.0592C34.5454 35.893 35.0118 35.6998 35.3556 35.356C35.6994 35.0122 35.8926 34.5459 35.8926 34.0597V30.0282L39.3942 28.0042C39.6028 27.8836 39.7856 27.7232 39.9321 27.532C40.0786 27.3407 40.1861 27.1225 40.2482 26.8898C40.3103 26.657 40.326 26.4143 40.2943 26.1755C40.2626 25.9367 40.1841 25.7065 40.0634 25.498L38.0412 22ZM17.4162 12.815C18.1458 12.8152 18.8454 13.1053 19.3611 13.6214C19.8769 14.1374 20.1665 14.8372 20.1662 15.5668C20.166 16.2964 19.8759 16.996 19.3598 17.5118C18.8438 18.0275 18.144 18.3171 17.4144 18.3168C16.6848 18.3166 15.9852 18.0265 15.4695 17.5105C14.9537 16.9944 14.6641 16.2946 14.6644 15.565C14.6646 14.8354 14.9547 14.1358 15.4708 13.6201C15.9868 13.1044 16.6866 12.8148 17.4162 12.815ZM17.9662 30.415L15.0329 28.2168L26.0329 13.5502L28.9662 15.7483L17.9662 30.415ZM26.5829 31.1483C26.2216 31.1482 25.8639 31.0769 25.5302 30.9386C25.1965 30.8002 24.8933 30.5975 24.638 30.342C24.3826 30.0864 24.1801 29.7831 24.0419 29.4493C23.9038 29.1155 23.8328 28.7578 23.8329 28.3965C23.833 28.0352 23.9043 27.6776 24.0426 27.3438C24.181 27.0101 24.3837 26.7069 24.6393 26.4516C24.8948 26.1962 25.1981 25.9937 25.5319 25.8556C25.8657 25.7174 26.2235 25.6464 26.5847 25.6465C27.3143 25.6467 28.0139 25.9368 28.5296 26.4529C29.0454 26.9689 29.335 27.6687 29.3347 28.3983C29.3345 29.1279 29.0444 29.8275 28.5283 30.3433C28.0123 30.859 27.3125 31.1486 26.5829 31.1483Z" fill="#F15E38" fill-opacity="0.65"/>
</svg>
