<svg width="20" height="21" viewBox="0 0 20 21" fill="none" xmlns="http://www.w3.org/2000/svg">
<path d="M16 16.4384C14.89 16.4384 14 17.3527 14 18.4932C14 19.0381 14.2107 19.5608 14.5858 19.9461C14.9609 20.3315 15.4696 20.5479 16 20.5479C16.5304 20.5479 17.0391 20.3315 17.4142 19.9461C17.7893 19.5608 18 19.0381 18 18.4932C18 17.9482 17.7893 17.4255 17.4142 17.0402C17.0391 16.6548 16.5304 16.4384 16 16.4384ZM0 0V2.05479H2L5.6 9.85274L4.24 12.3699C4.09 12.6575 4 12.9966 4 13.3562C4 13.9011 4.21071 14.4238 4.58579 14.8091C4.96086 15.1945 5.46957 15.411 6 15.411H18V13.3562H6.42C6.3537 13.3562 6.29011 13.3291 6.24322 13.2809C6.19634 13.2328 6.17 13.1674 6.17 13.0993C6.17 13.0479 6.18 13.0068 6.2 12.976L7.1 11.3014H14.55C15.3 11.3014 15.96 10.8699 16.3 10.2432L19.88 3.59589C19.95 3.43151 20 3.25685 20 3.08219C20 2.80971 19.8946 2.54839 19.7071 2.35571C19.5196 2.16304 19.2652 2.05479 19 2.05479H4.21L3.27 0M6 16.4384C4.89 16.4384 4 17.3527 4 18.4932C4 19.0381 4.21071 19.5608 4.58579 19.9461C4.96086 20.3315 5.46957 20.5479 6 20.5479C6.53043 20.5479 7.03914 20.3315 7.41421 19.9461C7.78929 19.5608 8 19.0381 8 18.4932C8 17.9482 7.78929 17.4255 7.41421 17.0402C7.03914 16.6548 6.53043 16.4384 6 16.4384Z" fill="#F15E38"/>
</svg>
