<svg width="24" height="24" viewBox="0 0 24 24" fill="none" xmlns="http://www.w3.org/2000/svg">
<path fill-rule="evenodd" clip-rule="evenodd" d="M12 19.2C17.5896 19.2 22.2 16.6068 22.2 13.2C22.2 9.7932 17.5896 7.2 12 7.2C6.41039 7.2 1.79999 9.7932 1.79999 13.2C1.79999 16.6068 6.41039 19.2 12 19.2ZM12 8.4C17.0148 8.4 21 10.6416 21 13.2C21 15.7584 17.0148 18 12 18C6.98519 18 2.99999 15.7584 2.99999 13.2C2.99999 10.6416 6.98519 8.4 12 8.4Z" fill="#111111"/>
<path d="M11.4 4.2C11.4 4.04087 11.4632 3.88826 11.5757 3.77573C11.6882 3.66321 11.8408 3.6 12 3.6C12.1591 3.6 12.3117 3.66321 12.4242 3.77573C12.5368 3.88826 12.6 4.04087 12.6 4.2V7.8C12.6 7.95913 12.5368 8.11174 12.4242 8.22426C12.3117 8.33678 12.1591 8.4 12 8.4C11.8408 8.4 11.6882 8.33678 11.5757 8.22426C11.4632 8.11174 11.4 7.95913 11.4 7.8V4.2ZM16.212 4.6824C16.2477 4.531 16.3409 4.39941 16.4717 4.31536C16.6026 4.23131 16.7611 4.20139 16.9136 4.23189C17.0661 4.2624 17.2009 4.35096 17.2894 4.47888C17.3779 4.60681 17.4132 4.7641 17.388 4.9176L16.788 7.9176C16.7522 8.06899 16.6591 8.20059 16.5282 8.28464C16.3973 8.36868 16.2389 8.39861 16.0864 8.3681C15.9338 8.33759 15.7991 8.24904 15.7106 8.12111C15.6221 7.99319 15.5867 7.83589 15.612 7.6824L16.212 4.6824ZM7.78798 4.6824C7.75224 4.531 7.6591 4.39941 7.52821 4.31536C7.39731 4.23131 7.23889 4.20139 7.08636 4.23189C6.93382 4.2624 6.7991 4.35096 6.7106 4.47888C6.6221 4.60681 6.58674 4.7641 6.61198 4.9176L7.21198 7.9176C7.24771 8.06899 7.34085 8.20059 7.47175 8.28464C7.60264 8.36868 7.76106 8.39861 7.9136 8.3681C8.06613 8.33759 8.20086 8.24904 8.28936 8.12111C8.37786 7.99319 8.41322 7.83589 8.38798 7.6824L7.78798 4.6824ZM2.91478 6.2916C2.83298 6.15506 2.7003 6.05662 2.54592 6.01791C2.39154 5.9792 2.22811 6.00341 2.09158 6.0852C1.95504 6.16699 1.85659 6.29967 1.81789 6.45405C1.77918 6.60843 1.80338 6.77186 1.88518 6.9084L3.68518 9.9084C3.76697 10.0449 3.89965 10.1434 4.05403 10.1821C4.20841 10.2208 4.37184 10.1966 4.50838 10.1148C4.64491 10.033 4.74336 9.90032 4.78207 9.74594C4.82077 9.59156 4.79657 9.42813 4.71478 9.2916L2.91478 6.2916ZM21.0852 6.2916C21.1257 6.22399 21.1791 6.16503 21.2424 6.11807C21.3057 6.07111 21.3776 6.03707 21.454 6.01791C21.5305 5.99874 21.6099 5.99482 21.6879 6.00637C21.7659 6.01791 21.8408 6.0447 21.9084 6.0852C21.976 6.1257 22.0349 6.17912 22.0819 6.2424C22.1289 6.30569 22.1629 6.37761 22.1821 6.45405C22.2012 6.53049 22.2052 6.60996 22.1936 6.68792C22.1821 6.76587 22.1553 6.84079 22.1148 6.9084L20.3148 9.9084C20.2743 9.976 20.2209 10.035 20.1576 10.0819C20.0943 10.1289 20.0224 10.1629 19.9459 10.1821C19.8695 10.2013 19.79 10.2052 19.7121 10.1936C19.6341 10.1821 19.5592 10.1553 19.4916 10.1148C19.424 10.0743 19.365 10.0209 19.318 9.95759C19.2711 9.8943 19.2371 9.82239 19.2179 9.74594C19.1987 9.6695 19.1948 9.59004 19.2063 9.51208C19.2179 9.43412 19.2447 9.3592 19.2852 9.2916L21.0852 6.2916ZM15.6 12.6C15.6 13.5548 15.2207 14.4705 14.5456 15.1456C13.8704 15.8207 12.9548 16.2 12 16.2C11.0452 16.2 10.1295 15.8207 9.45439 15.1456C8.77926 14.4705 8.39998 13.5548 8.39998 12.6C8.39998 11.6452 8.77926 10.7295 9.45439 10.0544C10.1295 9.37928 11.0452 9 12 9C12.9548 9 13.8704 9.37928 14.5456 10.0544C15.2207 10.7295 15.6 11.6452 15.6 12.6Z" fill="#111111"/>
</svg>
