<svg width="22" height="22" viewBox="0 0 22 22" fill="none" xmlns="http://www.w3.org/2000/svg">
<path d="M8.76632 8.0025L9.23841 9.71025C9.68299 11.319 9.90482 12.1238 10.5584 12.4896C11.212 12.8563 12.0416 12.6399 13.7007 12.2091L15.4607 11.7508C17.1199 11.3199 17.9495 11.1045 18.3272 10.4711C18.7048 9.83675 18.483 9.03192 18.0375 7.42317L17.5663 5.71634C17.1217 4.10667 16.899 3.30184 16.2463 2.93609C15.5918 2.56942 14.7622 2.78575 13.1031 3.2175L11.3431 3.674C9.6839 4.10484 8.85432 4.32117 8.47757 4.9555C8.0999 5.58892 8.32174 6.39375 8.76632 8.0025Z" fill="#F15E38"/>
<path d="M2.08742 4.80975C2.11157 4.72269 2.15265 4.64125 2.2083 4.57007C2.26395 4.49889 2.33308 4.43939 2.41174 4.39495C2.49041 4.35051 2.57706 4.32201 2.66674 4.31108C2.75643 4.30015 2.84739 4.30701 2.93442 4.33125L4.49551 4.76392C4.90923 4.87628 5.28679 5.09392 5.59138 5.39562C5.89597 5.69732 6.1172 6.07278 6.23351 6.48542L8.20526 13.6226L8.35009 14.1231C8.93034 14.3403 9.42901 14.7464 9.74526 15.2854L10.0294 15.1974L18.1603 13.0845C18.2477 13.0618 18.3387 13.0564 18.4281 13.0689C18.5176 13.0813 18.6037 13.1112 18.6816 13.1569C18.7595 13.2026 18.8276 13.2632 18.882 13.3353C18.9365 13.4073 18.9763 13.4894 18.999 13.5768C19.0218 13.6641 19.0271 13.7552 19.0146 13.8446C19.0022 13.9341 18.9723 14.0202 18.9266 14.0981C18.8809 14.176 18.8203 14.2441 18.7482 14.2985C18.6762 14.353 18.5942 14.3928 18.5068 14.4155L10.4053 16.5202L10.1046 16.6137C10.0982 17.7778 9.29426 18.8421 8.07876 19.1583C6.62034 19.5378 5.12159 18.6982 4.73109 17.2847C4.34059 15.8703 5.20592 14.4164 6.66342 14.0378C6.73524 14.0193 6.8077 14.0034 6.88067 13.9902L4.90801 6.85117C4.8549 6.66776 4.75524 6.50121 4.6187 6.36773C4.48216 6.23424 4.31341 6.13837 4.12884 6.08942L2.56684 5.65584C2.4798 5.63178 2.39834 5.59081 2.32714 5.53526C2.25594 5.47972 2.19637 5.41069 2.15185 5.33211C2.10733 5.25354 2.07873 5.16697 2.06767 5.07734C2.05662 4.98772 2.06333 4.89679 2.08742 4.80975Z" fill="#F15E38"/>
</svg>
