<svg width="44" height="44" viewBox="0 0 44 44" fill="none" xmlns="http://www.w3.org/2000/svg">
<path d="M19.25 13.752H22V44.002H19.25V13.752ZM7.99219 5.24414C7.16146 6.07487 6.42383 6.97721 5.7793 7.95117C5.13477 8.92513 4.58333 9.95638 4.125 11.0449C3.66667 12.1335 3.33008 13.2435 3.11523 14.375C2.90039 15.5065 2.77865 16.6738 2.75 17.877C2.75 19.0514 2.86458 20.2116 3.09375 21.3574C3.32292 22.5033 3.66667 23.6204 4.125 24.709C4.58333 25.7975 5.1276 26.8216 5.75781 27.7812C6.38802 28.7409 7.13281 29.6504 7.99219 30.5098L6.03711 32.4648C4.08919 30.5026 2.59961 28.2754 1.56836 25.7832C0.537109 23.291 0.0143229 20.6556 0 17.877C0 15.1126 0.515625 12.4844 1.54688 9.99219C2.57812 7.5 4.07487 5.26562 6.03711 3.28906L7.99219 5.24414ZM35.2129 3.28906C37.1608 5.2513 38.6504 7.47852 39.6816 9.9707C40.7129 12.4629 41.2357 15.0983 41.25 17.877C41.25 20.6413 40.7344 23.2695 39.7031 25.7617C38.6719 28.2539 37.1751 30.4883 35.2129 32.4648L33.2578 30.5098C34.0885 29.679 34.8262 28.7767 35.4707 27.8027C36.1152 26.8288 36.6667 25.7975 37.125 24.709C37.5833 23.6204 37.9199 22.5104 38.1348 21.3789C38.3496 20.2474 38.4714 19.0801 38.5 17.877C38.5 16.7025 38.3854 15.5423 38.1562 14.3965C37.9271 13.2507 37.5833 12.1335 37.125 11.0449C36.6667 9.95638 36.1224 8.93229 35.4922 7.97266C34.862 7.01302 34.1172 6.10352 33.2578 5.24414L35.2129 3.28906ZM29.3691 9.13281C30.5293 10.293 31.4245 11.625 32.0547 13.1289C32.6849 14.6328 33 16.2155 33 17.877C33 19.5241 32.6849 21.0996 32.0547 22.6035C31.4245 24.1074 30.5293 25.4466 29.3691 26.6211L27.4355 24.6875C28.3379 23.7852 29.0254 22.7467 29.498 21.5723C29.9707 20.3978 30.2142 19.166 30.2285 17.877C30.2285 16.6022 29.9922 15.3776 29.5195 14.2031C29.0469 13.0286 28.3522 11.9831 27.4355 11.0664L29.3691 9.13281ZM13.8145 11.0664C12.9121 11.9688 12.2174 13.0072 11.7305 14.1816C11.2435 15.3561 11 16.5879 11 17.877C11 19.1517 11.2435 20.3763 11.7305 21.5508C12.2174 22.7253 12.9121 23.7708 13.8145 24.6875L11.8809 26.6211C10.7207 25.4609 9.82552 24.1289 9.19531 22.625C8.5651 21.1211 8.25 19.5384 8.25 17.877C8.25 16.2298 8.5651 14.6543 9.19531 13.1504C9.82552 11.6465 10.7207 10.3073 11.8809 9.13281L13.8145 11.0664Z" fill="#F15E38" fill-opacity="0.65"/>
</svg>
