<svg width="5" height="5" viewBox="0 0 5 5" fill="none" xmlns="http://www.w3.org/2000/svg">
<path d="M1.50649 0.012529C3.47427 -0.101457 4.68746 0.565297 4.94084 1.8909C5.30537 3.79782 3.57222 5.50964 1.35164 4.85953C1.17176 4.69579 1.09685 4.6643 0.999569 4.68604C0.999569 4.68604 1.01659 4.68462 1.03378 4.59799C-0.202487 3.46789 -0.12443 2.13115 0.219403 0.735876C0.219403 0.735876 0.230232 0.752093 0.309456 0.765161C0.420943 0.676168 0.453205 0.574104 0.485451 0.472041C0.485451 0.472041 0.491881 0.489008 0.571089 0.498847C0.682336 0.408916 0.714375 0.309144 0.746397 0.209372C0.746397 0.209372 0.75481 0.228137 0.82407 0.263778C1.09772 0.20379 1.3021 0.108158 1.50649 0.012529Z" fill="white"/>
</svg>
