<svg width="46" height="46" viewBox="0 0 46 46" fill="none" xmlns="http://www.w3.org/2000/svg">
<g clip-path="url(#clip0_179_2282)">
<path d="M36.5323 49.8333H39.714C41.324 49.8333 42.6465 48.5875 42.8382 47.0158L46.0007 15.4292H36.4173V7.66666H32.6415V15.4292H23.1157L23.6907 19.9142C26.9682 20.815 30.0348 22.4442 31.8748 24.2458C34.6348 26.9675 36.5323 29.785 36.5323 34.385V49.8333ZM3.83398 47.9167V46H32.6415V47.9167C32.6415 48.9517 31.779 49.8333 30.6673 49.8333H5.75065C4.69648 49.8333 3.83398 48.9517 3.83398 47.9167ZM32.6415 34.5C32.6415 19.1667 3.83398 19.1667 3.83398 34.5H32.6415ZM3.83398 38.3333H32.584V42.1667H3.83398V38.3333Z" fill="#F15E38"/>
</g>
<defs>
<clipPath id="clip0_179_2282">
<rect width="46" height="46" fill="white"/>
</clipPath>
</defs>
</svg>
