<svg width="24" height="24" viewBox="0 0 24 24" fill="none" xmlns="http://www.w3.org/2000/svg">
<path d="M3.6001 7.20001C3.6001 6.24523 3.97938 5.32955 4.65451 4.65442C5.32964 3.97929 6.24532 3.60001 7.2001 3.60001H16.8001C17.7549 3.60001 18.6706 3.97929 19.3457 4.65442C20.0208 5.32955 20.4001 6.24523 20.4001 7.20001V16.8C20.4001 17.7548 20.0208 18.6705 19.3457 19.3456C18.6706 20.0207 17.7549 20.4 16.8001 20.4H7.2001C6.24532 20.4 5.32964 20.0207 4.65451 19.3456C3.97938 18.6705 3.6001 17.7548 3.6001 16.8V7.20001ZM7.2001 4.80001C6.56358 4.80001 5.95313 5.05286 5.50304 5.50295C5.05295 5.95304 4.8001 6.56349 4.8001 7.20001V16.8C4.8001 17.4365 5.05295 18.047 5.50304 18.4971C5.95313 18.9472 6.56358 19.2 7.2001 19.2H16.8001C17.4366 19.2 18.0471 18.9472 18.4972 18.4971C18.9472 18.047 19.2001 17.4365 19.2001 16.8V7.20001C19.2001 6.56349 18.9472 5.95304 18.4972 5.50295C18.0471 5.05286 17.4366 4.80001 16.8001 4.80001H7.2001Z" fill="#111111"/>
</svg>
