<svg width="40" height="40" viewBox="0 0 40 40" fill="none" xmlns="http://www.w3.org/2000/svg">
<path d="M6.29736 6.09167C5.99569 6.69167 5.84736 7.435 5.55069 8.91833L4.55402 13.9017C4.41277 14.5811 4.41168 15.2823 4.55081 15.9622C4.68994 16.6421 4.96637 17.2864 5.36317 17.8558C5.75997 18.4251 6.2688 18.9075 6.85851 19.2734C7.44821 19.6392 8.10638 19.8809 8.79273 19.9836C9.47908 20.0863 10.1792 20.0478 10.8501 19.8705C11.5211 19.6932 12.1488 19.3808 12.6948 18.9525C13.2409 18.5242 13.6938 17.989 14.0258 17.3796C14.3578 16.7701 14.5619 16.0994 14.6257 15.4083L14.7424 14.2583C14.6779 14.9904 14.767 15.7278 15.004 16.4234C15.2409 17.1191 15.6205 17.7575 16.1185 18.298C16.6164 18.8384 17.2217 19.269 17.8957 19.562C18.5696 19.855 19.2973 20.0041 20.0321 19.9996C20.767 19.9952 21.4929 19.8374 22.1632 19.5363C22.8335 19.2351 23.4336 18.7974 23.925 18.2509C24.4164 17.7045 24.7883 17.0615 25.0169 16.3631C25.2454 15.6647 25.3257 14.9262 25.2524 14.195L25.3757 15.4083C25.4395 16.0994 25.6436 16.7701 25.9756 17.3796C26.3076 17.989 26.7605 18.5242 27.3065 18.9525C27.8526 19.3808 28.4803 19.6932 29.1513 19.8705C29.8222 20.0478 30.5223 20.0863 31.2087 19.9836C31.895 19.8809 32.5532 19.6392 33.1429 19.2734C33.7326 18.9075 34.2414 18.4251 34.6382 17.8558C35.035 17.2864 35.3115 16.6421 35.4506 15.9622C35.5897 15.2823 35.5886 14.5811 35.4474 13.9017L34.4507 8.91833C34.154 7.435 34.0057 6.69333 33.704 6.09167C33.3897 5.46506 32.9471 4.91156 32.405 4.46708C31.8629 4.02261 31.2334 3.69709 30.5574 3.51167C29.9074 3.33333 29.1507 3.33333 27.6374 3.33333H12.364C10.8507 3.33333 10.094 3.33333 9.44402 3.51167C8.76797 3.69709 8.13846 4.02261 7.59636 4.46708C7.05426 4.91156 6.61168 5.46506 6.29736 6.09167ZM30.4474 22.5C31.7501 22.5036 33.0317 22.17 34.1674 21.5317V23.3333C34.1674 29.6183 34.1674 32.7617 32.214 34.7133C30.6424 36.2867 28.3007 36.5917 24.1674 36.6517V30.8333C24.1674 29.275 24.1674 28.4967 23.8324 27.9167C23.6129 27.5366 23.2974 27.2211 22.9174 27.0017C22.3374 26.6667 21.559 26.6667 20.0007 26.6667C18.4424 26.6667 17.664 26.6667 17.084 27.0017C16.704 27.2211 16.3884 27.5366 16.169 27.9167C15.834 28.4967 15.834 29.275 15.834 30.8333V36.6517C11.7007 36.5917 9.35902 36.285 7.78736 34.7133C5.83402 32.7617 5.83402 29.6183 5.83402 23.3333V21.5317C6.96971 22.17 8.25125 22.5036 9.55402 22.5C11.4801 22.5014 13.3345 21.7696 14.7407 20.4533C16.1738 21.7734 18.0522 22.5043 20.0007 22.5C21.9486 22.5037 23.8262 21.7729 25.259 20.4533C26.6664 21.7708 28.5229 22.5026 30.4507 22.5H30.4474Z" fill="#F15E38"/>
</svg>
