<svg width="18" height="18" viewBox="0 0 18 18" fill="none" xmlns="http://www.w3.org/2000/svg">
<path d="M9.00028 1.44644C10.6626 1.44644 12.2569 2.1068 13.4323 3.28226C14.6078 4.45771 15.2681 6.05196 15.2681 7.7143C15.2681 10.3629 13.4071 13.2493 9.73314 16.4044C9.52885 16.5799 9.26839 16.6763 8.99908 16.6761C8.72976 16.6758 8.46947 16.579 8.26549 16.4032L8.02249 16.1923C4.51121 13.1194 2.73242 10.3037 2.73242 7.7143C2.73242 6.05196 3.39278 4.45771 4.56824 3.28226C5.74369 2.1068 7.33794 1.44644 9.00028 1.44644ZM9.00028 2.41073C7.59369 2.41073 6.2447 2.9695 5.25009 3.96411C4.25548 4.95872 3.69671 6.30771 3.69671 7.7143C3.69671 9.96559 5.33471 12.5595 8.65571 15.4652L8.89549 15.6729C8.92465 15.6979 8.96183 15.7117 9.00028 15.7117C9.03873 15.7117 9.07591 15.6979 9.10507 15.6729C12.5868 12.6823 14.3039 10.0189 14.3039 7.7143C14.3039 7.01783 14.1667 6.32817 13.9001 5.68471C13.6336 5.04125 13.243 4.45659 12.7505 3.96411C12.258 3.47163 11.6733 3.08097 11.0299 2.81444C10.3864 2.54791 9.69676 2.41073 9.00028 2.41073ZM9.00028 5.30359C9.63964 5.30359 10.2528 5.55757 10.7049 6.00967C11.157 6.46176 11.411 7.07494 11.411 7.7143C11.411 8.35366 11.157 8.96684 10.7049 9.41893C10.2528 9.87103 9.63964 10.125 9.00028 10.125C8.36092 10.125 7.74774 9.87103 7.29565 9.41893C6.84355 8.96684 6.58957 8.35366 6.58957 7.7143C6.58957 7.07494 6.84355 6.46176 7.29565 6.00967C7.74774 5.55757 8.36092 5.30359 9.00028 5.30359ZM9.00028 6.26787C8.61666 6.26787 8.24876 6.42026 7.9775 6.69152C7.70624 6.96278 7.55385 7.33068 7.55385 7.7143C7.55385 8.09792 7.70624 8.46582 7.9775 8.73708C8.24876 9.00834 8.61666 9.16073 9.00028 9.16073C9.3839 9.16073 9.7518 9.00834 10.0231 8.73708C10.2943 8.46582 10.4467 8.09792 10.4467 7.7143C10.4467 7.33068 10.2943 6.96278 10.0231 6.69152C9.7518 6.42026 9.3839 6.26787 9.00028 6.26787Z" fill="#F15E38"/>
</svg>
