<svg width="44" height="44" viewBox="0 0 44 44" fill="none" xmlns="http://www.w3.org/2000/svg">
<path d="M32.082 8.25C28.507 8.25 24.657 8.98333 21.9987 11C19.3404 8.98333 15.4904 8.25 11.9154 8.25C9.25703 8.25 6.4337 8.65333 4.0687 9.69833C2.73036 10.3033 1.83203 11.605 1.83203 13.09V33.77C1.83203 36.1533 4.0687 37.9133 6.3787 37.3267C8.17536 36.8683 10.082 36.6667 11.9154 36.6667C14.7754 36.6667 17.8187 37.1433 20.2754 38.3533C21.3754 38.9033 22.622 38.9033 23.7037 38.3533C26.1604 37.125 29.2037 36.6667 32.0637 36.6667C33.897 36.6667 35.8037 36.8683 37.6004 37.3267C39.9104 37.9317 42.147 36.1717 42.147 33.77V13.09C42.147 11.605 41.2487 10.3033 39.9104 9.69833C37.5637 8.65333 34.7404 8.25 32.082 8.25ZM38.4987 31.5883C38.4987 32.7433 37.4354 33.5867 36.2987 33.385C34.9237 33.1283 33.4937 33.0183 32.082 33.0183C28.9654 33.0183 24.4737 34.21 21.9987 35.7683V14.6667C24.4737 13.1083 28.9654 11.9167 32.082 11.9167C33.7687 11.9167 35.437 12.0817 37.032 12.43C37.8754 12.6133 38.4987 13.365 38.4987 14.2267V31.5883Z" fill="#F15E38" fill-opacity="0.65"/>
<path d="M25.6282 20.185C25.0415 20.185 24.5098 19.8184 24.3265 19.2317C24.0882 18.5167 24.4915 17.7284 25.2065 17.5084C28.0298 16.5917 31.6782 16.2984 35.0332 16.6834C35.7848 16.775 36.3348 17.4534 36.2432 18.205C36.1515 18.9567 35.4732 19.5067 34.7215 19.415C31.7515 19.0667 28.5065 19.3417 26.0498 20.13C25.9032 20.1484 25.7565 20.185 25.6282 20.185ZM25.6282 25.0617C25.0415 25.0617 24.5098 24.695 24.3265 24.1084C24.0882 23.3934 24.4915 22.605 25.2065 22.385C28.0115 21.4684 31.6782 21.175 35.0332 21.56C35.7848 21.6517 36.3348 22.33 36.2432 23.0817C36.1515 23.8334 35.4732 24.3834 34.7215 24.2917C31.7515 23.9434 28.5065 24.2184 26.0498 25.0067C25.912 25.0418 25.7704 25.0603 25.6282 25.0617ZM25.6282 29.9384C25.0415 29.9384 24.5098 29.5717 24.3265 28.985C24.0882 28.27 24.4915 27.4817 25.2065 27.2617C28.0115 26.345 31.6782 26.0517 35.0332 26.4367C35.7848 26.5284 36.3348 27.2067 36.2432 27.9584C36.1515 28.71 35.4732 29.2417 34.7215 29.1684C31.7515 28.82 28.5065 29.095 26.0498 29.8834C25.912 29.9185 25.7704 29.937 25.6282 29.9384Z" fill="#F15E38" fill-opacity="0.65"/>
</svg>
