<svg width="45" height="45" viewBox="0 0 45 45" fill="none" xmlns="http://www.w3.org/2000/svg">
<path d="M31.3034 5.9976H25.0475C23.9171 6.0012 23.9594 7.686 25.0475 7.6761H31.3034V8.5374H25.0475C23.9234 8.5275 23.9648 10.2114 25.0475 10.2159H31.3034V11.0961H25.0475C23.9234 11.0961 23.9648 12.7791 25.0475 12.7746H31.3034V13.6134H25.0475C23.9468 13.6215 23.9648 15.3063 25.0475 15.3117H31.3034V16.1523H25.0475C23.9468 16.1487 23.9423 17.8308 25.0475 17.8308H31.3034V18.6696H25.0475C23.9468 18.6732 23.9423 20.3571 25.0475 20.349H31.3034V21.2085H25.0475C23.9468 21.1986 23.9423 22.8807 25.0475 22.887H31.3034V23.724H25.0475C23.9468 23.7231 23.9648 25.4088 25.0475 25.4034H31.3034V41.7465C31.307 44.2368 35.0897 44.1918 35.1005 41.7465V3.501C35.0897 2.3634 34.1555 0.925202 32.6183 0.920702H25.0475C23.9171 0.921602 23.9594 2.6064 25.0475 2.5992L31.3034 2.6199V3.4569H25.0475C23.9189 3.4515 23.9612 5.1354 25.0475 5.1363H31.3034V5.9976ZM24.6173 34.9722C24.6137 32.0652 21.6005 28.9386 18.0005 30.9636V19.845L15.6722 1.5075C15.6236 1.0224 15.2123 0.908102 14.936 0.900002C14.6507 0.908102 14.0792 1.0224 14.0171 1.5075L11.7005 19.845V30.9636C8.10049 28.9386 5.18449 32.085 5.18359 34.9497C5.18449 37.4985 7.14649 39.5919 9.80149 39.5856C12.4763 39.5919 14.4005 37.2456 14.4005 34.9497V23.4H15.3005V34.9497C15.3005 37.5201 17.2913 39.4227 19.5035 39.5433C19.4666 40.9527 19.9265 42.9633 20.7923 43.7607C21.8075 44.6967 23.0162 43.4997 22.5203 42.525C22.0415 41.6178 21.5717 41.0805 21.9533 39.0996C23.5481 38.3616 24.6137 36.8082 24.6173 34.9722ZM9.90409 37.2591C9.29721 37.2591 8.71519 37.018 8.28606 36.5889C7.85693 36.1598 7.61584 35.5777 7.61584 34.9709C7.61584 34.364 7.85693 33.7819 8.28606 33.3528C8.71519 32.9237 9.29721 32.6826 9.90409 32.6826C11.1515 32.6898 12.1676 33.7131 12.1766 34.9722C12.174 35.5755 11.9342 36.1535 11.509 36.5814C11.0838 37.0093 10.5073 37.2527 9.90409 37.2591ZM17.618 34.9722C17.6201 34.3684 17.8598 33.7897 18.2852 33.3612C18.7106 32.9328 19.2876 32.689 19.8914 32.6826C20.4954 32.6881 21.0728 32.9316 21.4983 33.3603C21.9238 33.789 22.163 34.3682 22.1639 34.9722C22.163 35.576 21.9237 36.1549 21.4981 36.5832C21.0726 37.0114 20.4951 37.2544 19.8914 37.2591C19.2878 37.2537 18.7107 37.0105 18.2851 36.5825C17.8596 36.1544 17.6199 35.5758 17.618 34.9722Z" fill="#F15E38"/>
</svg>
