<svg width="13" height="13" viewBox="0 0 13 13" fill="none" xmlns="http://www.w3.org/2000/svg">
<path d="M0.0264322 5.22481C0.0805982 4.25906 0.517656 3.41685 1.09066 2.70715C2.15554 1.38825 3.48079 0.388231 5.21674 0.0988175C6.18836 -0.0631715 7.16076 -0.035362 8.1109 0.252084C9.57709 0.695653 10.8634 1.43221 11.732 2.72802C13.2136 4.93847 13.4871 7.24826 12.0699 9.70034C11.1378 11.3132 9.78809 12.3268 7.96136 12.8302C7.07229 12.8522 6.26407 12.9156 5.45583 12.979C2.95531 12.5214 1.251 11.0798 0.260644 8.6703C0.180054 7.48262 0.0900268 6.3922 0 5.30179C0 5.30179 0.00363972 5.31321 0.0114416 5.3026C0.0192358 5.29198 0.0524179 5.26385 0.0524179 5.26385L0.0264322 5.22481ZM1.15699 4.34902C1.14133 4.44246 1.12566 4.53589 1.11893 4.63176C1.11893 4.63176 1.10972 4.63028 1.0299 4.68208C1.0198 4.77128 1.0097 4.86048 0.99619 4.94185C0.99619 4.94185 1.00455 4.94014 0.92574 4.97675C0.900185 5.21661 0.874631 5.45648 0.869213 5.80912C0.791906 7.60911 1.19956 9.16326 2.52399 10.5527C4.51016 12.6364 8.2568 12.6485 10.2622 10.5999C11.5839 9.24966 12.1864 7.63091 11.9193 5.69383C11.7515 4.47688 11.2894 3.4217 10.4493 2.57868C9.19265 1.31763 7.631 0.82377 5.84291 0.968435C4.02809 1.11526 2.68872 1.98486 1.63374 3.49295C1.5469 3.68923 1.46006 3.8855 1.36814 4.07444C1.36814 4.07444 1.37694 4.07595 1.28743 4.08425C1.27441 4.1661 1.26137 4.24795 1.24435 4.32229C1.24435 4.32229 1.25285 4.322 1.15699 4.34902Z" fill="black"/>
</svg>
