<svg width="96" height="48" viewBox="0 0 96 48" fill="none" xmlns="http://www.w3.org/2000/svg">
<path d="M4.44144 35.0249C4.42652 34.9715 4.4116 34.9182 4.34355 34.757C4.23808 34.6187 4.19741 34.5769 4.16845 34.5237C4.16845 34.5237 4.17292 34.5182 4.15404 34.45C3.94167 34.1591 3.74817 33.9364 3.55468 33.7136C3.55468 33.7136 3.48047 33.6837 3.44876 33.6297C3.41707 33.5757 3.35531 33.5041 3.35531 33.5041C3.34181 33.4566 3.32832 33.4092 3.29175 33.2117C2.79132 32.281 2.31394 31.5001 1.83658 30.7192C1.38125 29.1687 0.830517 27.6387 0.490063 26.0634C-0.265985 22.565 -0.136905 19.0748 0.805806 15.6093C1.40226 13.4167 2.1944 11.3118 3.51836 9.45854C5.75753 6.32419 8.40468 3.62749 11.957 1.95783C12.1436 1.87014 12.295 1.70776 12.5827 1.59065C12.8981 1.49622 13.0938 1.39129 13.2894 1.28636C13.2894 1.28636 13.2904 1.30065 13.3588 1.3301C13.6 1.26293 13.7727 1.16632 13.9455 1.06971C13.9455 1.06971 13.9424 1.08443 14.0215 1.10723C15.6444 0.776362 15.6437 0.776366 15.651 2.41153C15.6568 3.7014 15.6724 4.99128 15.669 6.28112C15.6661 7.37989 15.8554 8.53804 14.8152 9.3507C14.8152 9.3507 14.8114 9.33646 14.7411 9.31007C14.5019 9.45086 14.3329 9.61804 14.1639 9.78522C14.1639 9.78522 14.1604 9.77082 14.0904 9.74875C13.8507 9.89075 13.681 10.0548 13.5114 10.2189C13.5114 10.2189 13.5092 10.2042 13.4451 10.1995C13.352 10.2753 13.323 10.3559 13.2939 10.4366C13.2939 10.4366 13.2924 10.4218 13.2245 10.4105C13.1308 10.484 13.105 10.5688 13.0792 10.6535C13.0792 10.6535 13.0756 10.6391 13.0063 10.6235C12.9123 10.6956 12.8877 10.7831 12.8631 10.8707C12.8631 10.8707 12.8578 10.856 12.7902 10.8225C12.3369 11.2494 11.9512 11.7099 11.5654 12.1704C11.5654 12.1704 11.5551 12.1575 11.485 12.1357C11.3911 12.206 11.3672 12.298 11.3434 12.3901C11.3434 12.3901 11.339 12.3757 11.2716 12.3606C11.1775 12.4328 11.1507 12.52 11.1239 12.6072C11.1239 12.6072 11.1216 12.5927 11.0535 12.5757C10.3806 13.5874 9.77573 14.6162 9.17089 15.6451C9.17089 15.6451 9.16747 15.6299 9.10026 15.6519C9.00043 15.822 8.96781 15.97 8.93519 16.1181C8.93752 16.164 8.93984 16.21 8.87308 16.3236C8.78911 16.497 8.77423 16.6027 8.75934 16.7083C8.53268 18.5317 8.06247 20.3643 8.13097 22.1765C8.26604 25.7497 9.38693 28.9932 12.0046 31.6381C13.5843 33.2342 15.3027 34.5904 17.3916 35.357C19.528 36.1411 21.8103 36.2533 24.0421 35.9513C27.254 35.5165 29.845 33.833 32.0547 31.5036C33.9853 29.4685 35.1368 27.0539 35.6497 24.3241C36.4102 20.2768 35.3282 16.652 33.1633 13.2341C31.2684 10.2424 28.3588 8.78933 25.1255 7.50322C25.0549 5.07137 25.0549 2.7911 25.0549 0.412129C25.6466 0.506154 26.098 0.577884 26.5426 0.651394C26.5357 0.653172 26.5439 0.641572 26.5562 0.725638C27.0662 0.89884 27.5638 0.987974 28.0564 1.08026C28.0515 1.08342 28.0599 1.07456 28.0678 1.15387C28.5765 1.40011 29.0774 1.56704 29.575 1.7354C29.5716 1.73682 29.5745 1.73006 29.5805 1.81019C30.1652 2.12571 30.7437 2.36109 31.3154 2.59948C31.3085 2.60249 31.3162 2.58953 31.3221 2.66686C31.5426 2.84072 31.7573 2.93724 31.966 3.03626C31.9601 3.03876 31.963 3.02629 31.991 3.10284C32.1503 3.92444 32.6836 3.96556 33.2715 3.90182C33.2643 3.90468 33.2673 3.88963 33.2865 3.94388C33.3687 4.03828 33.4317 4.07842 33.4872 4.1197C33.4797 4.12083 33.4897 4.10936 33.4929 4.18676C33.9296 4.57658 34.3631 4.889 34.7899 5.20476C34.7832 5.2081 34.7869 5.19361 34.8053 5.24759C34.8863 5.34106 34.9488 5.38055 35.0055 5.42334C34.9995 5.42665 35.0066 5.41503 35.0242 5.46844C35.1037 5.56014 35.1656 5.59842 35.221 5.6365C35.2145 5.63628 35.225 5.6285 35.2329 5.70934C35.6648 6.24497 35.8384 6.00036 35.8583 5.53938C35.8878 4.85722 35.8705 4.17296 35.8705 3.4896C35.8702 1.30491 35.8699 1.32239 37.9973 1.29875C39.1733 1.28568 40.3484 1.20245 41.5912 1.13775C41.7489 1.13354 41.8393 1.14243 41.9342 1.22612C41.9873 1.70381 42.036 2.1067 42.0825 2.49186C42.4344 2.08551 42.763 1.706 43.1188 1.38934C43.1273 1.54021 43.1086 1.62824 43.0537 1.7267C43.0418 1.81598 43.0661 1.89483 43.1164 2.07036C43.1504 13.2739 43.1586 24.3808 43.1628 35.4877C43.1629 35.6655 43.1126 35.8433 43.0209 36.0654C42.9929 37.0307 43.0297 37.9517 43.0859 38.9395C43.0899 39.0968 43.0745 39.1873 43.009 39.3111C42.996 39.6218 43.0331 39.8991 43.1078 40.2309C43.1724 40.3201 43.1994 40.355 43.2221 40.4461C43.2267 40.539 43.2356 40.5756 43.2842 40.6626C43.515 40.6918 43.7062 40.6707 43.9986 40.6383C46.5611 40.636 49.0224 40.6449 51.4978 40.7107C51.6564 40.7288 51.8008 40.69 52.0011 40.6267C52.0914 40.5809 52.126 40.5595 52.2304 40.5534C52.3941 40.5859 52.4878 40.6032 52.6016 40.6544C52.6819 40.6661 52.7421 40.6439 52.8538 40.5984C52.9974 40.5098 53.0894 40.4446 53.2527 40.3316C53.2896 39.8073 53.2551 39.3308 53.2054 38.7541C53.1669 35.1063 53.1435 31.5588 53.1599 27.9309C53.214 27.2378 53.2408 26.6252 53.241 26.0126C53.2438 17.901 53.2429 9.78941 53.2429 1.66959C53.4729 1.57757 53.6358 1.45867 53.8017 1.45425C55.7442 1.40249 57.6875 1.34288 59.6294 1.36893C59.8166 1.37144 60.1077 1.91694 60.1575 2.24014C60.287 3.07953 60.3087 3.93551 60.3809 4.85363C60.3751 5.01341 60.3618 5.10443 60.29 5.20935C60.2774 5.36678 60.3234 5.51031 60.4072 5.70217C60.5608 5.78014 60.6766 5.80978 60.8717 5.83775C61.0546 5.62386 61.1583 5.41163 61.2644 5.20456C61.2669 5.20972 61.2561 5.20583 61.3375 5.20095C61.7268 4.90506 62.0347 4.61406 62.3469 4.33027C62.3513 4.33749 62.3353 4.33202 62.4159 4.33379C62.7355 4.11552 62.9744 3.89548 63.2169 3.68191C63.2204 3.68838 63.2069 3.6826 63.2855 3.68486C63.5316 3.53839 63.6991 3.38965 63.8687 3.24773C63.8709 3.25454 63.8572 3.25039 63.9412 3.25183C64.4057 2.96126 64.7863 2.66926 65.171 2.38165C65.1753 2.38605 65.1652 2.37996 65.2498 2.38531C65.7132 2.16917 66.0921 1.94769 66.4741 1.73112C66.4772 1.73602 66.4672 1.7302 66.5325 1.73018C66.7077 1.67022 66.8176 1.61028 66.9981 1.51264C68.1677 1.12796 69.2707 0.792821 70.3617 0.422238C70.541 0.361317 70.6675 0.144673 70.8184 0C73.4279 0 76.0375 1.50188e-08 78.6933 0.0803681C79.8668 0.469086 81.0578 0.638057 82.1066 1.1178C83.7633 1.87555 85.3246 2.8418 86.9664 3.77726C87.2594 3.92853 87.5123 4.02233 87.7586 4.1196C87.7519 4.12307 87.7574 4.10901 87.7354 4.18531C88.1647 4.57472 88.6161 4.88783 89.0609 5.20481C89.0544 5.20867 89.0598 5.19454 89.0413 5.27073C89.1105 5.37166 89.1983 5.3964 89.2791 5.42337C89.2721 5.42561 89.2764 5.41155 89.2595 5.48594C89.3297 5.58669 89.4167 5.61306 89.4966 5.64097C89.4893 5.64251 89.492 5.62803 89.4816 5.70084C89.5545 5.80141 89.6377 5.82917 89.7138 5.85846C89.7066 5.85998 89.7119 5.84632 89.6851 5.92161C90.1681 6.55718 90.6779 7.11746 91.2369 7.72914C93.533 10.3581 94.905 13.3541 95.5781 16.6922C95.6132 16.866 95.8548 16.9982 96.0002 17.1497C96.0002 18.2399 96.0002 19.3302 95.9365 20.5839C95.9152 21.5743 95.9577 22.4012 96.0002 23.2281C96.0002 24.1018 96.0002 24.9754 96.0002 25.9496C95.8559 26.166 95.6064 26.2635 95.5826 26.4003C94.6374 31.8287 91.6393 35.9643 87.3891 39.2629C84.6474 41.3909 81.4903 42.6853 78.063 43.1843C73.2486 43.8853 68.6523 43.2237 64.3464 40.5404C64.2104 40.3941 64.1511 40.3666 64.074 40.3776C64.074 40.3776 64.0887 40.3778 64.0925 40.3061C63.8717 40.14 63.6473 40.0456 63.4228 39.9512C63.4228 39.9512 63.4364 39.9455 63.4442 39.8693C63.1215 39.6219 62.7911 39.4507 62.4607 39.2796C62.4607 39.2796 62.4673 39.2819 62.4798 39.2074C62.455 39.039 62.4179 38.9451 62.4252 38.8107C62.246 38.6351 62.0222 38.4999 61.7115 38.3595C61.5731 38.381 61.5215 38.4077 61.47 38.4344C61.47 38.4344 61.4826 38.425 61.4949 38.358C61.4217 38.2651 61.3363 38.2393 61.2509 38.2135C61.2509 38.2135 61.265 38.2086 61.2755 38.1433C61.2018 38.0502 61.1177 38.0225 61.0336 37.9947C61.0336 37.9947 61.0488 37.9909 61.0883 37.9453C61.1344 37.8548 61.1409 37.8099 61.1639 37.7311C61.1273 37.6595 61.0741 37.6218 61.0293 37.5696C61.0375 37.5553 61.0274 37.5868 61.0028 37.5141C60.2561 37.177 60.2055 37.2128 60.1811 38.1356C60.0987 41.2495 60.0233 44.3635 59.8765 47.4911C59.7148 47.4979 59.6219 47.4911 59.4843 47.4414C59.2529 47.4275 59.0663 47.4565 58.7818 47.4985C58.0264 47.5042 57.3688 47.497 56.6891 47.4608C56.607 47.4506 56.5472 47.4694 56.3972 47.4979C56.0055 47.4988 55.704 47.4899 55.3391 47.4338C54.8105 47.4107 54.3454 47.435 53.8747 47.4813C53.8691 47.5034 53.8868 47.5453 53.7881 47.5303C52.9592 47.4955 52.229 47.4757 51.4762 47.4289C51.379 47.3703 51.3208 47.3905 51.1786 47.4792C49.4068 47.4867 47.7353 47.4775 45.9919 47.4201C45.1044 47.4044 44.2887 47.4369 43.3856 47.4794C43.0648 47.508 42.8313 47.5265 42.5431 47.5228C42.4503 47.4899 42.4123 47.4794 42.3074 47.4232C41.7098 47.4113 41.1791 47.4451 40.5534 47.49C40.0127 47.4957 39.5668 47.4902 39.0688 47.4404C38.7629 47.4319 38.5093 47.4677 38.1581 47.5151C37.4058 47.5178 36.7513 47.509 36.0929 47.4347C35.9842 47.2033 35.8795 47.0373 35.7535 46.7734C35.7286 44.6469 35.725 42.6186 35.7693 40.5165C35.7687 39.4788 35.7203 38.5148 35.6606 37.5468C35.6495 37.543 35.6583 37.5211 35.614 37.4662C35.3827 37.535 35.1956 37.6588 35.004 37.7777C34.9993 37.7728 35.0089 37.7823 34.9361 37.7834C34.6978 37.9402 34.5322 38.0959 34.3694 38.2934C34.3721 38.3352 34.3763 38.4187 34.3763 38.4187C31.9719 40.9188 28.994 42.32 25.445 42.9737C23.2209 43.0467 21.1828 43.1294 19.1448 43.2121C16.1622 42.9804 13.3756 42.1213 10.6972 40.5371C10.5574 40.4288 10.5092 40.396 10.455 40.372C10.455 40.372 10.472 40.3762 10.4722 40.3094C9.38074 39.4929 8.28908 38.7431 7.19743 37.9933C7.19743 37.9933 7.21166 37.9899 7.20259 37.9277C6.99277 37.7029 6.79202 37.5402 6.59127 37.3776C6.59127 37.3776 6.53411 37.3722 6.51334 37.2857C6.37009 37.1049 6.24765 37.0106 6.1252 36.9162C6.1252 36.9162 6.11908 36.9125 6.0832 36.8696C5.99621 36.7778 5.94519 36.7288 5.89425 36.6798C5.89425 36.6798 5.9134 36.6833 5.90045 36.6268C5.81201 36.464 5.73649 36.3576 5.66098 36.2512C5.66098 36.2512 5.69458 36.254 5.6565 36.2087C5.3678 35.9227 5.11718 35.682 4.86656 35.4413C4.86656 35.4413 4.79472 35.4217 4.77166 35.3363C4.64621 35.1756 4.54383 35.1002 4.44144 35.0249ZM86.6689 14.9749C86.6689 14.9749 86.6694 14.9949 86.6388 14.8628C86.5198 14.7057 86.4008 14.5486 86.235 14.2465C86.2246 14.1968 86.2142 14.1471 86.1805 13.9816C86.0679 13.8932 85.9552 13.8049 85.7954 13.5751C85.7795 13.528 85.7636 13.4809 85.7244 13.3295C85.62 13.2532 85.5156 13.177 85.356 12.9508C84.2124 11.2398 82.5892 10.0878 80.7957 8.95672C80.721 8.93979 80.6463 8.92287 80.5861 8.90258C80.5861 8.90258 80.5855 8.91742 80.5862 8.76326C78.8463 7.68444 76.96 7.20719 74.7162 7.38147C73.8849 7.3813 73.0262 7.24368 72.227 7.40364C67.6377 8.32224 64.1325 10.7746 61.9244 14.9557C60.6107 17.4433 60.2893 20.1166 60.3763 22.8998C60.4446 25.0843 61.0381 27.0803 62.1547 28.9113C64.5614 32.8577 67.8986 35.5008 72.6395 35.9807C75.6866 36.2892 78.5647 35.7088 81.2083 34.0912C84.0416 32.3575 86.0083 29.9279 87.2906 26.7935C87.5178 26.0931 87.8359 25.4068 87.9475 24.6884C88.068 23.9127 87.9954 23.107 87.9733 22.1198C87.9858 21.165 87.9983 20.2102 88.091 19.1428C87.6827 17.899 87.2744 16.6552 86.8809 15.4133C86.8809 15.4133 86.8767 15.4276 86.9295 15.2838C86.8359 15.1805 86.7424 15.0772 86.6689 14.9749Z" fill="#EDEDED"/>
</svg>
