<svg width="24" height="24" viewBox="0 0 24 24" fill="none" xmlns="http://www.w3.org/2000/svg">
<path d="M21.1412 6.85714H8.56976M6.28404 6.85714H2.85547M21.1412 18.2857H8.56976M6.28404 18.2857H2.85547M15.4269 12.5714H2.85547M21.1412 12.5714H17.7126M7.4269 4.57143C7.73 4.57143 8.02069 4.69183 8.23502 4.90616C8.44935 5.12049 8.56976 5.41118 8.56976 5.71428V8C8.56976 8.3031 8.44935 8.59379 8.23502 8.80812C8.02069 9.02245 7.73 9.14286 7.4269 9.14286C7.12379 9.14286 6.8331 9.02245 6.61878 8.80812C6.40445 8.59379 6.28404 8.3031 6.28404 8V5.71428C6.28404 5.41118 6.40445 5.12049 6.61878 4.90616C6.8331 4.69183 7.12379 4.57143 7.4269 4.57143ZM7.4269 16C7.73 16 8.02069 16.1204 8.23502 16.3347C8.44935 16.5491 8.56976 16.8398 8.56976 17.1429V19.4286C8.56976 19.7317 8.44935 20.0224 8.23502 20.2367C8.02069 20.451 7.73 20.5714 7.4269 20.5714C7.12379 20.5714 6.8331 20.451 6.61878 20.2367C6.40445 20.0224 6.28404 19.7317 6.28404 19.4286V17.1429C6.28404 16.8398 6.40445 16.5491 6.61878 16.3347C6.8331 16.1204 7.12379 16 7.4269 16ZM16.5698 10.2857C16.8729 10.2857 17.1636 10.4061 17.3779 10.6204C17.5922 10.8348 17.7126 11.1255 17.7126 11.4286V13.7143C17.7126 14.0174 17.5922 14.3081 17.3779 14.5224C17.1636 14.7367 16.8729 14.8571 16.5698 14.8571C16.2667 14.8571 15.976 14.7367 15.7616 14.5224C15.5473 14.3081 15.4269 14.0174 15.4269 13.7143V11.4286C15.4269 11.1255 15.5473 10.8348 15.7616 10.6204C15.976 10.4061 16.2667 10.2857 16.5698 10.2857Z" stroke="black" stroke-linecap="round" stroke-linejoin="round"/>
</svg>
