<svg width="18" height="18" viewBox="0 0 18 18" fill="none" xmlns="http://www.w3.org/2000/svg">
<path d="M9 17.9991C13.9706 17.9991 18 13.9697 18 9C18 4.02939 13.9706 0 9 0C4.02939 0 0 4.02939 0 9C0 13.9697 4.02939 17.9991 9 17.9991ZM9 16.6494C7.9856 16.6649 6.97823 16.4786 6.03653 16.1011C5.09483 15.7237 4.23761 15.1627 3.51475 14.4509C2.7919 13.739 2.21785 12.8905 1.82602 11.9547C1.43419 11.0189 1.2324 10.0145 1.2324 9C1.2324 7.98548 1.43419 6.98109 1.82602 6.04529C2.21785 5.10949 2.7919 4.26097 3.51475 3.54912C4.23761 2.83726 5.09483 2.2763 6.03653 1.89886C6.97823 1.52143 7.9856 1.33507 9 1.35063C11.0145 1.37248 12.939 2.18806 14.3558 3.62031C15.7726 5.05255 16.5673 6.98584 16.5673 9.00045C16.5673 11.0151 15.7726 12.9483 14.3558 14.3806C12.939 15.8128 11.0145 16.6275 9 16.6494Z" fill="#111111"/>
</svg>
