<svg width="44" height="44" viewBox="0 0 44 44" fill="none" xmlns="http://www.w3.org/2000/svg">
<path d="M22.0004 16.3166V27.1333L26.4004 30.5249L24.7504 24.9333L28.8754 21.9999H23.7421L22.0004 16.3166ZM22.0004 31.7166L15.2171 36.8958C14.881 37.1708 14.5143 37.3009 14.1171 37.2863C13.7198 37.2716 13.3685 37.1567 13.0629 36.9416C12.7573 36.7277 12.5208 36.4374 12.3534 36.0708C12.186 35.7041 12.178 35.3069 12.3296 34.8791L14.9421 26.3999L8.29623 21.6791C7.92957 21.4347 7.7004 21.1138 7.60873 20.7166C7.51707 20.3194 7.53234 19.9527 7.65457 19.6166C7.77679 19.2805 7.99068 18.9823 8.29623 18.7219C8.60179 18.4616 8.96846 18.3321 9.39623 18.3333H17.6004L20.2587 9.53328C20.4115 9.1055 20.6486 8.77672 20.9701 8.54695C21.2915 8.31717 21.635 8.20289 22.0004 8.20411C22.3671 8.20411 22.7111 8.319 23.0326 8.54878C23.354 8.77856 23.5905 9.10672 23.7421 9.53328L26.4004 18.3333H34.6046C35.0323 18.3333 35.399 18.4634 35.7046 18.7238C36.0101 18.9841 36.224 19.2817 36.3462 19.6166C36.4685 19.9527 36.4837 20.3194 36.3921 20.7166C36.3004 21.1138 36.0712 21.4347 35.7046 21.6791L29.0587 26.3999L31.6712 34.8791C31.824 35.3069 31.8167 35.7041 31.6492 36.0708C31.4818 36.4374 31.2447 36.7277 30.9379 36.9416C30.6323 37.1555 30.281 37.2704 29.8837 37.2863C29.4865 37.3022 29.1198 37.172 28.7837 36.8958L22.0004 31.7166Z" fill="#BDBDD5"/>
</svg>
