<svg width="24" height="24" viewBox="0 0 24 24" fill="none" xmlns="http://www.w3.org/2000/svg">
<path d="M15.24 22.2666H15.11C10.67 22.2666 8.53002 20.5166 8.16002 16.5966C8.12002 16.1866 8.42002 15.8166 8.84002 15.7766C9.24002 15.7366 9.62002 16.0466 9.66002 16.4566C9.95002 19.5966 11.43 20.7666 15.12 20.7666H15.25C19.32 20.7666 20.76 19.3266 20.76 15.2566V8.73656C20.76 4.66656 19.32 3.22656 15.25 3.22656H15.12C11.41 3.22656 9.93002 4.41656 9.66002 7.61656C9.61002 8.02656 9.26002 8.33656 8.84002 8.29656C8.42002 8.26656 8.12001 7.89656 8.15001 7.48656C8.49001 3.50656 10.64 1.72656 15.11 1.72656H15.24C20.15 1.72656 22.25 3.82656 22.25 8.73656V15.2566C22.25 20.1666 20.15 22.2666 15.24 22.2666Z" fill="#F15E38"/>
<path d="M15 12.75H3.62C3.21 12.75 2.87 12.41 2.87 12C2.87 11.59 3.21 11.25 3.62 11.25H15C15.41 11.25 15.75 11.59 15.75 12C15.75 12.41 15.41 12.75 15 12.75Z" fill="#F15E38"/>
<path d="M5.84994 16.1038C5.65994 16.1038 5.46994 16.0338 5.31994 15.8838L1.96994 12.5338C1.67994 12.2438 1.67994 11.7638 1.96994 11.4738L5.31994 8.12375C5.60994 7.83375 6.08994 7.83375 6.37994 8.12375C6.66994 8.41375 6.66994 8.89375 6.37994 9.18375L3.55994 12.0038L6.37994 14.8238C6.66994 15.1137 6.66994 15.5938 6.37994 15.8838C6.23994 16.0338 6.03994 16.1038 5.84994 16.1038Z" fill="#F15E38"/>
</svg>
