<svg width="21" height="21" viewBox="0 0 21 21" fill="none" xmlns="http://www.w3.org/2000/svg">
<path d="M13.1247 19.9064H7.87467C3.12342 19.9064 1.09342 17.8764 1.09342 13.1252V7.87517C1.09342 3.12392 3.12342 1.09392 7.87467 1.09392H13.1247C17.8759 1.09392 19.9059 3.12392 19.9059 7.87517V13.1252C19.9059 17.8764 17.8759 19.9064 13.1247 19.9064ZM7.87467 2.40642C3.84092 2.40642 2.40592 3.84142 2.40592 7.87517V13.1252C2.40592 17.1589 3.84092 18.5939 7.87467 18.5939H13.1247C17.1584 18.5939 18.5934 17.1589 18.5934 13.1252V7.87517C18.5934 3.84142 17.1584 2.40642 13.1247 2.40642H7.87467Z" fill="#808080"/>
</svg>
