<svg width="31" height="23" viewBox="0 0 31 23" fill="none" xmlns="http://www.w3.org/2000/svg">
<path d="M3.95763 9.34905C3.95763 9.34905 3.95367 9.40029 3.90157 9.43694C3.83584 9.9297 3.82222 10.3858 3.81447 10.8963C3.81944 11.9 3.81582 12.8493 3.81812 13.7986C3.82533 16.7808 3.83476 19.763 3.84333 22.7452C3.84333 22.7452 3.84287 22.7369 3.79365 22.7215C2.76993 22.6998 1.79542 22.6936 0.805006 22.6491C0.538495 22.571 0.287899 22.5311 0.027623 22.4545C0.0085506 22.3683 -0.00084193 22.3188 5.92191e-05 22.2154C0.011915 15.3373 0.0135704 8.51306 0.014094 1.6888C0.0141015 1.59238 -8.97717e-05 1.49596 0.00610867 1.37371C0.0269525 1.32968 0.0340334 1.31149 0.0799494 1.27646C0.210845 0.792044 0.478333 0.655767 0.957941 0.686983C1.52636 0.72398 2.10254 0.641823 2.71447 0.605746C2.80584 0.604968 2.85811 0.609753 2.94103 0.640188C3.15666 0.682587 3.34162 0.699337 3.54336 0.76673C3.55355 1.47355 3.54697 2.12972 3.51195 2.79779C3.52625 2.88293 3.569 2.95616 3.63893 3.02685C3.66612 3.02432 3.71879 3.00985 3.73542 3.0323C3.77489 2.99738 3.79774 2.94002 3.82555 2.85248C3.83735 2.78214 3.84417 2.74198 3.88572 2.68326C5.00428 1.40778 6.31482 0.537524 7.97976 0.252968C8.1641 0.221462 8.33081 0.0868133 8.5057 1.29062e-07C8.55752 1.24689e-08 8.60934 -4.03319e-09 8.67494 0.0471908C8.84539 0.140894 8.99966 0.215249 9.15914 0.228956C9.75638 0.280286 10.3573 0.292664 10.9532 0.354368C12.6207 0.527019 13.9739 1.28312 15.0094 2.6007C15.3208 2.99697 15.6151 3.40671 15.9103 3.801C16.1254 3.49465 16.32 3.16674 16.5633 2.88008C17.4702 1.81146 18.5354 0.980054 19.9112 0.568652C20.8889 0.276298 21.8713 0.177155 22.8827 0.221357C23.0226 0.227473 23.1694 0.0776382 23.313 1.11231e-07C23.4005 -5.36242e-09 23.4879 0 23.6191 0C23.9094 0.115716 24.1463 0.299378 24.4042 0.336212C26.1899 0.591273 27.6934 1.35761 28.8999 2.79822C29.0603 3.00871 29.2066 3.13997 29.3528 3.27124C29.3528 3.27124 29.3694 3.32305 29.3772 3.38587C29.4524 3.50605 29.5196 3.56342 29.5869 3.62078C29.5869 3.62078 29.6039 3.66698 29.6087 3.73559C30.061 4.87982 30.6565 5.90554 30.7178 7.11295C30.7206 7.16704 30.8997 7.21218 30.9967 7.26148C30.9967 7.26148 31.0097 7.27498 30.984 7.33068C30.955 7.49042 30.9516 7.59447 30.9287 7.74097C30.9046 12.4511 30.9025 17.1188 30.89 21.7864C30.8892 22.0894 30.8079 22.3921 30.7276 22.7023C30.6421 22.705 30.5929 22.7003 30.5247 22.6749C30.4393 22.6669 30.3731 22.6795 30.2528 22.6991C29.2686 22.6975 28.3385 22.6891 27.4 22.6483C27.2922 22.5341 27.1929 22.4523 27.0853 22.3176C27.0767 18.0687 27.0765 13.8726 27.1015 9.64332C27.1007 9.39942 27.0748 9.1887 27.0422 8.93909C26.995 8.8096 26.9546 8.719 26.9141 8.62839C26.8797 8.27792 26.8453 7.92744 26.8124 7.47813C26.552 6.60688 26.2902 5.83448 26.0412 5.10019C25.8073 5.06986 25.6051 5.04365 25.4029 5.01743C25.4029 5.01743 25.4107 5.01464 25.4066 4.97937C25.3249 4.89075 25.2472 4.83739 25.1696 4.78404C25.1696 4.78404 25.1774 4.78146 25.1731 4.74368C25.1 4.61757 25.0481 4.50411 24.9598 4.44472C23.7927 3.65949 22.497 3.59775 21.1675 3.82058C20.9345 3.85963 20.7278 4.056 20.509 4.17971C20.509 4.17971 20.4652 4.19677 20.4152 4.1691C20.2212 4.15964 20.0681 4.15229 19.9347 4.20005C18.7156 4.63654 18.2021 5.66001 17.8441 6.78741C17.7661 7.03328 17.8353 7.32593 17.8367 7.59703C17.7955 7.90578 17.7543 8.21454 17.6672 8.59659C17.5757 9.47232 17.5302 10.2747 17.4757 11.1312C17.4622 14.9912 17.4575 18.7973 17.41 22.6221C17.1972 22.6625 17.0274 22.7013 16.8572 22.7034C15.7908 22.7166 14.7243 22.7217 13.6392 22.6779C13.6127 22.3946 13.599 22.1629 13.5978 21.9311C13.5779 17.8849 13.5595 13.8387 13.5635 9.75872C13.5367 9.3666 13.503 9.00521 13.4327 8.65107C13.3776 8.37311 13.2772 8.10412 13.1969 7.83114C12.8779 7.05447 12.5944 6.26025 12.2234 5.50926C12.0616 5.18181 11.7205 4.943 11.4091 4.6323C11.3301 4.58843 11.3104 4.56864 11.2982 4.54128C11.2982 4.54128 11.3087 4.54565 11.2972 4.51136C11.2114 4.46284 11.137 4.44859 11.0626 4.43434C11.0626 4.43434 11.0701 4.43174 11.0724 4.39352C10.3427 4.1663 9.61614 3.95062 8.87591 3.80359C8.63478 3.75569 8.35808 3.8869 8.09764 3.93619C5.86844 4.32895 4.96637 5.32808 4.31272 7.60701C4.21429 7.95018 4.15176 8.30365 4.02383 8.70877C3.96924 8.9598 3.96344 9.15442 3.95763 9.34905Z" fill="#F15E38"/>
</svg>
