<svg width="23" height="23" viewBox="0 0 23 23" fill="none" xmlns="http://www.w3.org/2000/svg">
<path d="M0.046765 9.24396C0.142598 7.53531 0.91586 6.04525 1.92964 4.78961C3.81367 2.45615 6.15837 0.686875 9.22967 0.174832C10.9487 -0.111766 12.6691 -0.0625639 14.3501 0.445998C16.9442 1.23078 19.22 2.53392 20.7567 4.82653C23.3781 8.73736 23.862 12.8239 21.3547 17.1622C19.7054 20.0159 17.3175 21.8092 14.0856 22.6998C12.5126 22.7387 11.0827 22.8509 9.65269 22.963C5.22867 22.1534 2.21332 19.6029 0.461143 15.3399C0.318559 13.2386 0.159279 11.3094 0 9.38015C0 9.38015 0.00643956 9.40036 0.0202429 9.38158C0.0340327 9.3628 0.09274 9.31303 0.09274 9.31303L0.046765 9.24396ZM2.047 7.69447C2.01929 7.85978 1.99157 8.0251 1.97966 8.1947C1.97966 8.1947 1.96337 8.19208 1.82215 8.28374C1.80427 8.44155 1.7864 8.59936 1.7625 8.74332C1.7625 8.74332 1.7773 8.74031 1.63786 8.80508C1.59265 9.22946 1.54743 9.65384 1.53785 10.2777C1.40107 13.4624 2.12231 16.212 4.46555 18.6703C7.97956 22.3569 14.6083 22.3782 18.1562 18.7538C20.4948 16.3649 21.5606 13.5009 21.0882 10.0738C20.7913 7.92068 19.9737 6.05381 18.4873 4.56231C16.264 2.33121 13.5011 1.45745 10.3375 1.7134C7.12667 1.97317 4.757 3.5117 2.89048 6.17988C2.73684 6.52714 2.5832 6.8744 2.42057 7.20868C2.42057 7.20868 2.43614 7.21134 2.27777 7.22604C2.25473 7.37085 2.23168 7.51566 2.20155 7.64718C2.20155 7.64718 2.2166 7.64666 2.047 7.69447Z" fill="white"/>
</svg>
