<svg width="52" height="26" viewBox="0 0 52 26" fill="none" xmlns="http://www.w3.org/2000/svg">
<path d="M2.40578 18.9718C2.39769 18.9429 2.38961 18.914 2.35275 18.8267C2.29562 18.7518 2.2736 18.7291 2.25791 18.7003C2.25791 18.7003 2.26033 18.6973 2.2501 18.6604C2.13507 18.5028 2.03025 18.3822 1.92545 18.2615C1.92545 18.2615 1.88525 18.2453 1.86808 18.2161C1.85091 18.1868 1.81746 18.1481 1.81746 18.1481C1.81014 18.1223 1.80284 18.0966 1.78303 17.9897C1.51196 17.4855 1.25338 17.0625 0.994811 16.6396C0.748174 15.7997 0.449863 14.971 0.26545 14.1176C-0.144075 12.2227 -0.0741569 10.3322 0.436478 8.45504C0.759557 7.26739 1.18863 6.12722 1.90578 5.12337C3.11866 3.4256 4.55253 1.96489 6.47669 1.06049C6.57775 1.01299 6.6598 0.925037 6.81561 0.861601C6.98649 0.81045 7.09245 0.753614 7.1984 0.696779C7.1984 0.696779 7.19893 0.704519 7.236 0.720469C7.36663 0.684088 7.46021 0.631757 7.55379 0.579426C7.55379 0.579426 7.55214 0.587397 7.59494 0.599749C8.47405 0.420529 8.47368 0.420531 8.47763 1.30625C8.48076 2.00492 8.48921 2.70361 8.48736 3.40227C8.48579 3.99744 8.58831 4.62477 8.02488 5.06496C8.02488 5.06496 8.02283 5.05725 7.98477 5.04295C7.85519 5.11921 7.76365 5.20977 7.67213 5.30032C7.67213 5.30032 7.67019 5.29252 7.63226 5.28057C7.50245 5.35748 7.41055 5.44636 7.31867 5.53523C7.31867 5.53523 7.31747 5.52728 7.28276 5.5247C7.23233 5.56579 7.2166 5.60946 7.20086 5.65313C7.20086 5.65313 7.20002 5.64511 7.16325 5.63902C7.11251 5.67884 7.09855 5.72474 7.08458 5.77065C7.08458 5.77065 7.08262 5.76284 7.04504 5.75441C6.99415 5.79342 6.98082 5.84087 6.9675 5.88831C6.9675 5.88831 6.96465 5.88032 6.92803 5.86216C6.68248 6.09342 6.47354 6.34285 6.26459 6.59228C6.26459 6.59228 6.25902 6.58529 6.22106 6.57348C6.17018 6.61155 6.15725 6.66142 6.14433 6.71129C6.14433 6.71129 6.14197 6.70352 6.10546 6.69534C6.05445 6.73441 6.03995 6.78167 6.02545 6.82892C6.02545 6.82892 6.02421 6.82103 5.98732 6.81181C5.62281 7.35986 5.29518 7.91713 4.96756 8.47439C4.96756 8.47439 4.96571 8.46616 4.9293 8.4781C4.87523 8.57022 4.85756 8.65041 4.83989 8.7306C4.84115 8.75549 4.84241 8.78038 4.80624 8.84195C4.76076 8.93587 4.7527 8.9931 4.74464 9.05033C4.62186 10.038 4.36716 11.0306 4.40427 12.0123C4.47743 13.9477 5.08458 15.7046 6.50247 17.1373C7.35813 18.0018 8.28893 18.7364 9.42045 19.1517C10.5777 19.5764 11.8139 19.6372 13.0228 19.4736C14.7626 19.2381 16.166 18.3262 17.3629 17.0645C18.4087 15.9621 19.0324 14.6542 19.3102 13.1756C19.7221 10.9833 19.1361 9.01983 17.9634 7.16845C16.937 5.54797 15.361 4.76088 13.6096 4.06424C13.5714 2.74699 13.5714 1.51184 13.5714 0.223236C13.8919 0.274166 14.1364 0.31302 14.3772 0.352838C14.3735 0.353801 14.3779 0.347518 14.3846 0.393054C14.6608 0.486871 14.9304 0.535152 15.1972 0.585142C15.1945 0.58685 15.1991 0.582054 15.2034 0.62501C15.4789 0.75839 15.7503 0.848814 16.0198 0.940006C16.0179 0.940774 16.0195 0.937115 16.0228 0.98052C16.3395 1.15142 16.6528 1.27892 16.9625 1.40805C16.9587 1.40968 16.9629 1.40266 16.9661 1.44455C17.0855 1.53872 17.2018 1.591 17.3149 1.64464C17.3117 1.646 17.3133 1.63924 17.3284 1.6807C17.4147 2.12574 17.7036 2.14801 18.022 2.11348C18.0182 2.11503 18.0198 2.10688 18.0301 2.13627C18.0747 2.1874 18.1088 2.20914 18.1389 2.2315C18.1348 2.23211 18.1402 2.2259 18.142 2.26783C18.3785 2.47898 18.6133 2.64821 18.8445 2.81924C18.8409 2.82105 18.8429 2.8132 18.8529 2.84244C18.8967 2.89307 18.9306 2.91446 18.9613 2.93764C18.9581 2.93943 18.9619 2.93314 18.9714 2.96207C19.0145 3.01174 19.048 3.03248 19.078 3.0531C19.0745 3.05298 19.0802 3.04877 19.0844 3.09256C19.3184 3.38269 19.4124 3.25019 19.4232 3.00049C19.4392 2.63099 19.4299 2.26035 19.4298 1.8902C19.4297 0.706826 19.4295 0.716295 20.5819 0.703487C21.2188 0.696407 21.8554 0.651327 22.5285 0.616281C22.6139 0.614 22.6629 0.618814 22.7143 0.664146C22.7431 0.922896 22.7695 1.14113 22.7947 1.34976C22.9853 1.12965 23.1633 0.924083 23.356 0.752557C23.3606 0.834282 23.3504 0.881963 23.3207 0.935297C23.3143 0.983656 23.3274 1.02636 23.3547 1.12144C23.3731 7.19004 23.3776 13.2063 23.3798 19.2225C23.3799 19.3188 23.3526 19.4151 23.303 19.5354C23.2878 20.0583 23.3077 20.5571 23.3382 21.0922C23.3404 21.1774 23.332 21.2264 23.2965 21.2935C23.2894 21.4618 23.3095 21.612 23.35 21.7917C23.385 21.84 23.3996 21.8589 23.4119 21.9083C23.4144 21.9586 23.4193 21.9784 23.4456 22.0255C23.5706 22.0414 23.6742 22.0299 23.8325 22.0124C25.2206 22.0111 26.5538 22.016 27.8946 22.0516C27.9805 22.0614 28.0588 22.0404 28.1672 22.0061C28.2162 21.9813 28.2349 21.9697 28.2915 21.9664C28.3801 21.984 28.4309 21.9934 28.4925 22.0211C28.536 22.0274 28.5686 22.0154 28.6291 21.9908C28.7069 21.9428 28.7567 21.9075 28.8452 21.8462C28.8652 21.5623 28.8465 21.3042 28.8195 20.9918C28.7987 19.0159 28.786 17.0943 28.7949 15.1292C28.8242 14.7538 28.8388 14.422 28.8389 14.0901C28.8404 9.69635 28.8399 5.30259 28.8399 0.90436C28.9645 0.854518 29.0527 0.790111 29.1426 0.787716C30.1947 0.759682 31.2474 0.727393 32.2992 0.741505C32.4006 0.742865 32.5583 1.03834 32.5853 1.21341C32.6554 1.66808 32.6672 2.13173 32.7063 2.62905C32.7031 2.71559 32.696 2.76489 32.6571 2.82173C32.6502 2.907 32.6751 2.98475 32.7205 3.08867C32.8037 3.13091 32.8664 3.14696 32.9721 3.16211C33.0712 3.04625 33.1273 2.93129 33.1848 2.81913C33.1862 2.82193 33.1804 2.81982 33.2245 2.81718C33.4353 2.65691 33.6021 2.49928 33.7712 2.34556C33.7736 2.34947 33.7649 2.34651 33.8086 2.34747C33.9817 2.22924 34.1111 2.11005 34.2425 1.99437C34.2444 1.99787 34.237 1.99474 34.2796 1.99597C34.4129 1.91662 34.5036 1.83606 34.5955 1.75919C34.5967 1.76288 34.5893 1.76063 34.6348 1.7614C34.8864 1.60401 35.0925 1.44585 35.3009 1.29006C35.3032 1.29244 35.2978 1.28914 35.3436 1.29204C35.5946 1.17497 35.7999 1.055 36.0068 0.937688C36.0084 0.940344 36.003 0.937193 36.0384 0.937182C36.1333 0.904704 36.1928 0.872236 36.2906 0.819345C36.9241 0.610978 37.5216 0.429444 38.1125 0.228712C38.2097 0.195713 38.2782 0.0783646 38.3599 0C39.7734 0 41.1869 8.13517e-09 42.6255 0.0435327C43.2611 0.254088 43.9062 0.345614 44.4744 0.605473C45.3717 1.01592 46.2175 1.5393 47.1067 2.04601C47.2654 2.12795 47.4025 2.17876 47.5358 2.23145C47.5322 2.23333 47.5352 2.22571 47.5233 2.26704C47.7558 2.47797 48.0003 2.64757 48.2413 2.81927C48.2377 2.82136 48.2407 2.8137 48.2306 2.85497C48.2681 2.90964 48.3157 2.92305 48.3595 2.93766C48.3557 2.93887 48.358 2.93125 48.3488 2.97155C48.3868 3.02612 48.434 3.04041 48.4772 3.05552C48.4733 3.05636 48.4748 3.04851 48.4692 3.08795C48.5086 3.14243 48.5537 3.15746 48.5949 3.17333C48.591 3.17415 48.5939 3.16675 48.5794 3.20754C48.841 3.5518 49.1172 3.85529 49.4199 4.18661C50.6636 5.61063 51.4068 7.23346 51.7714 9.0416C51.7904 9.13575 51.9213 9.20733 52.0001 9.28942C52.0001 9.87995 52.0001 10.4705 51.9655 11.1496C51.954 11.686 51.977 12.134 52.0001 12.5819C52.0001 13.0551 52.0001 13.5283 52.0001 14.056C51.9219 14.1732 51.7867 14.226 51.7738 14.3001C51.2619 17.2405 49.6379 19.4806 47.3357 21.2674C45.8506 22.42 44.1405 23.1212 42.2841 23.3915C39.6763 23.7712 37.1866 23.4128 34.8542 21.9594C34.7806 21.8801 34.7484 21.8652 34.7067 21.8712C34.7067 21.8712 34.7147 21.8713 34.7167 21.8324C34.5972 21.7425 34.4756 21.6914 34.3539 21.6402C34.3539 21.6402 34.3613 21.6371 34.3656 21.5958C34.1908 21.4618 34.0118 21.3691 33.8328 21.2764C33.8328 21.2764 33.8364 21.2777 33.8432 21.2373C33.8298 21.1461 33.8096 21.0952 33.8136 21.0225C33.7165 20.9273 33.5953 20.8541 33.427 20.778C33.352 20.7897 33.3241 20.8041 33.2962 20.8186C33.2962 20.8186 33.3031 20.8135 33.3097 20.7772C33.2701 20.7269 33.2238 20.7129 33.1775 20.6989C33.1775 20.6989 33.1852 20.6963 33.1908 20.6609C33.151 20.6105 33.1054 20.5955 33.0598 20.5805C33.0598 20.5805 33.0681 20.5784 33.0895 20.5537C33.1144 20.5047 33.118 20.4803 33.1304 20.4377C33.1106 20.3989 33.0818 20.3784 33.0575 20.3502C33.0619 20.3424 33.0565 20.3595 33.0431 20.3201C32.6387 20.1375 32.6113 20.1569 32.598 20.6568C32.5534 22.3434 32.5126 24.0302 32.4331 25.7243C32.3455 25.728 32.2952 25.7243 32.2206 25.6974C32.0953 25.6898 31.9942 25.7056 31.8401 25.7283C31.4309 25.7314 31.0747 25.7275 30.7065 25.7079C30.6621 25.7024 30.6297 25.7125 30.5484 25.728C30.3363 25.7285 30.173 25.7237 29.9753 25.6933C29.689 25.6808 29.437 25.6939 29.1821 25.719C29.1791 25.731 29.1887 25.7537 29.1352 25.7455C28.6862 25.7267 28.2907 25.716 27.8829 25.6906C27.8303 25.6589 27.7987 25.6698 27.7217 25.7179C26.762 25.7219 25.8566 25.7169 24.9122 25.6858C24.4315 25.6773 23.9897 25.695 23.5005 25.718C23.3267 25.7335 23.2003 25.7435 23.0441 25.7415C22.9939 25.7237 22.9733 25.718 22.9165 25.6875C22.5928 25.6811 22.3053 25.6994 21.9664 25.7237C21.6735 25.7268 21.432 25.7238 21.1622 25.6968C20.9966 25.6923 20.8592 25.7117 20.6689 25.7373C20.2615 25.7388 19.9069 25.734 19.5503 25.6938C19.4914 25.5684 19.4347 25.4785 19.3665 25.3355C19.353 24.1837 19.351 23.085 19.375 21.9464C19.3747 21.3843 19.3484 20.8621 19.3161 20.3378C19.3101 20.3358 19.3149 20.3239 19.2909 20.2942C19.1656 20.3314 19.0643 20.3985 18.9605 20.4629C18.958 20.4602 18.9631 20.4654 18.9237 20.466C18.7946 20.5509 18.7049 20.6353 18.6167 20.7423C18.6182 20.7649 18.6205 20.8101 18.6205 20.8101C17.3181 22.1643 15.7051 22.9233 13.7827 23.2774C12.578 23.3169 11.474 23.3617 10.3701 23.4065C8.75451 23.281 7.24513 22.8157 5.79428 21.9576C5.7186 21.8989 5.69249 21.8811 5.6631 21.8681C5.6631 21.8681 5.67232 21.8704 5.67243 21.8343C5.08123 21.392 4.48991 20.9858 3.8986 20.5797C3.8986 20.5797 3.90631 20.5778 3.9014 20.5442C3.78775 20.4224 3.67901 20.3343 3.57027 20.2462C3.57027 20.2462 3.53931 20.2433 3.52805 20.1964C3.45046 20.0985 3.38414 20.0474 3.31781 19.9963C3.31781 19.9963 3.3145 19.9943 3.29506 19.971C3.24794 19.9213 3.2203 19.8948 3.19272 19.8682C3.19272 19.8682 3.20309 19.8701 3.19608 19.8395C3.14817 19.7513 3.10726 19.6937 3.06636 19.636C3.06636 19.636 3.08456 19.6376 3.06393 19.613C2.90755 19.4581 2.7718 19.3277 2.63605 19.1973C2.63605 19.1973 2.59714 19.1867 2.58465 19.1405C2.5167 19.0534 2.46124 19.0126 2.40578 18.9718ZM46.9456 8.11137C46.9456 8.11137 46.9459 8.12225 46.9293 8.05065C46.8648 7.96557 46.8004 7.88049 46.7106 7.71687C46.7049 7.68994 46.6993 7.66302 46.6811 7.57333C46.62 7.52549 46.559 7.47764 46.4725 7.35317C46.4639 7.32767 46.4552 7.30216 46.434 7.22014C46.3774 7.17882 46.3209 7.13751 46.2345 7.01499C45.615 6.08824 44.7358 5.46424 43.7643 4.85155C43.7238 4.84238 43.6834 4.83321 43.6507 4.82223C43.6507 4.82223 43.6504 4.83026 43.6508 4.74676C42.7084 4.1624 41.6866 3.90389 40.4712 3.99829C40.021 3.9982 39.5558 3.92365 39.1229 4.0103C36.637 4.50787 34.7384 5.83621 33.5423 8.10101C32.8308 9.44843 32.6567 10.8965 32.7038 12.404C32.7408 13.5873 33.0622 14.6685 33.6671 15.6603C34.9707 17.7979 36.7784 19.2296 39.3463 19.4895C40.9969 19.6566 42.5558 19.3423 43.9878 18.466C45.5225 17.5269 46.5878 16.2109 47.2824 14.5131C47.4054 14.1338 47.5777 13.762 47.6382 13.3729C47.7034 12.9527 47.6641 12.5163 47.6522 11.9816C47.6589 11.4644 47.6657 10.9472 47.7159 10.369C47.4947 9.69528 47.2736 9.02156 47.0604 8.34884C47.0604 8.34884 47.0581 8.35659 47.0868 8.2787C47.0361 8.22276 46.9854 8.16682 46.9456 8.11137Z" fill="#F15E38"/>
</svg>
