<svg width="44" height="44" viewBox="0 0 44 44" fill="none" xmlns="http://www.w3.org/2000/svg">
<path d="M22.0014 16.3166V27.1333L26.4014 30.5249L24.7514 24.9333L28.8764 21.9999H23.743L22.0014 16.3166ZM22.0014 31.7166L15.218 36.8958C14.8819 37.1708 14.5153 37.3009 14.118 37.2863C13.7208 37.2716 13.3694 37.1567 13.0639 36.9416C12.7583 36.7277 12.5218 36.4374 12.3544 36.0708C12.1869 35.7041 12.179 35.3069 12.3305 34.8791L14.943 26.3999L8.29721 21.6791C7.93054 21.4347 7.70138 21.1138 7.60971 20.7166C7.51804 20.3194 7.53332 19.9527 7.65554 19.6166C7.77777 19.2805 7.99165 18.9823 8.29721 18.7219C8.60277 18.4616 8.96943 18.3321 9.39721 18.3333H17.6014L20.2597 9.53328C20.4125 9.1055 20.6496 8.77672 20.971 8.54695C21.2925 8.31717 21.6359 8.20289 22.0014 8.20411C22.368 8.20411 22.7121 8.319 23.0335 8.54878C23.355 8.77856 23.5915 9.10672 23.743 9.53328L26.4014 18.3333H34.6055C35.0333 18.3333 35.4 18.4634 35.7055 18.7238C36.0111 18.9841 36.225 19.2817 36.3472 19.6166C36.4694 19.9527 36.4847 20.3194 36.393 20.7166C36.3014 21.1138 36.0722 21.4347 35.7055 21.6791L29.0597 26.3999L31.6722 34.8791C31.825 35.3069 31.8177 35.7041 31.6502 36.0708C31.4828 36.4374 31.2457 36.7277 30.9389 36.9416C30.6333 37.1555 30.2819 37.2704 29.8847 37.2863C29.4875 37.3022 29.1208 37.172 28.7847 36.8958L22.0014 31.7166Z" fill="#F15E38" fill-opacity="0.65"/>
</svg>
