<svg width="24" height="24" viewBox="0 0 24 24" fill="none" xmlns="http://www.w3.org/2000/svg">
<path d="M15.5014 14H14.7114L14.4314 13.73C15.0564 13.004 15.5131 12.1488 15.769 11.2256C16.0248 10.3025 16.0735 9.33416 15.9114 8.39001C15.4414 5.61001 13.1214 3.39001 10.3214 3.05001C9.33706 2.92547 8.33723 3.02778 7.39846 3.34909C6.4597 3.67041 5.60688 4.20222 4.90527 4.90384C4.20366 5.60545 3.67185 6.45827 3.35053 7.39703C3.02921 8.33579 2.92691 9.33562 3.05144 10.32C3.39144 13.12 5.61144 15.44 8.39144 15.91C9.33559 16.0721 10.3039 16.0234 11.2271 15.7676C12.1502 15.5117 13.0054 15.055 13.7314 14.43L14.0014 14.71V15.5L18.2514 19.75C18.6614 20.16 19.3314 20.16 19.7414 19.75C20.1514 19.34 20.1514 18.67 19.7414 18.26L15.5014 14ZM9.50144 14C7.01144 14 5.00144 11.99 5.00144 9.50001C5.00144 7.01 7.01144 5.00001 9.50144 5.00001C11.9914 5.00001 14.0014 7.01 14.0014 9.50001C14.0014 11.99 11.9914 14 9.50144 14Z" fill="#808080"/>
</svg>
