<svg width="34" height="34" viewBox="0 0 34 34" fill="none" xmlns="http://www.w3.org/2000/svg">
<path d="M9.91628 9.91673C6.0134 13.8196 6.0134 20.1804 9.91628 24.0833C13.8192 27.9862 20.1799 27.9862 24.0828 24.0833C27.9857 20.1804 27.9857 13.8196 24.0828 9.91673C20.1799 6.01384 13.8192 6.01384 9.91628 9.91673ZM21.0087 16.2492C21.4195 16.2492 21.7595 16.5892 21.7595 17C21.7595 17.2125 21.6745 17.3967 21.5399 17.5312C21.4054 17.6658 21.2212 17.7508 21.0087 17.7508L17.7504 17.7508L17.7504 21.0091C17.7504 21.2216 17.6654 21.4058 17.5308 21.5404C17.3962 21.675 17.2121 21.76 16.9996 21.76C16.5887 21.76 16.2487 21.42 16.2487 21.0091L16.2487 17.7508L12.9904 17.7508C12.5796 17.7508 12.2396 17.4108 12.2396 17C12.2396 16.5892 12.5796 16.2492 12.9904 16.2492L16.2487 16.2492L16.2487 12.9909C16.2487 12.58 16.5887 12.24 16.9996 12.24C17.4104 12.24 17.7504 12.58 17.7504 12.9909L17.7504 16.2492L21.0087 16.2492Z" fill="#F15E38" fill-opacity="0.65"/>
</svg>
