<svg width="21" height="21" viewBox="0 0 21 21" fill="none" xmlns="http://www.w3.org/2000/svg">
<path d="M14.1659 1.75017H6.83342C3.64842 1.75017 1.74967 3.64892 1.74967 6.83392V14.1577C1.74967 17.3514 3.64842 19.2502 6.83342 19.2502H14.1572C17.3422 19.2502 19.2409 17.3514 19.2409 14.1664V6.83392C19.2497 3.64892 17.3509 1.75017 14.1659 1.75017ZM14.6822 8.48767L9.72092 13.4489C9.59842 13.5714 9.43217 13.6414 9.25717 13.6414C9.08217 13.6414 8.91592 13.5714 8.79342 13.4489L6.31717 10.9727C6.06342 10.7189 6.06342 10.2989 6.31717 10.0452C6.57092 9.79142 6.99092 9.79142 7.24467 10.0452L9.25717 12.0577L13.7547 7.56017C14.0084 7.30642 14.4284 7.30642 14.6822 7.56017C14.9359 7.81392 14.9359 8.22517 14.6822 8.48767Z" fill="#F15E38"/>
</svg>
