<svg width="353" height="40" viewBox="0 0 353 40" fill="none" xmlns="http://www.w3.org/2000/svg">
<circle cx="20" cy="20" r="20" fill="white"/>
<path d="M25 26C23.89 26 23 26.89 23 28C23 28.5304 23.2107 29.0391 23.5858 29.4142C23.9609 29.7893 24.4696 30 25 30C25.5304 30 26.0391 29.7893 26.4142 29.4142C26.7893 29.0391 27 28.5304 27 28C27 27.4696 26.7893 26.9609 26.4142 26.5858C26.0391 26.2107 25.5304 26 25 26ZM9 10V12H11L14.6 19.59L13.24 22.04C13.09 22.32 13 22.65 13 23C13 23.5304 13.2107 24.0391 13.5858 24.4142C13.9609 24.7893 14.4696 25 15 25H27V23H15.42C15.3537 23 15.2901 22.9737 15.2432 22.9268C15.1963 22.8799 15.17 22.8163 15.17 22.75C15.17 22.7 15.18 22.66 15.2 22.63L16.1 21H23.55C24.3 21 24.96 20.58 25.3 19.97L28.88 13.5C28.95 13.34 29 13.17 29 13C29 12.7348 28.8946 12.4804 28.7071 12.2929C28.5196 12.1054 28.2652 12 28 12H13.21L12.27 10M15 26C13.89 26 13 26.89 13 28C13 28.5304 13.2107 29.0391 13.5858 29.4142C13.9609 29.7893 14.4696 30 15 30C15.5304 30 16.0391 29.7893 16.4142 29.4142C16.7893 29.0391 17 28.5304 17 28C17 27.4696 16.7893 26.9609 16.4142 26.5858C16.0391 26.2107 15.5304 26 15 26Z" fill="#F15E38"/>
<circle cx="68" cy="20" r="20" fill="white"/>
<path d="M74 24.08C73.24 24.08 72.56 24.38 72.04 24.85L64.91 20.7C64.96 20.47 65 20.24 65 20C65 19.76 64.96 19.53 64.91 19.3L71.96 15.19C72.5 15.69 73.21 16 74 16C75.66 16 77 14.66 77 13C77 11.34 75.66 10 74 10C72.34 10 71 11.34 71 13C71 13.24 71.04 13.47 71.09 13.7L64.04 17.81C63.5 17.31 62.79 17 62 17C60.34 17 59 18.34 59 20C59 21.66 60.34 23 62 23C62.79 23 63.5 22.69 64.04 22.19L71.16 26.35C71.11 26.56 71.08 26.78 71.08 27C71.08 28.61 72.39 29.92 74 29.92C75.61 29.92 76.92 28.61 76.92 27C76.92 25.39 75.61 24.08 74 24.08Z" fill="#F15E38"/>
<circle cx="333" cy="20" r="20" fill="#F15E38"/>
<path d="M330 27L336 20.5L330 27ZM336 20.5L330 14L336 20.5Z" fill="#D9D9D9"/>
<path d="M330 27L336 20.5L330 14" stroke="white" stroke-width="2.5" stroke-linecap="round" stroke-linejoin="round"/>
</svg>
